<svg xmlns="http://www.w3.org/2000/svg" xmlns:xlink="http://www.w3.org/1999/xlink" width="307" height="738"><defs><circle id="a" cx="53.6" cy="53.6" r="53.6"/><filter id="b" width="119.6%" height="119.6%" x="-9.8%" y="-7%" filterUnits="objectBoundingBox"><feOffset dy="3" in="SourceAlpha" result="shadowOffsetOuter1"/><feGaussianBlur in="shadowOffsetOuter1" result="shadowBlurOuter1" stdDeviation="3"/><feColorMatrix in="shadowBlurOuter1" values="0 0 0 0 0.301011178 0 0 0 0 0.338911243 0 0 0 0 0.402078019 0 0 0 0.203776042 0"/></filter><rect id="c" width="39.5" height="39.5" x="8.63" y="8.63" rx="12"/><filter id="d" width="140.5%" height="140.5%" x="-20.3%" y="-17.7%" filterUnits="objectBoundingBox"><feOffset dy="1" in="SourceAlpha" result="shadowOffsetOuter1"/><feGaussianBlur in="shadowOffsetOuter1" result="shadowBlurOuter1" stdDeviation="2.5"/><feComposite in="shadowBlurOuter1" in2="SourceAlpha" operator="out" result="shadowBlurOuter1"/><feColorMatrix in="shadowBlurOuter1" values="0 0 0 0 0.301011178 0 0 0 0 0.338911243 0 0 0 0 0.402078019 0 0 0 0.203776042 0"/></filter><ellipse id="e" cx="53.75" cy="53.966" rx="53.75" ry="53.966"/><filter id="f" width="119.5%" height="119.5%" x="-9.8%" y="-6.9%" filterUnits="objectBoundingBox"><feOffset dy="3" in="SourceAlpha" result="shadowOffsetOuter1"/><feGaussianBlur in="shadowOffsetOuter1" result="shadowBlurOuter1" stdDeviation="3"/><feColorMatrix in="shadowBlurOuter1" values="0 0 0 0 0.301011178 0 0 0 0 0.338911243 0 0 0 0 0.402078019 0 0 0 0.203776042 0"/></filter><rect id="g" width="39.5" height="39.5" x="8.63" y="8.63" rx="12"/><filter id="h" width="140.5%" height="140.5%" x="-20.3%" y="-17.7%" filterUnits="objectBoundingBox"><feOffset dy="1" in="SourceAlpha" result="shadowOffsetOuter1"/><feGaussianBlur in="shadowOffsetOuter1" result="shadowBlurOuter1" stdDeviation="2.5"/><feComposite in="shadowBlurOuter1" in2="SourceAlpha" operator="out" result="shadowBlurOuter1"/><feColorMatrix in="shadowBlurOuter1" values="0 0 0 0 0.301011178 0 0 0 0 0.338911243 0 0 0 0 0.402078019 0 0 0 0.203776042 0"/></filter><ellipse id="i" cx="53.5" cy="53.715" rx="53.5" ry="53.715"/><filter id="j" width="119.6%" height="119.5%" x="-9.8%" y="-7%" filterUnits="objectBoundingBox"><feOffset dy="3" in="SourceAlpha" result="shadowOffsetOuter1"/><feGaussianBlur in="shadowOffsetOuter1" result="shadowBlurOuter1" stdDeviation="3"/><feColorMatrix in="shadowBlurOuter1" values="0 0 0 0 0.301011178 0 0 0 0 0.338911243 0 0 0 0 0.402078019 0 0 0 0.203776042 0"/></filter><rect id="k" width="39.5" height="39.5" x="8.63" y="8.63" rx="12"/><filter id="l" width="140.5%" height="140.5%" x="-20.3%" y="-17.7%" filterUnits="objectBoundingBox"><feOffset dy="1" in="SourceAlpha" result="shadowOffsetOuter1"/><feGaussianBlur in="shadowOffsetOuter1" result="shadowBlurOuter1" stdDeviation="2.5"/><feComposite in="shadowBlurOuter1" in2="SourceAlpha" operator="out" result="shadowBlurOuter1"/><feColorMatrix in="shadowBlurOuter1" values="0 0 0 0 0.301011178 0 0 0 0 0.338911243 0 0 0 0 0.402078019 0 0 0 0.203776042 0"/></filter><ellipse id="m" cx="53.5" cy="53.715" rx="53.5" ry="53.715"/><filter id="n" width="119.6%" height="119.5%" x="-9.8%" y="-7%" filterUnits="objectBoundingBox"><feOffset dy="3" in="SourceAlpha" result="shadowOffsetOuter1"/><feGaussianBlur in="shadowOffsetOuter1" result="shadowBlurOuter1" stdDeviation="3"/><feColorMatrix in="shadowBlurOuter1" values="0 0 0 0 0.301011178 0 0 0 0 0.338911243 0 0 0 0 0.402078019 0 0 0 0.203776042 0"/></filter><rect id="o" width="39.5" height="39.5" x="8.63" y="8.63" rx="12"/><filter id="p" width="140.5%" height="140.5%" x="-20.3%" y="-17.7%" filterUnits="objectBoundingBox"><feOffset dy="1" in="SourceAlpha" result="shadowOffsetOuter1"/><feGaussianBlur in="shadowOffsetOuter1" result="shadowBlurOuter1" stdDeviation="2.5"/><feComposite in="shadowBlurOuter1" in2="SourceAlpha" operator="out" result="shadowBlurOuter1"/><feColorMatrix in="shadowBlurOuter1" values="0 0 0 0 0.301011178 0 0 0 0 0.338911243 0 0 0 0 0.402078019 0 0 0 0.203776042 0"/></filter><ellipse id="q" cx="53.5" cy="53.715" rx="53.5" ry="53.715"/><filter id="r" width="119.6%" height="119.5%" x="-9.8%" y="-7%" filterUnits="objectBoundingBox"><feOffset dy="3" in="SourceAlpha" result="shadowOffsetOuter1"/><feGaussianBlur in="shadowOffsetOuter1" result="shadowBlurOuter1" stdDeviation="3"/><feColorMatrix in="shadowBlurOuter1" values="0 0 0 0 0.301011178 0 0 0 0 0.338911243 0 0 0 0 0.402078019 0 0 0 0.203776042 0"/></filter><rect id="s" width="39.5" height="39.5" x="8.63" y="8.63" rx="12"/><filter id="t" width="140.5%" height="140.5%" x="-20.3%" y="-17.7%" filterUnits="objectBoundingBox"><feOffset dy="1" in="SourceAlpha" result="shadowOffsetOuter1"/><feGaussianBlur in="shadowOffsetOuter1" result="shadowBlurOuter1" stdDeviation="2.5"/><feComposite in="shadowBlurOuter1" in2="SourceAlpha" operator="out" result="shadowBlurOuter1"/><feColorMatrix in="shadowBlurOuter1" values="0 0 0 0 0.301011178 0 0 0 0 0.338911243 0 0 0 0 0.402078019 0 0 0 0.203776042 0"/></filter></defs><g fill="none" fill-rule="evenodd"><g transform="translate(17.5 12)"><use height="100%" width="100%" xlink:href="#a" fill="#000" filter="url(#b)"/><use height="100%" width="100%" xlink:href="#a" fill="#fff"/></g><g fill="#1e642e"><path d="M97.298 63.712C97.298 50.4 86.509 39.6 73.186 39.6A24.057 24.057 0 0 0 53.5 49.793l1.834 1.834c3.876-5.721 10.423-9.47 17.852-9.47 11.901 0 21.555 9.654 21.555 21.555 0 7.418-3.749 13.953-9.447 17.829l1.834 1.834c6.157-4.357 10.17-11.546 10.17-19.663zM79.419 79.2c-1.605-1.605-4.23-1.777-5.928-.263-2.912 2.912-3.875 2.534-4.941 1.422L56.385 68.286c-1.112-1.113-1.49-2.03 1.422-4.942 1.513-1.697 1.341-4.323-.264-5.928l-6.856-6.902c-1.606-1.605-4.185-1.777-5.882-.31-5.802 5.229-4.472 17.6 1.777 23.39l16.75 16.751c5.642 5.985 17.635 7.647 23.253 1.743 1.467-1.697 1.295-4.277-.31-5.882l-6.856-7.005z"/><path d="M69.67 63.918h-7.242a1.263 1.263 0 0 1-1.263-1.262c0-2.496 6.041-7.223 6.364-7.496.323-.374.495-.838.495-1.333 0-1.122-.92-2.04-2.04-2.04-1.122 0-2.04.918-2.04 2.04a1.263 1.263 0 0 1-2.526 0 4.574 4.574 0 0 1 4.566-4.566 4.574 4.574 0 0 1 4.566 4.566 4.552 4.552 0 0 1-1.223 3.111l-.12.121c-1.82 1.495-3.567 3.162-4.597 4.334h5.06a1.263 1.263 0 0 1 0 2.525z"/><path d="M79.005 64.1a1.263 1.263 0 0 1-1.263-1.263v-1.626H72.49c-.464 0-.899-.263-1.121-.677a1.239 1.239 0 0 1 .08-1.303l6.516-9.425a1.265 1.265 0 0 1 2.304.717v8.163h1.444a1.263 1.263 0 0 1 0 2.525h-1.444v1.626c0 .698-.566 1.263-1.263 1.263zm-4.112-5.414h2.85v-4.112z" fill-rule="nonzero"/></g><path d="M81.992 65.656h5.203q.75 0 1.086.235.336.234.336.773 0 .328-.398.867-.39.54-.899 1.196-.5.648-1.039 1.617-.531.969-.976 2.367-.188.617-.266 1.023-.078.407-.172 1.055-.094.649-.164.992-.164.797-.469 1.11-.296.304-.796.304-.477 0-.766-.328-.29-.336-.29-.984 0-.5.212-1.36.21-.859.687-2.054.477-1.203 1.188-2.461.719-1.266 1.703-2.516h-4.18q-.656 0-.984-.234-.32-.242-.32-.75 0-.54.343-.695.344-.157.961-.157z" aria-label="7" font-size="16" font-family="ArialRoundedMTBold,'Arial Rounded MT Bold'" fill="#1e642e"/><path d="M70.402 70.254l19.223-10.628" stroke="#1e642e" stroke-width="1.2" stroke-linecap="round"/><g transform="rotate(45 30.088 29.088)"><use height="100%" width="100%" xlink:href="#c" fill="#000" filter="url(#d)"/><rect width="38" height="38" x="9.38" y="9.38" stroke-linejoin="square" rx="12" fill="#fff" stroke="#1e642e" stroke-width="1.5"/></g><path d="M31.117 35h-2.295v-9.219q0-1.65.078-2.617-.224.234-.556.518-.323.283-2.188 1.797l-1.152-1.456 4.2-3.3h1.913z" aria-label="1" font-weight="600" font-size="20" font-family="OpenSans-SemiBold,'Open Sans'" fill="#1e642e"/><path d="M185.756 126.155c-8.59-19.306-39.993-36.905-64.184-29.941 19.224-2.284 49.983 13.817 56.665 33.7l-5.688-1.725 17.881 20.854-2.593-28.373-2.08 5.485M126.362 293.35c8.591-19.307 39.993-36.906 64.184-29.942-19.224-2.284-49.982 13.817-56.665 33.7l5.689-1.725-17.882 20.854 2.594-28.373 2.08 5.485m59.394 134.806c-8.59-19.306-39.993-36.905-64.184-29.941 19.224-2.284 49.983 13.817 56.665 33.7l-5.688-1.725 17.881 20.854-2.593-28.373-2.08 5.485M126.362 595.35c8.591-19.307 39.993-36.906 64.184-29.942-19.224-2.284-49.982 13.817-56.665 33.7l5.689-1.725-17.882 20.854 2.594-28.373 2.08 5.485" fill="#749e7d"/><g transform="translate(193.5 164.436)"><use height="100%" width="100%" xlink:href="#e" fill="#000" filter="url(#f)"/><use height="100%" width="100%" xlink:href="#e" fill="#fff"/></g><g fill="#1e642e"><path d="M275.739 192.09c-.664-.806-1.67-1.255-2.715-1.255h-22.667c-.649 0-1.266.182-1.8.51l-1.159-4.042a1.541 1.541 0 0 0-1.479-1.12h-5.124c-.64 0-1.166.518-1.166 1.165v.122c0 .64.518 1.165 1.166 1.165h4.407l2.25 7.94 3.095 10.953a4.05 4.05 0 0 0-3.065 3.92 4.048 4.048 0 0 0 3.782 4.034 3.985 3.985 0 0 0-.214 1.63 3.967 3.967 0 0 0 3.668 3.623 3.962 3.962 0 0 0 4.24-3.943c0-.457-.077-.89-.222-1.302h4.636a3.97 3.97 0 0 0-.199 1.758c.214 1.873 1.762 3.35 3.653 3.487 2.31.16 4.247-1.667 4.247-3.943 0-2.2-1.83-3.959-4.026-3.959H251.56c-.755 0-1.395-.586-1.426-1.332a1.385 1.385 0 0 1 1.388-1.438h18.474a3.431 3.431 0 0 0 3.325-2.596l3.08-12.377a3.398 3.398 0 0 0-.663-3zm-8.624 23.392c.717 0 1.304.587 1.304 1.302 0 .716-.587 1.302-1.304 1.302a1.307 1.307 0 0 1-1.303-1.302c0-.715.579-1.302 1.303-1.302zm-12.115 0c.717 0 1.304.587 1.304 1.302 0 .716-.587 1.302-1.304 1.302a1.307 1.307 0 0 1-1.304-1.302c0-.715.58-1.302 1.304-1.302zm-4.788-18.923l-.595-2.093a.73.73 0 0 1 .13-.67.751.751 0 0 1 .61-.305h2.485l.679 3.076h-3.31v-.008zm.747 2.649h3.141l.625 2.847h-2.966zm2.89 8.19a.766.766 0 0 1-.74-.563l-.602-2.131h2.798l.595 2.687h-2.051zm6.64 0h-1.875l-.595-2.687h2.463v2.687h.008zm0-5.343h-3.05l-.624-2.847h3.675v2.847zm0-5.496h-4.254l-.679-3.075h4.934v3.075zm4.758 10.84h-2.096v-2.688h2.66l-.564 2.687zm1.129-5.344h-3.225v-2.847h3.827zm-3.225-5.496v-3.075h5.032l-.648 3.075zm7.601 10.26a.767.767 0 0 1-.747.587h-2.043l.572-2.687h2.744zm1.182-4.764h-2.844l.602-2.847h2.951zm1.891-7.62l-.526 2.116h-3.05l.648-3.075h2.18a.73.73 0 0 1 .603.297c.092.114.229.35.145.662z" fill-rule="nonzero"/><path d="M252.739 233.928a10.278 10.278 0 0 1-8.312 4.23h-4.79a3.826 3.826 0 0 1-3.596-2.514 12.165 12.165 0 0 1-1.934-.762 13.024 13.024 0 0 1-3.613-2.666c-6.918 1.515-12.096 7.662-12.096 15.017v.96a2.396 2.396 0 0 0 2.399 2.394h37.228c1.325 0 2.4-1.072 2.4-2.393v-.961c0-5.682-3.09-10.643-7.686-13.305z"/><path d="M227.944 227.284c1.031 0 1.929-.57 2.394-1.411l.037.1.011.03c1.091 2.863 3.214 5.263 6.013 6.312a3.824 3.824 0 0 1 3.239-1.786h4.789c.477 0 .922-.134 1.312-.352.654-.365 1.243-1.29 1.547-1.781.486-.786.863-1.618 1.197-2.525.188.34.446.636.756.868v1.171c0 2.646-2.159 4.799-4.812 4.799h-4.79c-.905 0-1.639.731-1.639 1.634 0 .903.734 1.635 1.64 1.635h4.789c4.46 0 8.09-3.62 8.09-8.068v-1.17a2.718 2.718 0 0 0 1.093-2.18v-6.82c0-.91-.447-1.714-1.134-2.209-.533-6.722-6.189-12.03-13.065-12.03-6.876 0-12.532 5.308-13.065 12.03a2.718 2.718 0 0 0-1.134 2.21v6.818a2.73 2.73 0 0 0 2.732 2.725zm11.467-20.514c5.09 0 9.289 3.88 9.78 8.829a2.736 2.736 0 0 0-.768.946c-1.547-4.024-5-6.826-9.012-6.826-4.098 0-7.496 2.898-9.006 6.81l-.006.016a2.736 2.736 0 0 0-.768-.946c.491-4.95 4.69-8.829 9.78-8.829z" fill-rule="nonzero"/></g><g transform="rotate(45 -65.837 317.722)"><use height="100%" width="100%" xlink:href="#g" fill="#000" filter="url(#h)"/><rect width="38" height="38" x="9.38" y="9.38" stroke-linejoin="square" rx="12" fill="#fff" stroke="#1e642e" stroke-width="1.5"/></g><path d="M210.057 187.368h-9.678v-1.738l3.682-3.701q1.63-1.67 2.158-2.364.537-.703.781-1.318.244-.615.244-1.318 0-.967-.586-1.524-.576-.557-1.601-.557-.82 0-1.592.303-.762.303-1.768 1.094l-1.24-1.514q1.191-1.006 2.314-1.426 1.124-.42 2.393-.42 1.992 0 3.193 1.045 1.202 1.036 1.202 2.793 0 .967-.352 1.836-.342.87-1.064 1.797-.713.918-2.383 2.49l-2.48 2.403v.098h6.777z" aria-label="2" font-weight="600" font-size="20" font-family="OpenSans-SemiBold,'Open Sans'" fill="#1e642e"/><g transform="translate(18 317.57)"><use height="100%" width="100%" xlink:href="#i" fill="#000" filter="url(#j)"/><use height="100%" width="100%" xlink:href="#i" fill="#fff"/></g><path d="M89.002 357.367l-.024.005.006-.015-4.64-1.965-1.18.173c-1.247-5.605-4.557-9.521-8.558-9.521-.47 0-.928.071-1.378.176-1.446-1.396-3.253-2.193-5.354-2.193-6.092 0-9.05 8.148-9.092 15.396l-5.557.88-.49 37.332 7.504 3.219 30.317-4.717zm-9.668-1.196l-2.304.363c-.087-2.338-.507-4.46-1.213-6.269 1.448.786 2.814 2.923 3.517 5.906zm-6.142.973l-3.606.571c.4-2.812 1.37-5.048 2.538-6.388.675 1.56 1.046 3.565 1.068 5.817zm-7.676 3.614l-6.48.931-4.09-.725 10.614-1.645c-.02.398-.048.79-.048 1.2-.002.078.004.157.004.239zm-2.85-1.949c.243-5.842 2.438-10.9 5.206-10.9a3.73 3.73 0 0 1 1.76.436c-2.137 2.187-3.628 5.77-4.013 9.998zm5.287 7.615a2.3 2.3 0 0 1-2.294-2.306 2.3 2.3 0 0 1 2.294-2.304 2.3 2.3 0 0 1 2.294 2.304 2.3 2.3 0 0 1-2.294 2.306zm1.43-6.225c.008-.514.036-1.01.08-1.496l10.075-1.588c.091.51.163.924.212 1.473l-10.366 1.61zm13.3 3.92a2.301 2.301 0 0 1-2.295-2.305 2.3 2.3 0 0 1 2.295-2.303 2.298 2.298 0 0 1 2.293 2.303 2.299 2.299 0 0 1-2.293 2.305zm.892-6.082c-.057-.559-.195-1.054-.288-1.588l.962-.197 2.958 1.268z" fill="#1e642e" fill-rule="nonzero"/><g transform="rotate(45 -338.08 181.588)"><use height="100%" width="100%" xlink:href="#k" fill="#000" filter="url(#l)"/><rect width="38" height="38" x="9.38" y="9.38" stroke-linejoin="square" rx="12" fill="#fff" stroke="#1e642e" stroke-width="1.5"/></g><path d="M33.52 329.004q0 1.357-.791 2.266-.792.898-2.227 1.21v.079q1.719.214 2.578 1.074.86.85.86 2.265 0 2.061-1.456 3.184-1.455 1.113-4.14 1.113-2.373 0-4.004-.771v-2.041q.908.449 1.924.693 1.015.244 1.953.244 1.66 0 2.48-.615.82-.615.82-1.904 0-1.143-.908-1.68-.908-.537-2.851-.537h-1.24v-1.865h1.26q3.417 0 3.417-2.364 0-.917-.595-1.416-.596-.498-1.758-.498-.81 0-1.563.235-.752.224-1.777.888l-1.123-1.601q1.963-1.445 4.56-1.445 2.159 0 3.37.927 1.21.928 1.21 2.559z" aria-label="3" font-weight="600" font-size="20" font-family="OpenSans-SemiBold,'Open Sans'" fill="#1e642e"/><g transform="translate(184 469.57)"><use height="100%" width="100%" xlink:href="#m" fill="#000" filter="url(#n)"/><use height="100%" width="100%" xlink:href="#m" fill="#fff"/></g><path d="M250.59 505.61c5.33 1.24 7.37 4.365 9.926 8.666h-9.926zm-31.154 9.027c1.044 0 1.801.505 1.801 1.685 0 .996-.803 1.803-1.796 1.806H208.56c-.995 0-1.802.81-1.802 1.806 0 .998.807 1.806 1.802 1.806h16.212c1.004 0 1.808.808 1.808 1.806 0 .997-.806 1.806-1.801 1.806h-16.22c-.994 0-1.8.808-1.8 1.805 0 .998.806 1.806 1.8 1.806h3.964v5.418c0 .997.806 1.806 1.801 1.806h3.62a6.912 6.912 0 0 0 6.768 5.538 6.912 6.912 0 0 0 6.766-5.538h18.29a6.912 6.912 0 0 0 6.767 5.538 6.912 6.912 0 0 0 6.767-5.538h3.14c.995 0 1.802-.809 1.802-1.806v-10.835c0-5.299-5.575-5.65-5.58-5.659h-13.875a1.803 1.803 0 0 1-1.801-1.805v-10.835h-32.664c-.995 0-1.801.808-1.801 1.805v3.973h-2.162c-.995 0-1.801.809-1.801 1.806 0 .998.806 1.806 1.801 1.806h9.076zm39.433 17.824a3.317 3.317 0 0 1 0 4.683c-2.074 2.08-5.637.6-5.637-2.342 0-2.94 3.563-4.42 5.637-2.34zm-31.823 0a3.317 3.317 0 0 1 0 4.683c-2.075 2.08-5.638.6-5.638-2.342 0-2.94 3.563-4.42 5.638-2.34z" fill="#1e642e" fill-rule="nonzero"/><g transform="rotate(45 -438.56 457.967)"><use height="100%" width="100%" xlink:href="#o" fill="#000" filter="url(#p)"/><rect width="38" height="38" x="9.38" y="9.38" stroke-linejoin="square" rx="12" fill="#fff" stroke="#1e642e" stroke-width="1.5"/></g><path d="M200.564 488.885h-1.923V492h-2.237v-3.115h-6.523v-1.768l6.523-9.433h2.237v9.296h1.923zm-4.16-1.905v-3.584q0-1.914.098-3.134h-.078q-.274.644-.86 1.562l-3.544 5.156z" aria-label="4" font-weight="600" font-size="20" font-family="OpenSans-SemiBold,'Open Sans'" fill="#1e642e"/><g transform="translate(19 621.57)"><use height="100%" width="100%" xlink:href="#q" fill="#000" filter="url(#r)"/><use height="100%" width="100%" xlink:href="#q" fill="#fff"/></g><g fill="#1e642e"><path d="M87.049 664.484c.807 0 1.035-1.102.307-1.434L58.94 650.334a3.42 3.42 0 0 0-4.538 1.756l-9.95 22.516c-.773 1.745 0 3.8 1.74 4.58l5.732 2.501a1.093 1.093 0 0 0 1.535-.998v-9.56c0-3.661 2.945-6.633 6.572-6.633H87.05v-.012z"/><path d="M94.245 667.593H59.779c-1.922 0-3.48 1.572-3.48 3.511v24.571c0 1.94 1.558 3.512 3.48 3.512h4.628a12.869 12.869 0 0 1-.17-2.1c0-.803.079-1.584.215-2.353h-3.73v-11.763h32.59v11.752h-3.74a12.954 12.954 0 0 1 .045 4.453h4.628c1.922 0 3.48-1.572 3.48-3.512v-24.56c0-1.94-1.558-3.511-3.48-3.511zm-.933 8.136h-32.59v-3.684h32.59z" fill-rule="nonzero"/><path d="M77.004 687.826c-4.935 0-8.938 4.04-8.938 9.02 0 4.982 4.003 9.021 8.938 9.021 4.935 0 8.937-4.04 8.937-9.02 0-4.981-4.002-9.02-8.937-9.02zm2.57 12.578a2.826 2.826 0 0 1-1.49.964c-.262.07-.375.207-.364.483.012.263 0 .527 0 .803 0 .24-.125.367-.352.367a10.11 10.11 0 0 1-.853 0c-.25 0-.364-.15-.364-.39v-.585c0-.425-.023-.448-.432-.517-.523-.08-1.035-.206-1.513-.436-.375-.184-.42-.275-.307-.677.08-.298.16-.597.25-.884.103-.344.194-.378.512-.218a4.844 4.844 0 0 0 1.683.505c.375.046.75.012 1.103-.149.66-.287.762-1.056.205-1.515a2.302 2.302 0 0 0-.625-.367c-.58-.253-1.183-.448-1.718-.78-.886-.528-1.444-1.263-1.375-2.353.068-1.228.761-1.986 1.876-2.399.455-.172.466-.16.466-.643v-.493c.011-.367.068-.425.432-.436h.33c.773 0 .773 0 .773.78 0 .551 0 .551.546.631.41.07.807.184 1.194.356.216.092.296.241.227.47-.09.334-.182.678-.295 1-.103.31-.205.355-.5.217a3.724 3.724 0 0 0-1.888-.378c-.17.011-.341.034-.5.103-.57.252-.672.895-.183 1.285.25.195.524.345.82.47.51.207 1.011.414 1.5.69 1.501.837 1.922 2.777.842 4.096z" fill-rule="nonzero"/></g><g transform="rotate(45 -704.54 334.795)"><use height="100%" width="100%" xlink:href="#s" fill="#000" filter="url(#t)"/><rect width="38" height="38" x="9.38" y="9.38" stroke-linejoin="square" rx="12" fill="#fff" stroke="#1e642e" stroke-width="1.5"/></g><path d="M30.223 635.084q2.158 0 3.418 1.143 1.26 1.142 1.26 3.115 0 2.285-1.436 3.574-1.426 1.28-4.063 1.28-2.392 0-3.76-.772v-2.08q.792.449 1.817.693 1.025.244 1.904.244 1.553 0 2.364-.693.81-.693.81-2.031 0-2.559-3.262-2.559-.459 0-1.132.098-.674.088-1.182.205l-1.025-.606.546-6.972h7.422v2.04h-5.4l-.322 3.536q.341-.059.83-.137.498-.078 1.21-.078z" aria-label="5" font-weight="600" font-size="20" font-family="OpenSans-SemiBold,'Open Sans'" fill="#1e642e"/></g></svg>