<svg xmlns="http://www.w3.org/2000/svg" xmlns:xlink="http://www.w3.org/1999/xlink" height="781" width="1198"><defs><circle r="134" cy="134" cx="134" id="a"/><filter filterUnits="objectBoundingBox" y="-7.1%" x="-9.7%" height="119.4%" width="119.4%" id="b"><feOffset result="shadowOffsetOuter1" in="SourceAlpha" dy="7"/><feGaussianBlur stdDeviation="7.5" result="shadowBlurOuter1" in="shadowOffsetOuter1"/><feColorMatrix values="0 0 0 0 0.301011178 0 0 0 0 0.338911243 0 0 0 0 0.402078019 0 0 0 0.203776042 0" in="shadowBlurOuter1"/></filter><circle r="134" cy="134" cx="134" id="c"/><filter filterUnits="objectBoundingBox" y="-7.1%" x="-9.7%" height="119.4%" width="119.4%" id="d"><feOffset result="shadowOffsetOuter1" in="SourceAlpha" dy="7"/><feGaussianBlur stdDeviation="7.5" result="shadowBlurOuter1" in="shadowOffsetOuter1"/><feColorMatrix values="0 0 0 0 0.301011178 0 0 0 0 0.338911243 0 0 0 0 0.402078019 0 0 0 0.203776042 0" in="shadowBlurOuter1"/></filter><circle r="134" cy="134" cx="134" id="e"/><filter filterUnits="objectBoundingBox" y="-7.1%" x="-9.7%" height="119.4%" width="119.4%" id="f"><feOffset result="shadowOffsetOuter1" in="SourceAlpha" dy="7"/><feGaussianBlur stdDeviation="7.5" result="shadowBlurOuter1" in="shadowOffsetOuter1"/><feColorMatrix values="0 0 0 0 0.301011178 0 0 0 0 0.338911243 0 0 0 0 0.402078019 0 0 0 0.203776042 0" in="shadowBlurOuter1"/></filter><circle r="134" cy="134" cx="134" id="g"/><filter filterUnits="objectBoundingBox" y="-7.1%" x="-9.7%" height="119.4%" width="119.4%" id="h"><feOffset result="shadowOffsetOuter1" in="SourceAlpha" dy="7"/><feGaussianBlur stdDeviation="7.5" result="shadowBlurOuter1" in="shadowOffsetOuter1"/><feColorMatrix values="0 0 0 0 0.301011178 0 0 0 0 0.338911243 0 0 0 0 0.402078019 0 0 0 0.203776042 0" in="shadowBlurOuter1"/></filter><circle r="134" cy="134" cx="134" id="i"/><filter filterUnits="objectBoundingBox" y="-7.1%" x="-9.7%" height="119.4%" width="119.4%" id="j"><feOffset result="shadowOffsetOuter1" in="SourceAlpha" dy="7"/><feGaussianBlur stdDeviation="7.5" result="shadowBlurOuter1" in="shadowOffsetOuter1"/><feColorMatrix values="0 0 0 0 0.301011178 0 0 0 0 0.338911243 0 0 0 0 0.402078019 0 0 0 0.203776042 0" in="shadowBlurOuter1"/></filter><rect rx="24" y="17.261" x="17.261" height="79" width="79" id="k"/><filter filterUnits="objectBoundingBox" y="-17.7%" x="-20.3%" height="140.5%" width="140.5%" id="l"><feOffset result="shadowOffsetOuter1" in="SourceAlpha" dy="2"/><feGaussianBlur stdDeviation="5" result="shadowBlurOuter1" in="shadowOffsetOuter1"/><feComposite result="shadowBlurOuter1" operator="out" in2="SourceAlpha" in="shadowBlurOuter1"/><feColorMatrix values="0 0 0 0 0.301011178 0 0 0 0 0.338911243 0 0 0 0 0.402078019 0 0 0 0.203776042 0" in="shadowBlurOuter1"/></filter><rect rx="24" y="17.261" x="17.261" height="79" width="79" id="m"/><filter filterUnits="objectBoundingBox" y="-17.7%" x="-20.3%" height="140.5%" width="140.5%" id="n"><feOffset result="shadowOffsetOuter1" in="SourceAlpha" dy="2"/><feGaussianBlur stdDeviation="5" result="shadowBlurOuter1" in="shadowOffsetOuter1"/><feComposite result="shadowBlurOuter1" operator="out" in2="SourceAlpha" in="shadowBlurOuter1"/><feColorMatrix values="0 0 0 0 0.301011178 0 0 0 0 0.338911243 0 0 0 0 0.402078019 0 0 0 0.203776042 0" in="shadowBlurOuter1"/></filter><rect rx="24" y="17.261" x="17.261" height="79" width="79" id="o"/><filter filterUnits="objectBoundingBox" y="-17.7%" x="-20.3%" height="140.5%" width="140.5%" id="p"><feOffset result="shadowOffsetOuter1" in="SourceAlpha" dy="2"/><feGaussianBlur stdDeviation="5" result="shadowBlurOuter1" in="shadowOffsetOuter1"/><feComposite result="shadowBlurOuter1" operator="out" in2="SourceAlpha" in="shadowBlurOuter1"/><feColorMatrix values="0 0 0 0 0.301011178 0 0 0 0 0.338911243 0 0 0 0 0.402078019 0 0 0 0.203776042 0" in="shadowBlurOuter1"/></filter><rect rx="24" y="17.261" x="17.261" height="79" width="79" id="q"/><filter filterUnits="objectBoundingBox" y="-17.7%" x="-20.3%" height="140.5%" width="140.5%" id="r"><feOffset result="shadowOffsetOuter1" in="SourceAlpha" dy="2"/><feGaussianBlur stdDeviation="5" result="shadowBlurOuter1" in="shadowOffsetOuter1"/><feComposite result="shadowBlurOuter1" operator="out" in2="SourceAlpha" in="shadowBlurOuter1"/><feColorMatrix values="0 0 0 0 0.301011178 0 0 0 0 0.338911243 0 0 0 0 0.402078019 0 0 0 0.203776042 0" in="shadowBlurOuter1"/></filter><rect rx="24" y="17.261" x="17.261" height="79" width="79" id="s"/><filter filterUnits="objectBoundingBox" y="-17.7%" x="-20.3%" height="140.5%" width="140.5%" id="t"><feOffset result="shadowOffsetOuter1" in="SourceAlpha" dy="2"/><feGaussianBlur stdDeviation="5" result="shadowBlurOuter1" in="shadowOffsetOuter1"/><feComposite result="shadowBlurOuter1" operator="out" in2="SourceAlpha" in="shadowBlurOuter1"/><feColorMatrix values="0 0 0 0 0.301011178 0 0 0 0 0.338911243 0 0 0 0 0.402078019 0 0 0 0.203776042 0" in="shadowBlurOuter1"/></filter></defs><g fill="none" fill-rule="evenodd"><path d="M321.461 285.456c-34.823-64.891-124.633-44.027-172.461-8.043 110.147-100.123 207.134-28.283 210.804 41.245l10.61-8.017-27.722 69.62-21.599-69.448 10.652 8.148c-.617-8.265-3.028-19.987-10.284-33.505m454 0c-34.823-64.891-124.633-44.027-172.461-8.043 110.147-100.123 207.134-28.283 210.804 41.245l10.61-8.017-27.722 69.62-21.599-69.448 10.652 8.148c-.617-8.265-3.028-19.987-10.284-33.505" opacity=".601" fill="#1e642e"/><path d="M418.168 317.822c-53.667 50.432-10.269 131.782 36.868 168.667-125.22-80.48-80.93-192.757-14.72-214.296l-10.49-8.174 74.422 8.758-61.492 38.838 5.114-12.398c-7.824 2.735-18.522 8.098-29.702 18.605m454 0c-53.667 50.432-10.269 131.782 36.868 168.667-125.22-80.48-80.93-192.757-14.72-214.296l-10.49-8.174 74.422 8.758-61.492 38.838 5.114-12.398c-7.824 2.735-18.522 8.098-29.702 18.605" opacity=".601" fill="#1e642e"/><g transform="translate(15 20)"><use height="100%" width="100%" xlink:href="#a" fill="#000" filter="url(#b)"/><use height="100%" width="100%" xlink:href="#a" fill="#fff"/></g><g fill="#1e642e"><path d="M214.495 149.28c0-33.279-26.973-60.28-60.28-60.28-20.322 0-38.323 10.06-49.215 25.482l4.586 4.586c9.688-14.303 26.055-23.676 44.63-23.676 29.752 0 53.887 24.135 53.887 53.887 0 18.546-9.373 34.884-23.619 44.572l4.586 4.587c15.393-10.893 25.425-28.865 25.425-49.159zm-44.698 38.722c-4.013-4.013-10.577-4.443-14.819-.66-7.28 7.28-9.688 6.335-12.354 3.555l-30.412-30.183c-2.78-2.78-3.726-5.074 3.554-12.354 3.784-4.242 3.354-10.806-.659-14.82l-17.14-17.255c-4.014-4.013-10.463-4.443-14.705-.774-14.504 13.071-11.179 43.999 4.443 58.474l41.877 41.878c14.103 14.962 44.085 19.118 58.13 4.356 3.669-4.242 3.239-10.691-.774-14.704l-17.14-17.513z"/><path d="M145.427 149.796h-18.108a3.158 3.158 0 0 1-3.156-3.157c0-6.238 15.102-18.057 15.91-18.739a5.045 5.045 0 0 0 1.238-3.333c0-2.804-2.299-5.102-5.102-5.102-2.803 0-5.101 2.298-5.101 5.102a3.158 3.158 0 0 1-6.314 0c0-6.289 5.127-11.415 11.415-11.415 6.288 0 11.415 5.126 11.415 11.415a11.38 11.38 0 0 1-3.056 7.778l-.303.303c-4.546 3.738-8.915 7.905-11.49 10.834h12.652a3.158 3.158 0 0 1 0 6.314z"/><path d="M168.762 150.25a3.158 3.158 0 0 1-3.157-3.156v-4.066h-13.132a3.204 3.204 0 0 1-2.803-1.692 3.097 3.097 0 0 1 .202-3.258l16.289-23.563a3.164 3.164 0 0 1 5.758 1.793v20.406h3.611a3.158 3.158 0 0 1 0 6.314h-3.61v4.066a3.158 3.158 0 0 1-3.158 3.157zm-10.278-13.536h7.121v-10.279l-7.121 10.28z" fill-rule="nonzero"/></g><path d="M176.23 154.64h13.008q1.875 0 2.715.587.84.585.84 1.933 0 .82-.996 2.168-.977 1.348-2.246 2.988-1.25 1.621-2.598 4.043-1.328 2.422-2.441 5.918-.469 1.543-.664 2.559-.196 1.016-.43 2.637-.234 1.62-.41 2.48-.41 1.992-1.172 2.774-.742.761-1.992.761-1.192 0-1.914-.82-.723-.84-.723-2.461 0-1.25.527-3.398.528-2.149 1.72-5.137 1.19-3.008 2.968-6.152 1.797-3.165 4.258-6.29h-10.45q-1.64 0-2.46-.585-.801-.606-.801-1.875 0-1.348.86-1.739.859-.39 2.401-.39z" aria-label="7" font-size="40" font-family="ArialRoundedMTBold,'Arial Rounded MT Bold'" fill="#1e642e"/><path d="M147.255 165.635l48.058-26.57" stroke="#1e642e" stroke-width="3" stroke-linecap="round"/><g transform="translate(242 399)"><use height="100%" width="100%" xlink:href="#c" fill="#000" filter="url(#d)"/><use height="100%" width="100%" xlink:href="#c" fill="#fff"/></g><g fill="#1e642e"><path d="M447.023 467.667c-1.654-2.003-4.163-3.118-6.767-3.118h-56.511a8.586 8.586 0 0 0-4.486 1.266l-2.89-10.037a3.84 3.84 0 0 0-3.687-2.778h-12.774a2.9 2.9 0 0 0-2.908 2.892v.302a2.9 2.9 0 0 0 2.908 2.892h10.987l5.607 19.714 7.718 27.199c-4.391 1.096-7.641 5.046-7.641 9.734 0 5.311 4.162 9.677 9.428 10.017a9.859 9.859 0 0 0-.533 4.045c.38 4.801 4.315 8.676 9.143 8.997 5.76.397 10.569-4.158 10.569-9.79a9.63 9.63 0 0 0-.551-3.233h11.557a9.821 9.821 0 0 0-.494 4.366c.532 4.65 4.39 8.317 9.104 8.657 5.76.397 10.588-4.14 10.588-9.79 0-5.463-4.562-9.83-10.036-9.83h-38.606c-1.882 0-3.479-1.455-3.555-3.307-.076-1.966 1.502-3.572 3.46-3.572h46.057c3.916 0 7.337-2.665 8.288-6.446l7.679-30.733a8.412 8.412 0 0 0-1.654-7.447zm-21.498 58.083c1.787 0 3.25 1.456 3.25 3.232 0 1.777-1.463 3.233-3.25 3.233s-3.25-1.456-3.25-3.233a3.24 3.24 0 0 1 3.25-3.232zm-30.204 0c1.786 0 3.25 1.456 3.25 3.232 0 1.777-1.464 3.233-3.25 3.233-1.787 0-3.25-1.456-3.25-3.233a3.24 3.24 0 0 1 3.25-3.232zm-11.938-46.988l-1.482-5.198a1.805 1.805 0 0 1 .323-1.663c.21-.283.703-.756 1.52-.756h6.197l1.692 7.636h-8.25zm1.863 6.578h7.832l1.558 7.069h-7.394l-1.996-7.07zm7.204 20.337a1.91 1.91 0 0 1-1.843-1.398l-1.502-5.293h6.976l1.483 6.672h-5.114v.02zm16.557 0h-4.676l-1.483-6.672h6.14v6.672zm0-13.268h-7.604l-1.558-7.07h9.162zm0-13.647H398.4l-1.692-7.636h12.299zm11.86 26.915h-5.227v-6.672h6.634l-1.406 6.672zm2.814-13.268h-8.04v-7.07h9.542zm-8.04-13.647v-7.636h12.545l-1.616 7.636h-10.93zm18.95 25.479a1.91 1.91 0 0 1-1.862 1.455h-5.094l1.425-6.672h6.843l-1.311 5.217zm2.947-11.832h-7.09l1.502-7.07h7.356zm4.714-18.92l-1.312 5.254h-7.603l1.616-7.636h5.436c.818 0 1.293.454 1.502.737.228.284.57.87.361 1.645z" fill-rule="nonzero"/><path d="M389.684 571.552c-4.662 6.36-12.214 10.501-20.723 10.501h-11.939a9.536 9.536 0 0 1-8.966-6.24 30.401 30.401 0 0 1-4.822-1.893c-3.327-1.641-6.347-3.865-9.007-6.62-17.248 3.763-30.157 19.027-30.157 37.288v2.386c0 3.282 2.678 5.942 5.982 5.942h92.81c3.304 0 5.983-2.66 5.983-5.942v-2.386c0-14.107-7.705-26.426-19.161-33.036z"/><path d="M327.87 555.054a6.816 6.816 0 0 0 5.968-3.504l.092.247.028.074c2.72 7.11 8.012 13.07 14.99 15.675a9.542 9.542 0 0 1 8.075-4.435h11.938c1.191 0 2.3-.333 3.271-.873 1.632-.906 3.1-3.205 3.857-4.424 1.213-1.95 2.153-4.015 2.986-6.267a6.812 6.812 0 0 0 1.883 2.154v2.908c0 6.57-5.382 11.915-11.997 11.915h-11.939c-2.257 0-4.086 1.817-4.086 4.059 0 2.241 1.83 4.058 4.086 4.058h11.94c11.121 0 20.17-8.986 20.17-20.032V553.7a6.74 6.74 0 0 0 2.724-5.412v-16.931a6.74 6.74 0 0 0-2.828-5.486C387.7 509.18 373.6 496 356.458 496c-17.143 0-31.244 13.18-32.572 29.871a6.74 6.74 0 0 0-2.828 5.486v16.932c0 3.747 3.065 6.765 6.812 6.765zm28.587-50.936c12.69 0 23.157 9.632 24.38 21.921a6.798 6.798 0 0 0-1.914 2.35c-3.856-9.993-12.464-16.95-22.466-16.95-10.217 0-18.688 7.196-22.451 16.91l-.015.04a6.798 6.798 0 0 0-1.915-2.35c1.224-12.29 11.691-21.921 24.381-21.921z" fill-rule="nonzero"/></g><g transform="translate(469 20)"><use height="100%" width="100%" xlink:href="#e" fill="#000" filter="url(#f)"/><use height="100%" width="100%" xlink:href="#e" fill="#fff"/></g><path d="M646.838 119.28l-.062.01.016-.035-11.62-4.902-2.96.43c-3.12-13.982-11.41-23.751-21.432-23.751-1.178 0-2.324.178-3.452.439C603.705 87.99 599.18 86 593.918 86c-15.26 0-22.668 20.327-22.773 38.409l-13.917 2.193L556 219.734l18.795 8.03 75.933-11.767zm-24.217-2.985l-5.77.906c-.218-5.833-1.27-11.126-3.04-15.639 3.63 1.96 7.05 7.292 8.81 14.733zm-15.383 2.428l-9.031 1.424c1-7.015 3.43-12.593 6.357-15.935 1.69 3.89 2.62 8.892 2.674 14.51zm-19.225 9.015l-16.233 2.324-10.241-1.81 26.583-4.103c-.05.992-.12 1.97-.12 2.991-.004.198.011.395.011.598zm-7.138-4.86c.608-14.574 6.104-27.193 13.04-27.193 1.594 0 3.066.384 4.406 1.086-5.353 5.456-9.086 14.394-10.052 24.944l-7.394 1.162zm13.24 18.995a5.748 5.748 0 0 1-5.745-5.752 5.748 5.748 0 0 1 5.746-5.75 5.748 5.748 0 0 1 5.745 5.75 5.75 5.75 0 0 1-5.745 5.752zm3.584-15.53a48.7 48.7 0 0 1 .197-3.731l25.238-3.961c.228 1.27.407 2.304.53 3.674l-25.965 4.019zm33.311 9.78a5.752 5.752 0 0 1-5.75-5.75 5.75 5.75 0 0 1 5.75-5.746 5.744 5.744 0 0 1 5.743 5.747 5.746 5.746 0 0 1-5.743 5.75zm2.234-15.173c-.144-1.393-.489-2.63-.723-3.961l2.41-.491 7.409 3.164z" fill="#1e642e" fill-rule="nonzero"/><g transform="translate(696 399)"><use height="100%" width="100%" xlink:href="#g" fill="#000" filter="url(#h)"/><use height="100%" width="100%" xlink:href="#g" fill="#fff"/></g><path d="M862.785 488.906c13.352 3.093 18.46 10.889 24.863 21.619h-24.863v-21.62zm-78.03 22.52c2.615 0 4.513 1.26 4.513 4.204a4.508 4.508 0 0 1-4.5 4.505h-27.256A4.509 4.509 0 0 0 753 524.64a4.508 4.508 0 0 0 4.512 4.505h40.605a4.507 4.507 0 0 1 4.53 4.505 4.508 4.508 0 0 1-4.512 4.505h-40.623A4.508 4.508 0 0 0 753 542.66a4.508 4.508 0 0 0 4.512 4.505h9.926v13.515a4.508 4.508 0 0 0 4.511 4.505h9.07c1.616 7.952 8.653 13.815 16.948 13.815s15.331-5.863 16.948-13.815h45.81c1.617 7.952 8.654 13.815 16.949 13.815 8.295 0 15.331-5.863 16.948-13.815h7.866A4.508 4.508 0 0 0 907 560.68v-27.03c0-13.218-13.963-14.095-13.976-14.115h-34.75a4.508 4.508 0 0 1-4.512-4.505V488h-81.813a4.508 4.508 0 0 0-4.512 4.505v9.91h-5.414a4.508 4.508 0 0 0-4.511 4.506 4.508 4.508 0 0 0 4.511 4.505h22.733zm98.768 44.465a8.252 8.252 0 0 1 0 11.681c-5.196 5.188-14.12 1.497-14.12-5.841 0-7.337 8.924-11.028 14.12-5.84zm-79.707 0a8.252 8.252 0 0 1 0 11.681c-5.196 5.188-14.12 1.497-14.12-5.841 0-7.337 8.924-11.028 14.12-5.84z" fill="#1e642e" fill-rule="nonzero"/><g transform="translate(915 20)"><use height="100%" width="100%" xlink:href="#i" fill="#000" filter="url(#j)"/><use height="100%" width="100%" xlink:href="#i" fill="#fff"/></g><g fill="#1e642e"><path d="M1085.44 127.055c2.023 0 2.592-2.748.77-3.578l-71.174-31.722c-4.33-1.947-9.428 0-11.364 4.38l-24.921 56.172c-1.937 4.352 0 9.476 4.357 11.423l14.355 6.241c1.794.802 3.845-.515 3.845-2.49v-23.85c0-9.132 7.376-16.547 16.462-16.547h67.67z"/><path d="M1103.464 134.81h-86.326c-4.814 0-8.715 3.922-8.715 8.76v61.297c0 4.838 3.901 8.76 8.715 8.76h11.591a31.977 31.977 0 0 1-.427-5.239c0-2.004.2-3.95.541-5.869h-9.341v-29.345h81.626v29.317h-9.37c.342 1.918.541 3.865.541 5.869 0 1.775-.142 3.521-.427 5.239h11.592c4.813 0 8.715-3.922 8.715-8.76V143.57c0-4.838-3.902-8.76-8.715-8.76zm-2.336 20.298h-81.626v-9.19h81.626z" fill-rule="nonzero"/><path d="M1060.28 185.286c-12.36 0-22.386 10.077-22.386 22.503 0 12.425 10.026 22.503 22.386 22.503 12.361 0 22.387-10.078 22.387-22.503 0-12.426-10.026-22.503-22.387-22.503zm6.437 31.378c-.968 1.202-2.25 2.004-3.73 2.405-.656.172-.94.515-.912 1.202.028.659 0 1.317 0 2.004 0 .602-.314.917-.883.917-.712.028-1.424.028-2.136 0-.627 0-.912-.373-.912-.974v-1.46c0-1.06-.057-1.116-1.082-1.288-1.31-.2-2.592-.516-3.788-1.088-.94-.458-1.054-.687-.769-1.69.2-.744.399-1.488.627-2.204.256-.859.484-.945 1.281-.544a12.17 12.17 0 0 0 4.216 1.26c.94.114 1.88.029 2.762-.372 1.652-.716 1.908-2.634.513-3.78a5.77 5.77 0 0 0-1.567-.916c-1.452-.63-2.962-1.116-4.3-1.946-2.222-1.317-3.617-3.15-3.446-5.87.17-3.063 1.908-4.952 4.699-5.983 1.14-.43 1.168-.401 1.168-1.603v-1.232c.028-.916.17-1.059 1.082-1.087h.826c1.937 0 1.937 0 1.937 1.946 0 1.375 0 1.375 1.367 1.575 1.025.172 2.022.458 2.99.888.541.229.74.6.57 1.173-.228.83-.456 1.69-.74 2.491-.257.773-.513.888-1.254.544-1.51-.744-3.076-1.03-4.728-.945-.427.029-.854.086-1.253.258-1.424.63-1.68 2.233-.456 3.207.627.486 1.31.858 2.051 1.173 1.282.516 2.535 1.031 3.76 1.718 3.759 2.09 4.813 6.929 2.107 10.221z" fill-rule="nonzero"/></g><g transform="rotate(45 59.675 56.968)"><use height="100%" width="100%" xlink:href="#k" fill="#000" filter="url(#l)"/><rect rx="24" stroke-linejoin="square" y="18.761" x="18.761" height="76" width="76" fill="#fff" stroke="#1e642e" stroke-width="3"/></g><path d="M61.234 71h-4.59V52.562q0-3.3.157-5.234-.45.469-1.114 1.035-.644.567-4.374 3.594l-2.305-2.91 8.398-6.602h3.828z" aria-label="1" font-weight="600" font-size="40" font-family="OpenSans-SemiBold,'Open Sans'" fill="#1e642e"/><g transform="rotate(45 -288.44 520.774)"><use height="100%" width="100%" xlink:href="#m" fill="#000" filter="url(#n)"/><rect rx="24" stroke-linejoin="square" y="18.761" x="18.761" height="76" width="76" fill="#fff" stroke="#1e642e" stroke-width="3"/></g><path d="M293.113 453h-19.355v-3.477l7.363-7.402q3.262-3.34 4.317-4.726 1.074-1.407 1.562-2.637t.488-2.637q0-1.933-1.172-3.047-1.152-1.113-3.203-1.113-1.64 0-3.183.605-1.524.606-3.535 2.188l-2.48-3.027q2.382-2.012 4.628-2.852 2.246-.84 4.785-.84 3.985 0 6.387 2.09 2.402 2.07 2.402 5.586 0 1.934-.703 3.672-.684 1.738-2.129 3.594-1.426 1.836-4.765 4.98l-4.961 4.805v.195h13.554z" aria-label="2" font-weight="600" font-size="40" font-family="OpenSans-SemiBold,'Open Sans'" fill="#1e642e"/><g transform="rotate(45 -61.94 1067.594)"><use height="100%" width="100%" xlink:href="#o" fill="#000" filter="url(#p)"/><rect rx="24" stroke-linejoin="square" y="18.761" x="18.761" height="76" width="76" fill="#fff" stroke="#1e642e" stroke-width="3"/></g><path d="M747.129 446.77h-3.848V453h-4.472v-6.23h-13.047v-3.536l13.047-18.867h4.472v18.594h3.848zm-8.32-3.81v-7.167q0-3.828.195-6.27h-.156q-.547 1.29-1.72 3.125l-7.089 10.313z" aria-label="4" font-weight="600" font-size="40" font-family="OpenSans-SemiBold,'Open Sans'" fill="#1e642e"/><g transform="rotate(45 283.675 597.752)"><use height="100%" width="100%" xlink:href="#q" fill="#000" filter="url(#r)"/><rect rx="24" stroke-linejoin="square" y="18.761" x="18.761" height="76" width="76" fill="#fff" stroke="#1e642e" stroke-width="3"/></g><path d="M514.04 49.008q0 2.715-1.583 4.531-1.582 1.797-4.453 2.422v.156q3.437.43 5.156 2.149 1.719 1.699 1.719 4.53 0 4.122-2.91 6.368-2.91 2.227-8.281 2.227-4.747 0-8.008-1.543v-4.082q1.816.898 3.847 1.386 2.032.489 3.907.489 3.32 0 4.96-1.23 1.641-1.231 1.641-3.81 0-2.285-1.816-3.359-1.817-1.074-5.703-1.074h-2.48v-3.73h2.519q6.836 0 6.836-4.727 0-1.836-1.192-2.832-1.191-.996-3.515-.996-1.621 0-3.125.469-1.504.449-3.555 1.777l-2.246-3.203q3.926-2.89 9.12-2.89 4.317 0 6.74 1.855 2.421 1.855 2.421 5.117z" aria-label="3" font-weight="600" font-size="40" font-family="OpenSans-SemiBold,'Open Sans'" fill="#1e642e"/><g transform="rotate(45 506.675 1136.122)"><use height="100%" width="100%" xlink:href="#s" fill="#000" filter="url(#t)"/><rect rx="24" stroke-linejoin="square" y="18.761" x="18.761" height="76" width="76" fill="#fff" stroke="#1e642e" stroke-width="3"/></g><path d="M951.445 53.168q4.317 0 6.836 2.285 2.52 2.285 2.52 6.23 0 4.57-2.871 7.149-2.852 2.559-8.125 2.559-4.785 0-7.52-1.543v-4.16q1.582.898 3.633 1.386 2.05.489 3.809.489 3.105 0 4.726-1.387t1.621-4.063q0-5.117-6.523-5.117-.918 0-2.266.195-1.347.176-2.363.41l-2.05-1.21 1.093-13.946h14.844v4.082h-10.801l-.645 7.07q.684-.117 1.66-.273.997-.156 2.422-.156z" aria-label="5" font-weight="600" font-size="40" font-family="OpenSans-SemiBold,'Open Sans'" fill="#1e642e"/></g></svg>