<svg width="34" height="34" viewBox="0 0 34 34" fill="none" xmlns="http://www.w3.org/2000/svg">
<g clip-path="url(#clip0)">
<path d="M16.9 2.4C19.8 4.4 23.2 5.6 26.7 6C27.5 6.1 28.2 6.2 29 6.2V19.3C28.9 20.8 28.4 22.2 27.5 23.4C26 25.5 24.1 27.3 21.9 28.8C20.3 29.9 18.7 30.9 16.9 31.8C13.7 30.1 10.7 28 8.2 25.4C7 24.2 6 22.8 5.4 21.2C5.1 20.6 5 19.9 5 19.1V6.1C5.3 6.1 5.6 6.1 5.9 6C9.8 5.8 13.6 4.5 16.9 2.4ZM17 0C16.9 0 16.8 0 16.8 0.1C13.6 2.4 9.8 3.8 5.8 4.1C4.8 4.2 4 4.2 3 4.3V19.2C3 20.2 3.2 21.1 3.5 22.1C4.2 24 5.3 25.6 6.7 27C9.6 29.9 12.9 32.2 16.5 34.1H17C17 34.1 17 34.1 17.1 34.1C17.2 34.1 17.4 34.1 17.5 34C19.4 33 21.3 31.9 23.1 30.6C25.4 29 27.5 27 29.1 24.8C30.3 23.3 31 21.4 31 19.5V4.5C29.6 4.4 28.3 4.3 27 4.1C23.5 3.7 20.1 2.4 17.3 0.3C17.2 0.1 17.1 0 17 0Z" fill="#272727"/>
<path d="M17 7.4C19.1 8.7 21.4 9.5 23.9 9.8C24.3 9.8 24.6 9.9 25 9.9V18.6C24.9 19.6 24.6 20.4 24 21.2C22.9 22.6 21.6 23.9 20.1 24.9C19.1 25.6 18 26.3 17 26.8C14.8 25.7 12.9 24.2 11.1 22.5C10.3 21.8 9.7 20.9 9.3 19.9C9.1 19.4 9 19 9 18.5V9.9H9.1C11.9 9.7 14.6 8.8 17 7.4ZM17 5C16.9 5 16.9 5 16.9 5.1C14.6 6.7 11.8 7.7 9 7.9C8.3 7.9 7.7 8 7 8V18.5C7 19.2 7.1 19.8 7.3 20.5C7.9 21.8 8.6 23 9.7 24C11.8 26 14.1 27.7 16.7 29C16.8 29 16.9 29 17 29C17.1 29 17.2 29 17.2 28.9C18.6 28.2 19.9 27.4 21.2 26.5C22.9 25.4 24.3 24 25.5 22.4C26.3 21.3 26.8 20 26.9 18.6V8C25.9 7.9 25 7.8 24 7.7C21.5 7.4 19.1 6.5 17.1 5C17.2 5 17.1 5 17 5Z" fill="#666B6F"/>
<path opacity="0.1" d="M17 7.39999C19.1 8.69999 21.4 9.49999 23.9 9.79999C24.3 9.79999 24.6 9.89999 25 9.89999V18.6C24.9 19.6 24.6 20.4 24 21.2C22.9 22.6 21.6 23.9 20.1 24.9C19.1 25.6 18 26.3 17 26.8C14.8 25.7 12.9 24.2 11.1 22.5C10.3 21.8 9.7 20.9 9.3 19.9C9.1 19.4 9 19 9 18.5V9.89999H9.1C11.9 9.69999 14.6 8.79999 17 7.39999Z" fill="#666B6F"/>
</g>
<defs>
<clipPath id="clip0">
<rect width="34" height="34" fill="white"/>
</clipPath>
</defs>
</svg>
