<svg width="34" height="34" viewBox="0 0 34 34" fill="none" xmlns="http://www.w3.org/2000/svg">
<path d="M26.7002 25H29.0002V20.5C29.0002 22.4 28.1002 24 26.7002 25Z" fill="#666B6F"/>
<path d="M31 2H3C1.9 2 1 2.9 1 4V27C1 28.1 1.9 29 3 29H19V33L23.5 30.5L28 33V29H31C32.1 29 33 28.1 33 27V4C33 2.9 32.1 2 31 2ZM26 29.6L24.5 28.8L23.5 28.3L22.5 28.8L21 29.6V25.4C21.8 25.8 22.6 26 23.5 26C24.4 26 25.2 25.8 26 25.4V29.6ZM23.5 24C21.6 24 20 22.4 20 20.5C20 18.6 21.6 17 23.5 17C25.4 17 27 18.6 27 20.5C27 22.4 25.4 24 23.5 24ZM31 27H28V23.7C28.6 22.8 29 21.7 29 20.5C29 17.5 26.5 15 23.5 15C20.5 15 18 17.5 18 20.5C18 21.7 18.4 22.8 19 23.7V27H3V4H31V27Z" fill="#272727"/>
<path d="M5 6V25H19V23.6C18.9 23.4 18.7 23.2 18.6 23H7V8H27V16.3C28.2 17.3 29 18.8 29 20.5V6H5Z" fill="#666B6F"/>
<path opacity="0.1" d="M18 20.5C18 21.4 18.2 22.3 18.6 23H7V8H27V16.3C26 15.5 24.8 15 23.5 15C20.5 15 18 17.5 18 20.5Z" fill="#666B6F"/>
</svg>
