<svg width="100" height="100" viewBox="0 0 100 100" fill="none" xmlns="http://www.w3.org/2000/svg">
<path opacity="0.1" d="M28.1 39.7L28.4 40.4L35.8 33H26V38C26.9 38.2 27.7 38.8 28.1 39.7Z" fill="#666B6F"/>
<path opacity="0.1" d="M55.1 33L38.4 49.7C38.8 50.2 39 50.8 39 51.5C39 52.6 38.3 53.7 37.3 54.2L36.5 54.5C35.9 54.8 35.4 55 34.8 55.3C34 55.7 33.1 56.1 32.3 56.5C31.5 56.9 30.8 57.5 30.5 58.3C30 59.3 29.6 60.3 29.1 61.3L28.5 62.6C28.4 62.8 28.3 62.9 28.2 63.2L28.1 63.3C27.7 64.2 26.9 64.8 26 65V68H30.9L60 38.9V33H55.1Z" fill="#666B6F"/>
<path opacity="0.1" d="M56.5 66.7L57.9 67.4C58.3 67.6 58.6 67.8 58.8 68.1H60V65.1V58.2L53.1 65.1C54.2 65.6 55.3 66.1 56.5 66.7Z" fill="#666B6F"/>
<path d="M71.6 20C65.6 19.7 60.6 24.2 60.1 30H23V39.4C23.5 38.5 24.5 38 25.5 38C25.5 38 25.5 38 25.6 38C25.8 38 25.9 38 26.1 38V33H36L28.6 40.4L28.7 40.7C29.1 41.6 29.5 42.4 29.9 43.3L40.2 33H50.9L35.8 48.1C36.2 48.3 36.5 48.4 36.9 48.6L37.3 48.8C37.7 49 38.1 49.3 38.4 49.7L55.1 33H60V38.9L30.9 68H26V64.9C25.8 64.9 25.7 65 25.5 65C24.5 65 23.6 64.5 23 63.6V71H34.8C34.7 70.6 34.6 70.3 34.6 69.9C34.6 69.2 34.9 68.5 35.3 68H35.1L60 43.1V53.9L51.2 62.7C51.1 63.4 52.6 64.8 53 65H53.1L60 58.1V65V68C60 68 60.1 70.5 60 71C60 71.1 60 71 60 71H61.8C63.8 74.1 67.3 76.1 71.3 76C77.3 75.8 82 70.7 82 64.6V31.3C82 25.4 77.5 20.3 71.6 20ZM71 73C66.6 73 63 69.4 63 65C63 60.6 66.6 57 71 57C75.4 57 79 60.6 79 65C79 69.4 75.4 73 71 73ZM79 57.5C77 55.4 74.2 54 71 54C67.8 54 65 55.3 63 57.5V31C63 26.6 66.6 23 71 23C75.4 23 79 26.6 79 31V57.5Z" fill="#272727"/>
<path d="M47.1 67.1C47.8 68.3 48.8 69.3 49.9 70C48.7 70.7 47.8 71.7 47 72.9C46.9 72.7 46.7 72.4 46.6 72.2C46.5 72.1 46.5 72 46.4 71.9C45.8 71.1 45 70.5 44.2 69.9C45.4 69.3 46.4 68.3 47.1 67.1ZM47.1 60.4C47 60.6 46.9 60.8 46.8 60.9C46.1 62.4 45.4 63.9 44.6 65.5C44.2 66.4 43.5 67.1 42.7 67.5C41.5 68.1 40.4 68.6 39.2 69.2C38.6 69.5 38.1 69.7 37.4 70C37.6 70.1 37.7 70.2 37.9 70.2C38.9 70.7 40 71.1 41 71.6C42.2 72 43.3 72.8 44.2 73.8C44.7 74.5 45.1 75.2 45.4 76C46 77.2 46.5 78.4 47.1 79.6C47.2 79.3 47.3 79.1 47.4 78.9C48 77.6 48.6 76.3 49.2 75C49.8 73.7 50.8 72.7 52.1 72.1C52.9 71.7 53.6 71.4 54.4 71C55.1 70.7 55.9 70.3 56.7 70C55 69.2 53.4 68.4 51.8 67.7C50.8 67.2 50 66.5 49.5 65.5C49.2 64.9 48.9 64.3 48.6 63.7C48.1 62.6 47.6 61.5 47.1 60.4Z" fill="#666B6F"/>
<path d="M25.5 47.7C26.3 49.4 27.6 50.7 29.2 51.5C27.6 52.4 26.3 53.7 25.5 55.3C25.3 54.9 25 54.5 24.8 54.1C24.7 54 24.7 53.9 24.6 53.8C23.8 52.9 22.9 52.1 21.8 51.4C21.9 51.4 21.9 51.3 22 51.3C23.5 50.6 24.7 49.3 25.5 47.7C25.4 47.7 25.5 47.7 25.5 47.7ZM25.5 40.9C25.4 41.1 25.3 41.3 25.2 41.4C24.4 43.1 23.6 44.8 22.8 46.4C22.4 47.4 21.6 48.1 20.7 48.6C19.4 49.2 18.2 49.8 16.9 50.5C16.3 50.8 15.7 51.1 15 51.4C15.2 51.5 15.4 51.6 15.5 51.7C16.6 52.2 17.8 52.7 18.9 53.2C20.3 53.7 21.5 54.5 22.4 55.6C22.9 56.4 23.4 57.2 23.8 58C24.4 59.3 25 60.6 25.6 62C25.7 61.7 25.8 61.5 25.9 61.3C26.6 59.9 27.2 58.4 27.9 57C28.6 55.6 29.7 54.4 31.1 53.8C31.9 53.4 32.8 53 33.6 52.6C34.4 52.2 35.2 51.9 36.1 51.5C34.2 50.6 32.4 49.8 30.6 49C29.5 48.5 28.6 47.6 28.1 46.5C27.8 45.8 27.4 45.2 27.1 44.5C26.6 43.3 26 42.2 25.5 40.9Z" fill="#666B6F"/>
</svg>
