<?xml version="1.0" encoding="utf-8"?>
<!-- Generator: Adobe Illustrator 21.1.0, SVG Export Plug-In . SVG Version: 6.00 Build 0)  -->
<svg version="1.1" id="Layer_1" xmlns="http://www.w3.org/2000/svg" xmlns:xlink="http://www.w3.org/1999/xlink" x="0px" y="0px"
	 width="100px" height="100px" viewBox="0 0 100 100" style="enable-background:new 0 0 100 100;" xml:space="preserve">
<style type="text/css">
	.st0{opacity:0.1;fill:#666B6F;enable-background:new    ;}
	.st1{fill:#272727;}
	.st2{fill:#666B6F;}
</style>
<path class="st0" d="M58.4,49.5c0,10,8.6,17.6,11.8,20.1c-6.2-12.4-6.2-26.9,0-39.3h-0.1C67,32.6,58.4,39.5,58.4,49.5z"/>
<path class="st0" d="M41.6,49.5c0,10-8.6,17.6-11.8,20.1c6.2-12.4,6.2-26.9,0-39.3h0.1C33,32.6,41.6,39.5,41.6,49.5z"/>
<path class="st1" d="M73.4,68.9c-6.2-11.9-6.2-26,0-37.9l0.5-0.9c0.4-0.6,0.1-1.4-0.5-1.8L72.5,28c-7.5-3.4-15-5-22.5-5
	s-15.1,1.7-22.5,5l-0.8,0.4c-0.6,0.4-0.9,1.2-0.5,1.8l0.5,0.9c6.2,11.9,6.2,26,0,37.9l-0.5,0.9c-0.4,0.6-0.1,1.4,0.5,1.8l0.8,0.4
	c7.1,3.3,14.8,5,22.5,5s15.4-1.7,22.5-5l0.8-0.4c0.6-0.4,0.9-1.2,0.5-1.8L73.4,68.9z M68.1,69.8c0.2,0.2,0.4,0.4,0.6,0.5
	C62.8,72.7,56.4,74,50,74s-12.8-1.3-18.8-3.7c0.2-0.2,0.4-0.3,0.6-0.5c0.6-0.5,0.7-1.5,0.2-2.1c-0.3-0.4-0.8-0.6-1.3-0.5
	c4.6-10.9,4.6-23.2,0.1-34.1c0.3,0.3,0.7,0.5,1,0.8c0.3,0.3,0.6,0.4,1,0.4c0.4,0,0.8-0.2,1.1-0.5c0.6-0.6,0.5-1.6-0.1-2.1
	c-0.8-0.7-1.6-1.4-2.4-2C37.6,27.2,43.8,26,50,26s12.4,1.2,18.6,3.7c0,0,0,0-0.1,0c-0.8,0.6-1.7,1.3-2.4,2c-0.6,0.6-0.7,1.5-0.1,2.1
	c0.3,0.3,0.7,0.5,1.1,0.5s0.7-0.1,1-0.4c0.3-0.3,0.7-0.6,1-0.9c-4.5,10.9-4.5,23.2,0.1,34.1c-0.5,0-1,0.1-1.3,0.5
	C67.4,68.3,67.5,69.3,68.1,69.8z"/>
<path class="st1" d="M58.5,49.6c0.8,0,1.4-0.6,1.5-1.4c0.1-0.9,0.2-1.8,0.5-2.7c0.2-0.8-0.3-1.6-1.1-1.8c-0.8-0.2-1.6,0.3-1.8,1.1
	c-0.3,1.1-0.4,2.1-0.5,3.2C57,48.8,57.7,49.5,58.5,49.6C58.5,49.6,58.4,49.6,58.5,49.6z"/>
<path class="st1" d="M60.6,40.9c0.2,0.1,0.5,0.2,0.8,0.2c0.5,0,1-0.3,1.3-0.7c0.5-0.8,1-1.6,1.6-2.3c0.5-0.7,0.4-1.6-0.3-2.1
	c-0.7-0.5-1.6-0.4-2.1,0.3c-0.7,0.9-1.3,1.7-1.8,2.6C59.6,39.6,59.8,40.5,60.6,40.9z"/>
<path class="st1" d="M64.2,61.2c-0.5-0.7-1.4-0.8-2.1-0.3c-0.7,0.5-0.8,1.4-0.3,2.1c0.6,0.8,1.3,1.7,2,2.5c0.3,0.3,0.7,0.5,1.1,0.5
	c0.3,0,0.7-0.1,1-0.4c0.6-0.5,0.7-1.5,0.2-2.1C65.3,62.7,64.7,62,64.2,61.2z"/>
<path class="st1" d="M61.4,56.3c-0.4-0.9-0.7-1.8-0.9-2.6s-1-1.3-1.8-1.1c-0.8,0.2-1.3,1-1.1,1.8c0.3,1,0.6,2,1,3
	c0.2,0.6,0.8,0.9,1.4,0.9c0.2,0,0.4,0,0.6-0.1C61.3,57.9,61.7,57.1,61.4,56.3z"/>
<path class="st2" d="M92.5,49H77.1l3.4-3.4c0.6-0.6,0.6-1.5,0-2.1s-1.5-0.6-2.1,0l-6,6c-0.6,0.6-0.6,1.5,0,2.1
	c0.1,0.1,0.2,0.2,0.3,0.2c0.6,0.5,3.3,3.3,5.7,5.8c0.3,0.3,0.7,0.5,1.1,0.5s0.8-0.1,1-0.4c0.6-0.6,0.6-1.5,0-2.1
	c-1.4-1.5-2.5-2.6-3.4-3.5h15.3c0.8,0,1.5-0.7,1.5-1.5C93.9,49.8,93.3,49,92.5,49z M73.5,52c0.3,0,0.7-0.1,1-0.4
	C74.2,51.9,73.8,52,73.5,52z"/>
<path class="st2" d="M27.6,51.6c0.6-0.6,0.6-1.5,0-2.1l-6-6c-0.6-0.6-1.5-0.6-2.1,0s-0.6,1.5,0,2.1l3.4,3.4H7.5
	C6.7,49,6,49.7,6,50.5S6.7,52,7.5,52h15.3c-0.9,0.9-1.9,2-3.4,3.5c-0.6,0.6-0.6,1.5,0,2.1c0.3,0.3,0.7,0.4,1,0.4
	c0.4,0,0.8-0.2,1.1-0.5c2.4-2.5,5.1-5.2,5.7-5.8C27.4,51.7,27.5,51.6,27.6,51.6z M25.5,51.6c0.3,0.3,0.7,0.4,1,0.4
	C26.2,52,25.8,51.9,25.5,51.6z"/>
<path class="st1" d="M37.4,40.4c0.3,0.5,0.8,0.7,1.3,0.7c0.3,0,0.5-0.1,0.8-0.2c0.7-0.4,0.9-1.3,0.5-2.1c-0.5-0.9-1.1-1.8-1.8-2.6
	c-0.5-0.7-1.5-0.8-2.1-0.3c-0.7,0.5-0.8,1.4-0.3,2.1C36.4,38.8,36.9,39.6,37.4,40.4z"/>
<path class="st1" d="M37.9,60.9c-0.7-0.5-1.6-0.3-2.1,0.3c-0.5,0.8-1.1,1.5-1.8,2.2c-0.5,0.6-0.5,1.6,0.2,2.1c0.3,0.2,0.6,0.4,1,0.4
	c0.4,0,0.8-0.2,1.1-0.5c0.7-0.8,1.4-1.6,2-2.5C38.8,62.3,38.6,61.4,37.9,60.9z"/>
<path class="st1" d="M40.6,43.7c-0.8,0.2-1.3,1-1.1,1.8c0.2,0.9,0.4,1.8,0.5,2.7c0.1,0.8,0.7,1.4,1.5,1.4h0.1
	c0.8-0.1,1.4-0.8,1.4-1.6c-0.1-1.1-0.3-2.1-0.5-3.2C42.3,44,41.4,43.5,40.6,43.7z"/>
<path class="st1" d="M41.3,52.6c-0.8-0.2-1.6,0.3-1.8,1.1c-0.2,0.9-0.5,1.8-0.9,2.6c-0.3,0.8,0,1.6,0.8,2c0.2,0.1,0.4,0.1,0.6,0.1
	c0.6,0,1.2-0.3,1.4-0.9c0.4-1,0.8-2,1-3C42.6,53.6,42.1,52.8,41.3,52.6z"/>
</svg>
