<svg width="100" height="100" viewBox="0 0 100 100" fill="none" xmlns="http://www.w3.org/2000/svg">
<path fill-rule="evenodd" clip-rule="evenodd" d="M50.5 56C51.8529 56.0273 53.1979 55.7876 54.4581 55.2946C55.7182 54.8016 56.8688 54.0651 57.8441 53.127C58.8193 52.1889 59.6 51.0678 60.1415 49.8277C60.6831 48.5876 60.9748 47.253 61 45.9C61 40.918 52.709 21.945 51.811 19.83C51.7051 19.5878 51.5312 19.3814 51.3104 19.236C51.0896 19.0906 50.8314 19.0125 50.567 19.011C50.2862 19.0196 50.0121 19.0992 49.7704 19.2424C49.5288 19.3857 49.3274 19.5878 49.185 19.83C48.218 21.945 39.996 40.918 39.996 45.9C40.0212 47.2533 40.3131 48.5883 40.8549 49.8286C41.3966 51.069 42.1777 52.1903 43.1534 53.1284C44.129 54.0665 45.2801 54.8031 46.5407 55.2958C47.8013 55.7886 49.1468 56.0278 50.5 56ZM50.5 23.856C53.4 30.748 58.169 42.691 58.169 45.899C58.0706 47.885 57.2123 49.7572 55.7719 51.1281C54.3314 52.4989 52.419 53.2634 50.4305 53.2634C48.442 53.2634 46.5296 52.4989 45.0892 51.1281C43.6487 49.7572 42.7905 47.885 42.692 45.899C42.762 42.691 47.529 30.748 50.5 23.856Z" fill="#666B6F"/>
<path fill-rule="evenodd" clip-rule="evenodd" d="M81.6 47.3001L50.036 72.7081L31.977 61.4641L34.694 57.157L21.555 56.7191L27.721 68.3271L30.437 64.0201L45.044 73.0731H18.468C18.2763 73.0731 18.0864 73.1108 17.9093 73.1842C17.7322 73.2576 17.5712 73.3651 17.4356 73.5007C17.3 73.6362 17.1925 73.7972 17.1191 73.9744C17.0458 74.1515 17.008 74.3414 17.008 74.5331C17.008 74.7248 17.0458 74.9147 17.1191 75.0918C17.1925 75.2689 17.3 75.4299 17.4356 75.5654C17.5712 75.701 17.7322 75.8085 17.9093 75.8819C18.0864 75.9553 18.2763 75.993 18.468 75.993H79.394C79.5857 75.993 79.7756 75.9553 79.9527 75.8819C80.1298 75.8085 80.2908 75.701 80.4264 75.5654C80.562 75.4299 80.6695 75.2689 80.7429 75.0918C80.8162 74.9147 80.854 74.7248 80.854 74.5331C80.854 74.3414 80.8162 74.1515 80.7429 73.9744C80.6695 73.7972 80.562 73.6362 80.4264 73.5007C80.2908 73.3651 80.1298 73.2576 79.9527 73.1842C79.7756 73.1108 79.5857 73.0731 79.394 73.0731H54.294L83.435 49.6371C83.5876 49.5201 83.7149 49.3733 83.8092 49.2057C83.9035 49.0381 83.9627 48.8531 83.9834 48.6619C84.0041 48.4707 83.9857 48.2773 83.9294 48.0934C83.8731 47.9095 83.7801 47.7389 83.656 47.592C83.5417 47.436 83.3972 47.3043 83.2313 47.2049C83.0653 47.1054 82.8811 47.0402 82.6895 47.0129C82.4979 46.9857 82.3028 46.9971 82.1157 47.0465C81.9286 47.0958 81.7533 47.182 81.6 47.3001Z" fill="#272727"/>
</svg>
