<?xml version="1.0" encoding="utf-8"?>
<!-- Generator: Adobe Illustrator 21.1.0, SVG Export Plug-In . SVG Version: 6.00 Build 0)  -->
<svg version="1.1" id="Layer_1" xmlns="http://www.w3.org/2000/svg" xmlns:xlink="http://www.w3.org/1999/xlink" x="0px" y="0px"
	 width="100px" height="100px" viewBox="0 0 100 100" style="enable-background:new 0 0 100 100;" xml:space="preserve">
<style type="text/css">
	.st0{fill:#272727;}
	.st1{fill:#666B6F;}
</style>
<path class="st0" d="M51,24c2.8,0,5,2.2,5,5v24.8v1.5l1.2,0.9C59.6,58,61,60.9,61,64c0,5.5-4.5,10-10,10s-10-4.5-10-10
	c0-3.1,1.4-6,3.8-7.9l1.2-0.9v-1.5V29C46,26.2,48.2,24,51,24z M51,21c-4.4,0-8,3.6-8,8v24.8c-3,2.4-5,6.1-5,10.2c0,7.2,5.8,13,13,13
	s13-5.8,13-13c0-4.2-2-7.9-5-10.2V29C59,24.6,55.4,21,51,21z"/>
<path class="st1" d="M53,58.3V41c0-1.1-0.9-2-2-2s-2,0.9-2,2v17.3c-2.3,0.8-4,3-4,5.7c0,3.3,2.7,6,6,6s6-2.7,6-6
	C57,61.4,55.3,59.2,53,58.3z"/>
<path class="st0" d="M32.5,39h6c0.8,0,1.5,0.7,1.5,1.5S39.3,42,38.5,42h-6c-0.8,0-1.5-0.7-1.5-1.5S31.7,39,32.5,39z"/>
<path class="st0" d="M32.5,45h6c0.8,0,1.5,0.7,1.5,1.5S39.3,48,38.5,48h-6c-0.8,0-1.5-0.7-1.5-1.5S31.7,45,32.5,45z"/>
<path class="st0" d="M63.5,39h6c0.8,0,1.5,0.7,1.5,1.5S70.3,42,69.5,42h-6c-0.8,0-1.5-0.7-1.5-1.5S62.7,39,63.5,39z"/>
<path class="st0" d="M63.5,45h6c0.8,0,1.5,0.7,1.5,1.5S70.3,48,69.5,48h-6c-0.8,0-1.5-0.7-1.5-1.5S62.7,45,63.5,45z"/>
</svg>
