<?xml version="1.0" encoding="utf-8"?>
<!-- Generator: Adobe Illustrator 21.1.0, SVG Export Plug-In . SVG Version: 6.00 Build 0)  -->
<svg version="1.1" id="Layer_1" xmlns="http://www.w3.org/2000/svg" xmlns:xlink="http://www.w3.org/1999/xlink" x="0px" y="0px"
	 width="100px" height="100px" viewBox="0 0 100 100" style="enable-background:new 0 0 100 100;" xml:space="preserve">
<style type="text/css">
	.st0{fill:#272727;}
	.st1{fill:#666B6F;}
	.st2{opacity:0.1;fill:#666B6F;enable-background:new    ;}
</style>
<path class="st0" d="M77,39.6l-0.1-0.2c-0.5-1.2-1.6-1.9-2.9-1.9c-1.2,0-2.3,0.7-2.8,1.8c0,0.1-3.6,8.1-3.6,10.9
	c0,0.3,0,0.6,0.1,0.8c-0.2-0.4-0.4-0.9-0.6-1.4L67,49.4c-0.5-1.1-1.6-1.9-2.9-1.9c-1.2,0-2.3,0.7-2.8,1.8c0,0.1-3.6,8.1-3.6,10.9
	c0.1,3.5,3,6.3,6.5,6.3c0.1,0,0.1,0,0.2,0c3.5-0.1,6.3-2.9,6.3-6.4c0-0.5,0-1.7-1.8-6.4c1.2,1.7,3.1,2.8,5.3,2.8c0.1,0,0.1,0,0.2,0
	c3.5-0.1,6.3-2.9,6.3-6.4C80.5,49.4,80.5,47.9,77,39.6z M64.1,63.5c-2,0.1-3.5-1.5-3.6-3.4c0-1.5,2.4-7.4,3.3-9.5
	c0-0.1,0.1-0.1,0.2-0.2c0.1,0,0.1,0,0.1,0.1l0.2,0.4c2.8,6.5,3.2,8.5,3.2,9.1C67.5,62,66,63.5,64.1,63.5z M74.1,53.5
	c-1.9,0-3.5-1.5-3.6-3.4c0-1.5,2.4-7.4,3.3-9.5c0-0.1,0.1-0.1,0.2-0.1s0.1,0,0.1,0.1l0.2,0.4c2.8,6.6,3.2,8.6,3.2,9.2
	C77.5,52,76,53.5,74.1,53.5z"/>
<path class="st0" d="M85,55.6l-0.1-0.2c-0.5-1.1-1.6-1.9-2.9-1.9c-1.2,0-2.3,0.7-2.8,1.8c0,0.1-3.6,8.1-3.6,10.9
	c0.1,3.5,3,6.3,6.5,6.3c0.1,0,0.1,0,0.2,0c3.5-0.1,6.3-2.9,6.3-6.4C88.5,65.4,88.5,63.9,85,55.6z M82.1,69.5c-2,0.1-3.5-1.5-3.6-3.4
	c0-1.5,2.4-7.4,3.3-9.5c0-0.1,0.1-0.1,0.2-0.2c0.1,0,0.1,0,0.1,0.1l0.1,0.2c2.8,6.6,3.3,8.7,3.3,9.3C85.5,68,84,69.5,82.1,69.5z"/>
<path class="st1" d="M38.3,53H6.7c-0.8,0.1-1.6-0.5-1.7-1.3s0.5-1.6,1.3-1.7c0.1,0,0.3,0,0.4,0h31.5c0.8-0.1,1.6,0.5,1.7,1.3
	c0,0.1,0,0.1,0,0.2C39.9,52.4,39.2,53.1,38.3,53z"/>
<path class="st1" d="M25,48H14.7c-1.1,0-1.7-0.4-1.7-1.3c0-0.9,0.7-1.6,1.6-1.7H25c1.6,0,2.9-1.2,2.9-2.8v-0.1
	c0-1.6-1.3-2.9-2.9-2.9c-0.9,0-1.8,0.5-2.3,1.3c-0.3,0.3-0.8,0.5-1.3,0.5c-0.4,0-0.7-0.1-1-0.3c-0.6-0.6-0.7-1.5-0.2-2.2
	c1-1.5,2.7-2.4,4.5-2.5h0.9c0.1,0,0.2,0,0.3,0.1H26c0.2,0,0.3,0,0.5,0.1l0.2,0.1c0.1,0,0.1,0,0.2,0.1c0.1,0,0.2,0,0.3,0.1
	c3.1,1.2,4.7,4.6,3.5,7.7C29.7,46.5,27.5,48,25,48z"/>
<path class="st1" d="M31.2,67c-1.8-0.1-3.6-1-4.6-2.5c-0.3-0.4-0.4-0.8-0.3-1.3c0-0.4,0.2-0.7,0.5-0.9c0.3-0.2,0.7-0.4,1-0.4
	c0.5,0,0.9,0.2,1.2,0.6c0.5,0.7,1.3,1.2,2.2,1.3c1.6,0,2.8-1.2,2.8-2.8v-0.1c0-1.6-1.2-2.9-2.8-2.9H12.6c-0.8,0.1-1.5-0.5-1.6-1.3
	c0-0.1,0-0.1,0-0.2c0-0.8,0.8-1.5,1.6-1.5h18.6c3.3,0.1,5.9,2.9,5.8,6.2C36.9,64.4,34.4,66.9,31.2,67z"/>
<path class="st2" d="M54.5,60.2c0-3.7,3.9-12.1,3.9-12.2c1.1-2.1,3.1-3.4,5.4-3.4c0.6,0,1.2,0.1,1.7,0.3c1.1-3.4,2.7-6.7,2.7-6.7
	c0.7-1.5,2-2.5,3.5-3.1c0-1.1,0-2.1,0-3.2c-0.2,0-0.4,0-0.6,0c-7.7,0-14.1-1.8-19.4-5.5v50.7c1.5-0.8,3-1.6,4.4-2.5
	c2.4-1.4,4.7-3.1,6.8-4.9C58.5,69,54.6,65,54.5,60.2z"/>
<path class="st0" d="M64.2,69.5H64c-0.3,0-0.5,0-0.8,0c-2.1,1.8-4.3,3.4-6.7,4.8c-1.5,0.9-3,1.7-4.5,2.5V26.1
	c5.3,3.7,11.6,5.5,19.4,5.5c0.2,0,0.4,0,0.6,0c0,1.1,0,2.2,0,3.2c0.6-0.2,1.3-0.4,1.9-0.4c0.3,0,0.6,0,1,0.1c0-1.7,0-3.3,0-5
	c0-0.4,0-0.7,0-1.1c-1.2,0.1-2.4,0.1-3.6,0.1c-7.8,0-14.9-1.8-20.9-7.6c-6,5.8-13.2,7.6-20.9,7.6c-1.2,0-2.4,0-3.6-0.1V29
	c0,1.3,0,2.6,0,3.9c0.1,0,0.2,0,0.3,0c0.4,0,0.9,0.1,1.3,0.3h0.1c0.2,0.1,0.4,0.1,0.6,0.2c0.3,0.1,0.5,0.2,0.7,0.3
	c0-0.8,0-1.6,0-2.3c0.2,0,0.4,0,0.6,0c7.8,0,14.2-1.8,19.4-5.5v50.8c-0.5-0.3-1-0.5-1.4-0.8c-4-2.2-7.7-4.8-11.1-7.9
	c-0.8,0.6-1.8,1.1-2.8,1.4c3.7,3.6,7.9,6.7,12.5,9.1c1.4,0.8,2.9,1.5,4.3,2.3h0.2c0.1-0.1,0.2-0.1,0.3-0.2c2.4-1.3,4.8-2.5,7.1-3.9
	c4-2.4,7.7-5.3,10.8-8.7C67.5,69,65.9,69.5,64.2,69.5z"/>
</svg>
