<?xml version="1.0" encoding="utf-8"?>
<!-- Generator: Adobe Illustrator 21.1.0, SVG Export Plug-In . SVG Version: 6.00 Build 0)  -->
<svg version="1.1" id="Layer_1" xmlns="http://www.w3.org/2000/svg" xmlns:xlink="http://www.w3.org/1999/xlink" x="0px" y="0px"
	 width="100px" height="100px" viewBox="0 0 100 100" style="enable-background:new 0 0 100 100;" xml:space="preserve">
<style type="text/css">
	.st0{fill:#272727;}
	.st1{opacity:0.1;fill:#666B6F;enable-background:new    ;}
	.st2{fill:#666B6F;}
	.st3{fill:#FFFDFD;}
</style>
<path class="st0" d="M82.7,48.6l-21.6-30c-0.3-0.4-0.7-0.6-1.2-0.6s-0.9,0.2-1.2,0.6l-6.3,7.9c-0.5,0.6-0.4,1.6,0.2,2.1
	c0.6,0.5,1.6,0.4,2.1-0.2l5.1-6.4L80,50L59.8,78l-5.1-6.4c-0.5-0.6-1.5-0.8-2.1-0.2c-0.6,0.5-0.8,1.5-0.2,2.1l6.3,7.9
	c0.3,0.4,0.7,0.6,1.2,0.6s0.9-0.2,1.2-0.6l21.6-30C83,51,83.1,50,83.1,50S83,49,82.7,48.6z"/>
<path class="st1" d="M59.8,22l-6.5,8.3c1.6,1.7,2.6,3.9,2.6,6.4c0.2,4.9-3.2,9.1-7.9,10.2c0,0.3,0,0.6,0,0.9v0.1c0,0.1,0,0.2,0,0.3
	h4.4c2.5,0,4.6,2,4.6,4.5c0,0.6-0.1,1.1-0.4,1.6c-0.5,1.2-1.5,2.2-2.8,2.6c1.5,1.8,2.2,4,2.2,6.4c0,2.5-1,4.9-2.7,6.7l6.5,8.2L80,50
	L59.8,22z"/>
<path class="st0" d="M90.5,48.6l-21.8-30c-0.5-0.7-1.4-0.8-2.1-0.3c-0.7,0.5-0.8,1.4-0.3,2.1L87.8,50L66.3,79.6
	c-0.5,0.7-0.3,1.6,0.3,2.1c0.3,0.2,0.6,0.3,0.9,0.3c0.5,0,0.9-0.2,1.2-0.6l21.8-30c0.3-0.4,0.5-0.8,0.5-1.3
	C91,49.5,90.8,49.1,90.5,48.6z"/>
<path class="st2" d="M54,52.5c0-0.9-0.8-1.5-1.6-1.5H4.6C3.8,50.9,3,51.5,3,52.3s0.5,1.6,1.3,1.6c0.1,0,0.2,0,0.3,0h47.7
	C53.1,54,53.8,53.4,54,52.5C54,52.6,54,52.6,54,52.5z"/>
<path class="st2" d="M43.7,46H19.2c-0.8,0.2-1.4,0.9-1.2,1.8c0.1,0.6,0.6,1.1,1.2,1.2h24.5c0.7,0,1.3-0.6,1.3-1.3c0-0.1,0-0.1,0-0.2
	C45.1,46.7,44.5,46.1,43.7,46z"/>
<path class="st2" d="M15.6,44h30.6c3.9-0.2,6.9-3.4,6.7-7.3c-0.1-3.6-3.1-6.6-6.7-6.7c-2.2,0.1-4.2,1.1-5.4,2.9
	c-0.6,0.7-0.5,1.7,0.2,2.2c0.3,0.2,0.7,0.4,1.1,0.4c0.5,0,0.9-0.2,1.2-0.6c0.7-1,1.8-1.6,3-1.7c2.1,0,3.8,1.7,3.8,3.7
	c0,0.1,0,0.1,0,0.2c0,2.1-1.7,3.9-3.8,3.9H15.6c-0.8-0.1-1.5,0.4-1.6,1.2c0,0.1,0,0.1,0,0.2C14.1,43.4,14.8,44,15.6,44z"/>
<path class="st2" d="M47.3,69.9h0.2c0.2,0,0.4-0.1,0.6-0.2c0.2-0.1,0.4-0.1,0.5-0.2c2.7-1.1,4.4-3.7,4.4-6.5c0.1-3.8-2.9-6.9-6.7-7
	h-0.1H15.6c-0.8,0-1.6,0.2-1.6,1.2c0,0.9,0.7,1.7,1.6,1.7h30.5c2.1,0,3.8,1.6,3.8,3.7c0,0.1,0,0.1,0,0.2c0.1,2.1-1.5,3.8-3.5,3.9
	c-1.3,0.1-2.6-0.6-3.3-1.7c-0.3-0.3-0.8-0.5-1.3-0.5c-0.4,0-0.7,0.1-1,0.3c-0.6,0.6-0.7,1.5-0.2,2.2c1.1,1.7,3,2.8,5,2.9h1.1
	C47,70,47.1,69.9,47.3,69.9z"/>
<path class="st3" d="M62,44c2.2,0,4-2.2,4-5s-1.8-5-4-5s-4,2.2-4,5S59.8,44,62,44z"/>
<path class="st3" d="M62,66c2.2,0,4-2.2,4-5s-1.8-5-4-5s-4,2.2-4,5S59.8,66,62,66z"/>
<path class="st3" d="M69,55c2.2,0,4-2.2,4-5s-1.8-5-4-5s-4,2.2-4,5S66.8,55,69,55z"/>
<path class="st0" d="M62,37c0.3,0,1,0.8,1,2s-0.7,2-1,2s-1-0.8-1-2S61.7,37,62,37z M62,34c-2.2,0-4,2.2-4,5s1.8,5,4,5
	c2.2,0,4-2.2,4-5S64.2,34,62,34z"/>
<path class="st0" d="M62,59c0.3,0,1,0.8,1,2s-0.7,2-1,2s-1-0.8-1-2S61.7,59,62,59z M62,56c-2.2,0-4,2.2-4,5s1.8,5,4,5
	c2.2,0,4-2.2,4-5S64.2,56,62,56z"/>
<path class="st0" d="M69,48c0.3,0,1,0.8,1,2s-0.7,2-1,2s-1-0.8-1-2S68.7,48,69,48z M69,45c-2.2,0-4,2.2-4,5s1.8,5,4,5s4-2.2,4-5
	S71.2,45,69,45z"/>
</svg>
