<svg width="301" height="778" xmlns="http://www.w3.org/2000/svg" xmlns:xlink="http://www.w3.org/1999/xlink"><defs><path id="a" d="M0 0h320v847H0z"/><linearGradient x1="150.161%" y1="97.802%" x2="26.359%" y2="-19.811%" id="e"><stop stop-color="#409D5A" offset="0%"/><stop stop-color="#1E642E" offset="100%"/></linearGradient><path d="M58.643 126.046c-2.892 3.578-6.999 6.104-11.563 7.112a21 21 0 0 1-4.525.496c-9.362-.001-17.836-6.313-19.987-15.588-1.208-5.21-.266-10.568 2.655-15.085 2.922-4.518 7.47-7.655 12.81-8.834a20.94 20.94 0 0 1 14.046 1.798h.001c5.324 2.73 9.139 7.575 10.466 13.292.336 1.456.508 2.941.51 4.417.006 4.463-1.563 8.865-4.413 12.392zm4.98-47.225a14.654 14.654 0 0 0 5.517 1.073c1.951 0 3.812-.383 5.515-1.072l14.743 25.338a10.187 10.187 0 0 0-3.071 6.661H66.243a23.558 23.558 0 0 0-10.845-17.863l8.226-14.137zm33.825 22.987c-1.411 0-2.757.279-3.986.783L78.535 76.722a14.905 14.905 0 0 0 5.77-11.79C84.305 56.687 77.624 50 69.383 50c-8.243 0-14.924 6.686-14.924 14.933 0 4.794 2.26 9.057 5.77 11.79l-8.471 14.68a24.245 24.245 0 0 0-14.852-1.342c-6.318 1.43-11.7 5.238-15.157 10.72a24.123 24.123 0 0 0-3.142 18.305C21.15 130.34 31.179 138 42.257 138c1.767 0 3.56-.195 5.354-.601a24.303 24.303 0 0 0 13.683-8.631 24.405 24.405 0 0 0 5.136-13h21.028c1.415 4.162 5.352 7.157 9.99 7.157 5.828 0 10.552-4.726 10.552-10.558s-4.724-10.559-10.552-10.559z" id="d"/><filter x="-13.9%" y="-9.7%" width="127.8%" height="128.4%" filterUnits="objectBoundingBox" id="c"><feOffset dy="4" in="SourceAlpha" result="shadowOffsetOuter1"/><feGaussianBlur stdDeviation="3.5" in="shadowOffsetOuter1" result="shadowBlurOuter1"/><feColorMatrix values="0 0 0 0 0.301011178 0 0 0 0 0.338911243 0 0 0 0 0.402078019 0 0 0 0.333106884 0" in="shadowBlurOuter1"/></filter><linearGradient x1="5.945%" y1="66.857%" x2="93.557%" y2="35.765%" id="f"><stop stop-color="#FFF" offset="0%"/><stop stop-color="#FF4233" offset="100%"/></linearGradient><linearGradient x1="5.945%" y1="66.788%" x2="93.557%" y2="35.823%" id="g"><stop stop-color="#FFF" offset="0%"/><stop stop-color="#FF4233" offset="100%"/></linearGradient><linearGradient x1="110.269%" y1="44.484%" x2="30.107%" y2="79.512%" id="h"><stop stop-color="#409D5A" offset="0%"/><stop stop-color="#1E642E" offset="100%"/></linearGradient><linearGradient x1="5.945%" y1="68.132%" x2="93.557%" y2="34.688%" id="i"><stop stop-color="#FFF" offset="0%"/><stop stop-color="#FF4233" offset="100%"/></linearGradient><linearGradient x1="20.935%" y1="121.215%" x2="120.935%" y2="-21.215%" id="j"><stop stop-color="#409D5A" offset="0%"/><stop stop-color="#1E642E" offset="100%"/></linearGradient></defs><g transform="translate(-11 -28)" fill="none" fill-rule="evenodd"><mask id="b" fill="#fff"><use xlink:href="#a"/></mask><g mask="url(#b)"><g transform="rotate(-37 100.33 131.415)"><use fill="#000" filter="url(#c)" xlink:href="#d"/><use fill="url(#e)" xlink:href="#d"/></g><g transform="translate(12.526 30)"><circle stroke="#1E642E" stroke-width="2.1" fill="#FFF" cx="33.25" cy="33.25" r="33.25"/><text font-family="Roboto-Medium, Roboto Medium" font-size="35" fill="#1E642E"><tspan x="23.304" y="46">1</tspan></text></g></g><path d="M269.266 182.505c-24.915 46.14-89.171 31.304-123.39 5.719 78.806 71.19 148.197 20.11 150.823-29.327l7.59 5.7-19.833-49.501-15.453 49.38 7.62-5.794c-.44 5.877-2.166 14.211-7.357 23.823" fill="url(#f)" mask="url(#b)" transform="scale(1 -1) rotate(-42 -215.768 0)"/><path d="M96.438 521.677c-20.354 37.615-72.847 25.52-100.802 4.661 64.38 58.04 121.068 16.395 123.213-23.908l6.201 4.647-16.203-40.357-12.624 40.258 6.226-4.723c-.36 4.79-1.77 11.585-6.011 19.422" fill="url(#g)" mask="url(#b)" transform="scale(-1 1) rotate(-62 0 611.28)"/><g mask="url(#b)"><path d="M77.594 94.882a12.33 12.33 0 0 0-4.903-1.012c-6.174 0-11.288 4.516-12.2 10.413H38.854L22.206 75.552l9.613-16.594a15.26 15.26 0 0 0 5.94 1.194c7.795 0 14.22-5.817 15.153-13.333h19.235l16.647 28.733-11.2 19.33zm15.151-19.864l-17.8-30.703a1.902 1.902 0 0 0-1.645-.945H52.904C51.968 35.835 45.52 30 37.7 30c-8.464 0-15.324 6.833-15.324 15.262 0 4.968 2.385 9.38 6.075 12.168L18.255 75.018a1.88 1.88 0 0 0 0 1.892l17.8 30.702a1.9 1.9 0 0 0 1.645.947h22.81C61.422 114.472 66.553 119 72.748 119c6.84 0 12.384-5.521 12.384-12.333a12.28 12.28 0 0 0-4.25-9.296L92.745 76.91c.34-.585.34-1.306 0-1.892z" fill="url(#h)" transform="translate(18 546)"/><g transform="translate(18 546)"><circle stroke="#1E642E" stroke-width="2.1" fill="#FFF" cx="33.25" cy="33.25" r="33.25"/><text font-family="Roboto-Medium, Roboto Medium" font-size="35" fill="#1E642E"><tspan x="23.304" y="46">2</tspan></text></g></g><path d="M314.81 567.71c-24.4 47.285-106.535 87.293-167.076 66.65 48.543 8.254 128.844-28.082 148.47-77.062l-14.682 3.576 48.212-49.946-10.367 70.812-4.557-14.03" fill="url(#i)" mask="url(#b)" transform="rotate(-70 238.734 575.428)"/><path d="M296.86 771.729h-17.03l-5.062-8.588c1.64-1.462 2.667-3.57 2.667-5.912s-1.028-4.45-2.667-5.912l2.04-3.46a8.344 8.344 0 0 0 2.05.254c3.574 0 6.61-2.25 7.716-5.382h10.285l4.909 8.326c-1.818 1.466-2.977 3.688-2.977 6.174s1.16 4.708 2.977 6.174l-4.909 8.326zm-26.665 10.246c-4.059 0-7.422 2.927-8.029 6.754h-9.89l-8.508-14.5 8.508-14.5h9.967c.772 3.624 4.039 6.346 7.952 6.346a8.22 8.22 0 0 0 2.524-.396l5.049 8.606-4.794 8.17a8.219 8.219 0 0 0-2.78-.48zm-24.427-46.696l5.13-8.55h17.398l4.756 7.93c-1.475 1.442-2.386 3.422-2.386 5.606 0 2.52 1.21 4.765 3.102 6.23l-1.97 3.284a8.592 8.592 0 0 0-2.58-.395c-4 0-7.34 2.721-8.13 6.345h-10.19l-5.13-8.55c1.693-1.464 2.758-3.587 2.758-5.95s-1.065-4.486-2.758-5.95zm60.887 13.814c-.757 0-1.488.105-2.183.3l-5.434-9.421a1.675 1.675 0 0 0-1.45-.838h-10.776c-.353-4.158-3.836-7.425-8.083-7.425a8.076 8.076 0 0 0-2.986.571l-5.026-8.712a1.672 1.672 0 0 0-1.45-.839h-18.924c-.597 0-1.15.32-1.45.84l-5.491 9.52a8.115 8.115 0 0 0-10.634 7.72c0 4.486 3.632 8.123 8.113 8.123a8.09 8.09 0 0 0 2.52-.402l5.01 8.684-8.98 15.567a1.676 1.676 0 0 0 0 1.675l9.463 16.405c.299.519.852.838 1.45.838h11.017c.922 3.472 4.083 6.03 7.841 6.03 4.481 0 8.113-3.636 8.113-8.121 0-2.303-.958-4.38-2.496-5.857l4.877-8.457h17.892c.599 0 1.15-.32 1.45-.838l5.434-9.42a8.1 8.1 0 0 0 2.183.3c4.481 0 8.113-3.636 8.113-8.122 0-4.484-3.632-8.121-8.113-8.121z" fill="url(#j)" mask="url(#b)" transform="rotate(-111 273.768 760.229)"/><g mask="url(#b)"><g transform="translate(240 674)"><circle stroke="#1E642E" stroke-width="2.1" fill="#FFF" cx="33.25" cy="33.25" r="33.25"/><text font-family="Roboto-Medium, Roboto Medium" font-size="35"><tspan x="23.304" y="46" fill="#1E642E">3</tspan></text></g></g></g></svg>