<svg width="1051" height="838" xmlns="http://www.w3.org/2000/svg"><defs><linearGradient x1="100%" y1="39.919%" x2="50%" y2="97.822%" id="a"><stop stop-color="#FFDF40" offset="0%"/><stop stop-color="#FFBC1E" offset="100%"/></linearGradient><linearGradient x1="5.945%" y1="66.842%" x2="91.96%" y2="36.344%" id="b"><stop stop-color="#FFF" offset="0%"/><stop stop-color="#137E20" offset="100%"/></linearGradient><linearGradient x1="5.945%" y1="66.961%" x2="91.96%" y2="36.247%" id="c"><stop stop-color="#FFF" offset="0%"/><stop stop-color="#137E20" offset="100%"/></linearGradient><linearGradient x1="90.338%" y1="39.46%" x2="50%" y2="100%" id="d"><stop stop-color="#FFDF40" offset="0%"/><stop stop-color="#FFBC1E" offset="100%"/></linearGradient><linearGradient x1="96.387%" y1="39.46%" x2="50%" y2="100%" id="e"><stop stop-color="#FFDF40" offset="0%"/><stop stop-color="#FFBC1E" offset="100%"/></linearGradient></defs><g fill="none" fill-rule="evenodd"><path d="M765.563 677.986c-7.195 9.123-17.411 15.564-28.767 18.136a51.022 51.022 0 0 1-11.257 1.263c-23.29-.003-44.373-16.098-49.723-39.75-3.005-13.284-.66-26.948 6.605-38.465 7.268-11.52 18.585-19.522 31.867-22.528a50.96 50.96 0 0 1 34.946 4.585h.002a50.96 50.96 0 0 1 26.037 33.896 51.481 51.481 0 0 1 1.267 11.262c.016 11.381-3.886 22.606-10.977 31.6zm14.006-120.517a37.464 37.464 0 0 0 14.277 2.814 37.51 37.51 0 0 0 14.275-2.812l38.158 66.512a26.905 26.905 0 0 0-7.949 17.486h-51.982a63.9 63.9 0 0 0-1.304-8.462c-3.586-15.936-13.22-29.681-26.765-38.428l21.29-37.11zm85.11 59.108c-3.558 0-6.952.703-10.054 1.974l-37.648-65.259c8.852-6.893 14.552-17.648 14.552-29.742 0-20.804-16.85-37.671-37.637-37.671-20.79 0-37.64 16.867-37.64 37.671 0 12.094 5.7 22.85 14.552 29.742l-21.366 37.035a61.139 61.139 0 0 0-37.46-3.384c-15.934 3.608-29.51 13.214-38.228 27.044-8.716 13.828-11.531 30.228-7.926 46.176 6.418 28.394 31.71 47.718 59.653 47.716 4.455 0 8.98-.491 13.503-1.517 13.623-3.084 25.879-10.818 34.511-21.773a61.575 61.575 0 0 0 12.953-32.797h53.04c3.568 10.501 13.497 18.058 25.195 18.058 14.7 0 26.615-11.925 26.615-26.635 0-14.713-11.914-26.638-26.615-26.638z" fill="url(#a)" opacity=".856" transform="rotate(-30 763.866 589.147)"/><path d="M586.336 730.279c-47.72 88.33-170.792 59.93-236.332 10.947 150.94 136.29 283.846 38.5 288.875-56.143l14.539 10.913-37.988-94.77-29.599 94.536 14.597-11.091c-.845 11.25-4.15 27.206-14.092 45.608" fill="url(#b)" transform="rotate(13 537.819 709.635)"/><path d="M444.15 190.358c-47.72 88.33-170.791 59.93-236.332 10.947 150.94 136.291 283.846 38.5 288.875-56.143l14.54 10.913-37.989-94.769-29.598 94.536 14.596-11.092c-.845 11.251-4.149 27.206-14.092 45.608" fill="url(#b)" transform="scale(1 -1) rotate(29 982.823 7.867)"/><path d="M1020.666 417.377c-41.586 77.25-148.839 52.412-205.955 9.574 131.539 119.194 247.362 33.67 251.744-49.1l12.67 9.543-33.105-82.88-25.794 82.676 12.72-9.7c-.736 9.84-3.615 23.793-12.28 39.887" fill="url(#c)" transform="scale(-1 1) rotate(58 6.216 -1318.945)"/><path d="M203.04 820.078a14.706 14.706 0 0 0-.767-.837c-5.459-5.469-14.305-5.469-19.763 0-.269.27-.523.552-.766.837l-36.187-20.932c.628-4.237-.685-8.707-3.939-11.967a13.88 13.88 0 0 0-6.227-3.61v-46.551a13.88 13.88 0 0 0 6.227-3.61c3.254-3.262 4.567-7.731 3.94-11.969l36.926-21.36c.01.008.017.018.026.027 5.458 5.469 14.304 5.469 19.763 0l.027-.028 37.598 21.75c-1.124 4.598.105 9.654 3.69 13.246a13.907 13.907 0 0 0 5.803 3.491v43.79a13.907 13.907 0 0 0-5.803 3.492c-3.507 3.514-4.756 8.432-3.755 12.948l-36.794 21.283zm53.587-38.038v-43.35a13.904 13.904 0 0 0 6.662-3.721c5.47-5.471 5.47-14.338 0-19.808-5.468-5.47-14.335-5.47-19.803 0-.05.048-.094.1-.141.15l-37.61-21.717c1.197-4.643-.02-9.777-3.653-13.413-5.47-5.47-14.335-5.47-19.805 0-3.635 3.636-4.85 8.77-3.654 13.413l-36.346 20.988a14.541 14.541 0 0 0-.98-1.089c-5.468-5.469-14.335-5.469-19.805 0-5.468 5.471-5.468 14.338 0 19.808a13.916 13.916 0 0 0 6.24 3.612v46.569a13.916 13.916 0 0 0-6.24 3.612c-5.468 5.468-5.468 14.337 0 19.806 5.47 5.47 14.337 5.47 19.805 0 .348-.348.675-.71.98-1.089l36.11 20.854c-.753 4.338.541 8.96 3.89 12.311 5.47 5.47 14.335 5.47 19.805 0 3.349-3.35 4.644-7.973 3.89-12.31l37.165-21.463c.115.123.228.247.35.366 5.467 5.471 14.334 5.471 19.802 0 5.47-5.468 5.47-14.337 0-19.808a13.935 13.935 0 0 0-6.662-3.721z" fill="url(#d)" transform="rotate(-61 186.6 753.88)"/><path d="M216.435 163.05h-38c-2.269-11.646-12.532-20.438-24.857-20.438-2.88 0-5.64.486-8.22 1.37l-7.877-13.62c4.937-3.942 8.105-10.002 8.105-16.807 0-6.805-3.168-12.866-8.105-16.81l4.593-7.938 3.285-5.68c2.578.882 5.34 1.37 8.219 1.37 12.325 0 22.588-8.795 24.858-20.437h37.999a4.86 4.86 0 0 0 4.862-4.855 4.86 4.86 0 0 0-4.862-4.855h-38c-2.269-11.645-12.532-20.435-24.857-20.435-2.88 0-5.64.483-8.22 1.369l-19-32.855a4.864 4.864 0 0 0-6.64-1.778 4.848 4.848 0 0 0-1.78 6.63l19.002 32.86c-5.327 4.638-8.695 11.458-8.695 19.064 0 7.609 3.368 14.424 8.695 19.062l-8.255 14.273a21.81 21.81 0 0 0-4.658-.51c-10.234 0-18.793 7.123-20.998 16.67H82.57C80.3 97.055 70.038 88.262 57.71 88.262c-2.386 0-4.692.338-6.88.955L32.074 56.779A4.865 4.865 0 0 0 25.43 55a4.85 4.85 0 0 0-1.778 6.63l18.492 31.98c-5.94 4.627-9.765 11.84-9.765 19.944s3.825 15.316 9.765 19.944l-18.492 31.977a4.852 4.852 0 0 0 1.778 6.632 4.865 4.865 0 0 0 6.643-1.778l18.756-32.437c2.188.616 4.494.952 6.88.952 12.328 0 22.591-8.793 24.86-20.436h20.459c2.205 9.547 10.764 16.668 20.998 16.668 1.598 0 3.156-.18 4.658-.51l4.966 8.59 3.29 5.683c-5.328 4.638-8.696 11.455-8.696 19.064 0 7.607 3.368 14.424 8.695 19.062l-19.003 32.86a4.85 4.85 0 0 0 1.78 6.632 4.862 4.862 0 0 0 6.64-1.778l19.002-32.854a25.314 25.314 0 0 0 8.219 1.368c12.325 0 22.588-8.792 24.858-20.435h37.999a4.86 4.86 0 0 0 4.862-4.855 4.859 4.859 0 0 0-4.862-4.854" fill="#FFBC1E" opacity=".665"/><path d="M908.42 155.54c-11.58 0-21.001-9.645-21.001-21.5s9.42-21.5 21-21.5c11.581 0 21 9.645 21 21.5s-9.419 21.5-21 21.5zm58.212 11.743c-3.38 0-6.51 1.064-9.078 2.87l-24.582-22.403a27.857 27.857 0 0 0 3.911-14.257c0-4.076-.884-7.95-2.456-11.448l12.023-9.47a15.744 15.744 0 0 0 9.985 3.554c8.719 0 15.788-7.054 15.788-15.757 0-8.701-7.07-15.757-15.788-15.757s-15.785 7.056-15.785 15.757c0 2.457.563 4.784 1.569 6.857l-11.355 8.941c-5.153-6.541-13.148-10.756-22.115-10.756-4.344 0-8.459.99-12.137 2.75l-33.995-30.186a15.64 15.64 0 0 0 2.002-7.68c0-8.704-7.067-15.758-15.785-15.758-8.717 0-15.786 7.054-15.786 15.757 0 8.702 7.069 15.757 15.786 15.757 3.453 0 6.646-1.11 9.245-2.988l32.589 28.94c-6.14 5.154-10.05 12.873-10.05 21.487 0 6.74 2.39 12.929 6.37 17.773l-37.3 37.233a15.727 15.727 0 0 0-8.48-2.471c-8.72 0-15.79 7.054-15.79 15.755 0 8.703 7.07 15.757 15.79 15.757 8.717 0 15.784-7.054 15.784-15.757 0-3.118-.91-6.021-2.477-8.467l37.402-37.335a28.025 28.025 0 0 0 16.832 5.594c7.842 0 14.94-3.222 20.047-8.404l24.154 22.014a15.665 15.665 0 0 0-2.102 7.855c0 8.703 7.067 15.757 15.784 15.757 8.72 0 15.787-7.054 15.787-15.757s-7.067-15.757-15.787-15.757z" fill="url(#e)" transform="rotate(165 905.446 132.172)"/><g transform="translate(2 164)"><circle stroke="#1E642E" stroke-width="3" fill="#FFF" cx="47.5" cy="47.5" r="47.5"/><text font-family="Roboto-Medium, Roboto Medium" font-size="50" fill="#1E642E"><tspan x="33.291" y="66">1</tspan></text></g><g transform="translate(809 190)"><circle stroke="#1E642E" stroke-width="3" fill="#FFF" cx="47.5" cy="47.5" r="47.5"/><text font-family="Roboto-Medium, Roboto Medium" font-size="50" fill="#1E642E"><tspan x="33.291" y="66">2</tspan></text></g><g transform="translate(103 630.5)"><circle stroke="#1E642E" stroke-width="3" fill="#FFF" cx="47.5" cy="47.5" r="47.5"/><text font-family="Roboto-Medium, Roboto Medium" font-size="50" fill="#1E642E"><tspan x="33.291" y="66">3</tspan></text></g></g></svg>