<svg width="1023" height="769" xmlns="http://www.w3.org/2000/svg" xmlns:xlink="http://www.w3.org/1999/xlink"><defs><linearGradient x1="110.244%" y1="44.484%" x2="30.115%" y2="79.512%" id="a"><stop stop-color="#409D5A" offset="0%"/><stop stop-color="#1E642E" offset="100%"/></linearGradient><linearGradient x1="5.945%" y1="68.226%" x2="93.557%" y2="34.609%" id="b"><stop stop-color="#FFF" offset="0%"/><stop stop-color="#FF4233" offset="100%"/></linearGradient><linearGradient x1="5.945%" y1="66.842%" x2="93.557%" y2="35.778%" id="c"><stop stop-color="#FFF" offset="0%"/><stop stop-color="#FF4233" offset="100%"/></linearGradient><linearGradient x1="5.945%" y1="66.961%" x2="93.557%" y2="35.677%" id="d"><stop stop-color="#FFF" offset="0%"/><stop stop-color="#FF4233" offset="100%"/></linearGradient><linearGradient x1="150.161%" y1="97.561%" x2="26.359%" y2="-19.458%" id="g"><stop stop-color="#409D5A" offset="0%"/><stop stop-color="#1E642E" offset="100%"/></linearGradient><path d="M103.377 215.956a36.593 36.593 0 0 1-20.589 12.98c-2.699.61-5.396.903-8.056.903-16.668-.002-31.757-11.52-35.586-28.448-2.15-9.507-.473-19.286 4.727-27.529 5.202-8.245 13.3-13.971 22.807-16.123a36.471 36.471 0 0 1 25.01 3.282h.002a36.472 36.472 0 0 1 18.634 24.259 36.88 36.88 0 0 1 .907 8.06c.011 8.145-2.782 16.178-7.856 22.616zm9.855-85.117a26.466 26.466 0 0 0 10.06 1.977c3.557 0 6.951-.705 10.056-1.975l26.885 46.716a18.872 18.872 0 0 0-5.6 12.282h-36.624a44.754 44.754 0 0 0-.919-5.943 43.427 43.427 0 0 0-18.857-26.991l15-26.066zm61.007 41.02c-2.54 0-4.962.5-7.175 1.405l-26.868-46.446c6.317-4.906 10.385-12.56 10.385-21.168 0-14.806-12.025-26.81-26.86-26.81-14.836 0-26.861 12.004-26.861 26.81 0 8.608 4.068 16.262 10.385 21.168l-15.248 26.358a43.743 43.743 0 0 0-26.734-2.408c-11.371 2.568-21.06 9.404-27.282 19.248-6.22 9.841-8.23 21.513-5.656 32.863 4.58 20.209 22.63 33.962 42.571 33.96 3.18 0 6.409-.35 9.637-1.08 9.722-2.194 18.469-7.698 24.63-15.496a43.756 43.756 0 0 0 9.243-23.341h37.852c2.547 7.474 9.633 12.851 17.981 12.851 10.491 0 18.994-8.486 18.994-18.956 0-10.471-8.503-18.958-18.994-18.958z" id="f"/><filter x="-10.8%" y="-7.9%" width="121.6%" height="122.2%" filterUnits="objectBoundingBox" id="e"><feOffset dy="5" in="SourceAlpha" result="shadowOffsetOuter1"/><feGaussianBlur stdDeviation="5" in="shadowOffsetOuter1" result="shadowBlurOuter1"/><feColorMatrix values="0 0 0 0 0.301011178 0 0 0 0 0.338911243 0 0 0 0 0.402078019 0 0 0 0.333106884 0" in="shadowBlurOuter1"/></filter><linearGradient x1="156.064%" y1="91.81%" x2="-14.194%" y2="8.19%" id="h"><stop stop-color="#409D5A" offset="0%"/><stop stop-color="#1E642E" offset="100%"/></linearGradient></defs><g fill="none" fill-rule="evenodd"><path d="M85.02 92.584a17.587 17.587 0 0 0-6.995-1.444c-8.808 0-16.104 6.445-17.403 14.86H29.75L6 65l13.715-23.678a21.768 21.768 0 0 0 8.475 1.704c11.12 0 20.287-8.301 21.618-19.026H77.25L101 65 85.02 92.585zm21.617-28.345L81.243 20.428a2.714 2.714 0 0 0-2.349-1.35H49.796C48.461 8.326 39.263 0 28.106 0 16.03 0 6.241 9.75 6.241 21.778c0 7.09 3.403 13.386 8.669 17.363L.364 64.24a2.682 2.682 0 0 0 0 2.7l25.394 43.811a2.712 2.712 0 0 0 2.347 1.35h32.541c1.304 8.44 8.625 14.9 17.462 14.9 9.759 0 17.669-7.879 17.669-17.599 0-5.294-2.35-10.038-6.064-13.265l16.924-29.197a2.689 2.689 0 0 0 0-2.7z" fill="url(#a)" transform="translate(789 69)"/><g transform="translate(869 76)"><circle stroke="#1E642E" stroke-width="3" fill="#FFF" cx="47.5" cy="47.5" r="47.5"/><text font-family="Roboto-Medium, Roboto Medium" font-size="50" fill="#1E642E"><tspan x="33.291" y="66">2</tspan></text></g><path d="M1069.764 226.398c-31.577 61.35-137.868 113.256-216.215 86.474 62.82 10.708 166.738-36.434 192.137-99.983l-19 4.639 62.391-64.802-13.416 91.874-5.897-18.202" fill="url(#b)" transform="scale(-1 1) rotate(75 25.197 -993.894)"/><path d="M390.99 277.78c-47.72 88.33-170.792 59.93-236.333 10.948 150.94 136.29 283.846 38.5 288.875-56.144l14.54 10.913-37.989-94.768-29.598 94.535 14.596-11.091c-.845 11.25-4.149 27.205-14.092 45.607" fill="url(#c)" transform="rotate(75 278.561 218.824)"/><path d="M718.557 627.824c-41.586 77.25-148.838 52.412-205.954 9.574 131.539 119.194 247.361 33.67 251.744-49.1l12.67 9.544-33.105-82.88-25.794 82.676 12.72-9.7c-.736 9.839-3.616 23.793-12.28 39.886" fill="url(#d)" transform="scale(-1 1) rotate(-30 30.232 2914.157)"/><g transform="rotate(-37 88.722 238.04)"><use fill="#000" filter="url(#e)" xlink:href="#f"/><use fill="url(#g)" xlink:href="#f"/></g><g transform="translate(12 2)"><circle stroke="#1E642E" stroke-width="3" fill="#FFF" cx="47.5" cy="47.5" r="47.5"/><text font-family="Roboto-Medium, Roboto Medium" font-size="50" fill="#1E642E"><tspan x="33.291" y="66">1</tspan></text></g><path d="M145.91 132h-38.472L96 112.158a18.434 18.434 0 0 0 6.026-13.659c0-5.41-2.323-10.28-6.026-13.657l4.61-7.995c1.48.383 3.032.587 4.63.587 8.076 0 14.933-5.198 17.432-12.434h23.238L157 84.236a18.443 18.443 0 0 0-6.726 14.263A18.444 18.444 0 0 0 157 112.764L145.91 132zm-62.283 22.395c-9.311 0-17.028 6.764-18.42 15.605H42.52L23 136.498 42.519 103h22.865c1.772 8.373 9.266 14.66 18.243 14.66 2.021 0 3.965-.323 5.79-.913L101 136.63l-10.997 18.874a18.736 18.736 0 0 0-6.376-1.109zM31 47.753L42.54 28h39.148L92.39 46.32c-3.319 3.333-5.37 7.907-5.37 12.954 0 5.819 2.725 11.007 6.98 14.393l-4.431 7.586a18.869 18.869 0 0 0-5.807-.913c-9.001 0-16.516 6.287-18.293 14.66H42.54L31 75.247c3.808-3.382 6.206-8.288 6.206-13.747 0-5.46-2.398-10.365-6.206-13.747zM168.5 80.11a18.4 18.4 0 0 0-4.98.685l-12.393-21.481a3.82 3.82 0 0 0-3.306-1.91h-24.574c-.806-9.48-8.749-16.929-18.433-16.929a18.42 18.42 0 0 0-6.81 1.302L86.543 21.913A3.813 3.813 0 0 0 83.237 20H40.08a3.82 3.82 0 0 0-3.307 1.913L24.25 43.622c-1.81-.59-3.74-.914-5.747-.914C8.283 42.708 0 50.998 0 61.224c0 10.227 8.284 18.519 18.503 18.519 2.007 0 3.938-.324 5.747-.916l11.423 19.799-20.477 35.492a3.82 3.82 0 0 0 0 3.82l21.578 37.402a3.816 3.816 0 0 0 3.307 1.911h25.124C67.31 185.167 74.517 191 83.087 191c10.22 0 18.503-8.29 18.503-18.516a18.46 18.46 0 0 0-5.693-13.355l11.122-19.28h40.802a3.816 3.816 0 0 0 3.306-1.91l12.393-21.48c1.584.442 3.252.685 4.98.685 10.218 0 18.5-8.29 18.5-18.518 0-10.225-8.282-18.517-18.5-18.517z" fill="url(#h)" transform="translate(668 578)"/><g transform="translate(807 578)"><circle stroke="#1E642E" stroke-width="3" fill="#FFF" cx="47.5" cy="47.5" r="47.5"/><text font-family="Roboto-Medium, Roboto Medium" font-size="50" fill="#1E642E"><tspan x="33.291" y="66">3</tspan></text></g></g></svg>