<svg width="1039" height="856" xmlns="http://www.w3.org/2000/svg" xmlns:xlink="http://www.w3.org/1999/xlink"><defs><linearGradient x1="109.217%" y1="19.184%" x2="-25.698%" y2="65.049%" id="a"><stop stop-color="#4C8CFF" offset="0%"/><stop stop-color="#026EB8" offset="100%"/></linearGradient><linearGradient x1="5.945%" y1="68.226%" x2="92.153%" y2="35.148%" id="b"><stop stop-color="#FFF" offset="0%"/><stop stop-color="#FF8A16" offset="100%"/></linearGradient><linearGradient x1="5.945%" y1="66.842%" x2="92.153%" y2="36.276%" id="c"><stop stop-color="#FFF" offset="0%"/><stop stop-color="#FF8A16" offset="100%"/></linearGradient><linearGradient x1="5.945%" y1="66.961%" x2="92.153%" y2="36.178%" id="d"><stop stop-color="#FFF" offset="0%"/><stop stop-color="#FF8A16" offset="100%"/></linearGradient><linearGradient x1="110.009%" y1="20.687%" x2="-26.711%" y2="64.315%" id="g"><stop stop-color="#4C8CFF" offset="0%"/><stop stop-color="#026EB8" offset="100%"/></linearGradient><path d="M102.686 341.625a36.593 36.593 0 0 1-20.588 12.98c-2.7.61-5.397.903-8.056.903-16.668-.002-31.758-11.52-35.586-28.448-2.151-9.507-.474-19.286 4.726-27.53 5.202-8.244 13.301-13.97 22.807-16.122A36.471 36.471 0 0 1 91 286.689h.002a36.472 36.472 0 0 1 18.634 24.26c.599 2.656.905 5.367.907 8.059.012 8.146-2.781 16.179-7.856 22.617zm9.856-85.117a26.466 26.466 0 0 0 10.059 1.977c3.558 0 6.951-.705 10.057-1.975l26.884 46.716a18.872 18.872 0 0 0-5.6 12.282h-36.624a44.754 44.754 0 0 0-.919-5.943 43.427 43.427 0 0 0-18.857-26.991l15-26.066zm61.006 41.02c-2.539 0-4.961.5-7.175 1.405l-26.867-46.446c6.317-4.906 10.385-12.56 10.385-21.168 0-14.807-12.025-26.811-26.86-26.811-14.837 0-26.862 12.004-26.862 26.811 0 8.608 4.068 16.262 10.385 21.168l-15.248 26.358a43.743 43.743 0 0 0-26.733-2.409c-11.372 2.568-21.06 9.405-27.283 19.248-6.22 9.842-8.229 21.514-5.656 32.864 4.58 20.209 22.63 33.962 42.572 33.96 3.18 0 6.408-.35 9.636-1.08 9.723-2.194 18.47-7.698 24.63-15.496a43.756 43.756 0 0 0 9.244-23.342h37.851c2.547 7.474 9.633 12.852 17.981 12.852 10.492 0 18.994-8.487 18.994-18.956 0-10.471-8.502-18.958-18.994-18.958z" id="f"/><filter x="-10.8%" y="-7.9%" width="121.6%" height="122.2%" filterUnits="objectBoundingBox" id="e"><feOffset dy="5" in="SourceAlpha" result="shadowOffsetOuter1"/><feGaussianBlur stdDeviation="5" in="shadowOffsetOuter1" result="shadowBlurOuter1"/><feColorMatrix values="0 0 0 0 0.301011178 0 0 0 0 0.338911243 0 0 0 0 0.402078019 0 0 0 0.333106884 0" in="shadowBlurOuter1"/></filter><linearGradient x1="110.009%" y1="19.184%" x2="-26.711%" y2="65.049%" id="h"><stop stop-color="#4C8CFF" offset="0%"/><stop stop-color="#026EB8" offset="100%"/></linearGradient></defs><g fill="none" fill-rule="evenodd"><path d="M907.159 83.446c-12.958 0-23.501-10.542-23.501-23.5 0-12.96 10.543-23.5 23.5-23.5 12.958 0 23.5 10.54 23.5 23.5 0 12.958-10.542 23.5-23.5 23.5zM966.87 103.3a16.948 16.948 0 0 0-10.471 1.94l-24.418-29.322a30.093 30.093 0 0 0 4.76-16.282c0-16.647-13.495-30.189-30.083-30.189-16.589 0-30.084 13.542-30.084 30.19 0 5.99 1.749 11.58 4.758 16.28l-24.416 29.322a16.946 16.946 0 0 0-10.471-1.94c-9.348 1.272-15.9 9.908-14.631 19.287 1.266 9.382 9.873 15.955 19.219 14.682 9.347-1.27 15.897-9.906 14.63-19.286a17.09 17.09 0 0 0-3.621-8.45l23.588-28.326c4.68 4.592 10.842 7.67 17.688 8.433v39.389c-11.24 1.468-20.56 10.32-22.155 22.13-1.908 14.13 7.958 27.138 22.038 29.052 14.08 1.916 27.042-7.987 28.951-22.116 1.908-14.129-7.958-27.135-22.038-29.05-.04-.006-.08-.01-.117-.014V89.638c6.846-.763 13.006-3.84 17.686-8.433l23.588 28.326a17.088 17.088 0 0 0-3.62 8.45c-1.266 9.38 5.284 18.015 14.631 19.286 9.346 1.273 17.95-5.3 19.217-14.682 1.27-9.379-5.283-18.015-14.629-19.286z" fill="url(#a)" transform="rotate(146 888.814 79.261)"/><path d="M1079.764 300.398c-31.577 61.35-137.868 113.256-216.215 86.474 62.82 10.708 166.738-36.434 192.137-99.983l-19 4.639 62.391-64.802-13.416 91.874-5.897-18.202" fill="url(#b)" transform="scale(-1 1) rotate(75 47.61 -956.336)"/><path d="M406.319 524.278c-47.72 88.33-170.792 59.93-236.332 10.948 150.94 136.29 283.846 38.5 288.875-56.144l14.539 10.913-37.988-94.769-29.599 94.536 14.597-11.091c-.845 11.25-4.15 27.205-14.092 45.607" fill="url(#c)" transform="rotate(30 367.237 392.654)"/><path d="M883.557 644.824c-41.586 77.25-148.838 52.412-205.954 9.574 131.539 119.194 247.361 33.67 251.744-49.1l12.67 9.544-33.105-82.88-25.794 82.676 12.72-9.7c-.736 9.839-3.616 23.793-12.28 39.886" fill="url(#d)" transform="rotate(-30 717.267 691.795)"/><g transform="scale(1 -1) rotate(-32 -836.15 100.454)"><use fill="#000" filter="url(#e)" xlink:href="#f"/><use fill="url(#g)" xlink:href="#f"/></g><path d="M683.358 868.195c-11.857 0-21.5-9.645-21.5-21.501 0-11.856 9.643-21.5 21.5-21.5 11.854 0 21.5 9.644 21.5 21.5s-9.646 21.5-21.5 21.5zm-93.15.662c-11.854 0-21.499-9.645-21.499-21.5 0-11.856 9.645-21.5 21.5-21.5s21.5 9.644 21.5 21.5c0 11.855-9.645 21.5-21.5 21.5zm-21.796-116.013c0-11.856 9.645-21.5 21.5-21.5 11.856 0 21.5 9.644 21.5 21.5s-9.644 21.5-21.5 21.5c-11.855 0-21.5-9.644-21.5-21.5zm115.15-21.298c11.854 0 21.499 9.645 21.499 21.501 0 11.856-9.645 21.5-21.5 21.5-11.857 0-21.5-9.644-21.5-21.5s9.643-21.5 21.5-21.5zm-65.868 25.64h38.363a28.12 28.12 0 0 0 6.318 14.605l-11.904 11.394a22.321 22.321 0 0 0-13.595-4.59 22.326 22.326 0 0 0-13.597 4.59l-11.904-11.394a28.12 28.12 0 0 0 6.319-14.606zm-11.601 18.66l11.91 11.418a21.843 21.843 0 0 0-3.97 12.581c0 4.683 1.471 9.018 3.97 12.582l-11.91 11.418a27.632 27.632 0 0 0-13.09-5.205v-37.59a27.65 27.65 0 0 0 13.09-5.206zm49.983 67.373h-38.363a28.12 28.12 0 0 0-6.318-14.606l11.903-11.394a22.326 22.326 0 0 0 13.597 4.59c5.115 0 9.825-1.711 13.596-4.59l11.904 11.394a28.12 28.12 0 0 0-6.319 14.606zm11.1-19.527l-11.908-11.418a21.855 21.855 0 0 0 3.969-12.582 21.85 21.85 0 0 0-3.97-12.581l11.909-11.419a27.663 27.663 0 0 0 13.092 5.206v37.589a27.645 27.645 0 0 0-13.092 5.205zm19.589-4.215v-38.05c13.89-1.69 24.687-13.542 24.687-27.881 0-15.492-12.602-28.094-28.094-28.094-14.338 0-26.193 10.797-27.882 24.685h-38.048c-1.69-13.888-13.546-24.685-27.882-24.685-15.492 0-28.094 12.602-28.094 28.094 0 14.339 10.797 26.192 24.685 27.881v38.05c-13.888 1.69-24.685 13.542-24.685 27.88 0 15.492 12.602 28.095 28.094 28.095 14.336 0 26.193-10.797 27.882-24.687h38.048c1.69 13.89 13.544 24.687 27.882 24.687 15.492 0 28.094-12.603 28.094-28.094 0-14.339-10.797-26.192-24.687-27.881z" fill="url(#h)" transform="rotate(30 681.995 694.249)"/><g transform="translate(28 280)"><circle stroke="#026EB8" stroke-width="3" fill="#FFF" cx="47.5" cy="47.5" r="47.5"/><text font-family="Roboto-Medium, Roboto Medium" font-size="50" fill="#026EB8"><tspan x="33.291" y="66">1</tspan></text></g><g transform="translate(885 90)"><circle stroke="#026EB8" stroke-width="3" fill="#FFF" cx="47.5" cy="47.5" r="47.5"/><text font-family="Roboto-Medium, Roboto Medium" font-size="50" fill="#026EB8"><tspan x="33.291" y="66">2</tspan></text></g><g transform="translate(624 692)"><circle stroke="#026EB8" stroke-width="3" fill="#FFF" cx="47.5" cy="47.5" r="47.5"/><text font-family="Roboto-Medium, Roboto Medium" font-size="50" fill="#026EB8"><tspan x="33.291" y="66">3</tspan></text></g></g></svg>