<svg width="1023" height="760" xmlns="http://www.w3.org/2000/svg" xmlns:xlink="http://www.w3.org/1999/xlink"><defs><linearGradient x1="3.098%" y1="50%" x2="100%" y2="50%" id="a"><stop stop-color="#DE8F2B" offset="0%"/><stop stop-color="#FFB960" offset="100%"/></linearGradient><linearGradient x1="5.945%" y1="68.226%" x2="93.557%" y2="34.609%" id="b"><stop stop-color="#FFF" offset="0%"/><stop stop-color="#FF4233" offset="100%"/></linearGradient><linearGradient x1="5.945%" y1="66.842%" x2="93.557%" y2="35.778%" id="c"><stop stop-color="#FFF" offset="0%"/><stop stop-color="#FF4233" offset="100%"/></linearGradient><linearGradient x1="5.945%" y1="66.961%" x2="93.557%" y2="35.677%" id="d"><stop stop-color="#FFF" offset="0%"/><stop stop-color="#FF4233" offset="100%"/></linearGradient><linearGradient x1="3.098%" y1="50%" x2="100%" y2="50%" id="g"><stop stop-color="#DE8F2B" offset="0%"/><stop stop-color="#FFB960" offset="100%"/></linearGradient><path d="M103.377 215.956a36.593 36.593 0 0 1-20.589 12.98c-2.699.61-5.396.903-8.056.903-16.668-.002-31.757-11.52-35.586-28.448-2.15-9.507-.473-19.286 4.727-27.529 5.202-8.245 13.3-13.971 22.807-16.123a36.471 36.471 0 0 1 25.01 3.282h.002a36.472 36.472 0 0 1 18.634 24.259 36.88 36.88 0 0 1 .907 8.06c.011 8.145-2.782 16.178-7.856 22.616zm9.855-85.117a26.466 26.466 0 0 0 10.06 1.977c3.557 0 6.951-.705 10.056-1.975l26.885 46.716a18.872 18.872 0 0 0-5.6 12.282h-36.624a44.754 44.754 0 0 0-.919-5.943 43.427 43.427 0 0 0-18.857-26.991l15-26.066zm61.007 41.02c-2.54 0-4.962.5-7.175 1.405l-26.868-46.446c6.317-4.906 10.385-12.56 10.385-21.168 0-14.806-12.025-26.81-26.86-26.81-14.836 0-26.861 12.004-26.861 26.81 0 8.608 4.068 16.262 10.385 21.168l-15.248 26.358a43.743 43.743 0 0 0-26.734-2.408c-11.371 2.568-21.06 9.404-27.282 19.248-6.22 9.841-8.23 21.513-5.656 32.863 4.58 20.209 22.63 33.962 42.571 33.96 3.18 0 6.409-.35 9.637-1.08 9.722-2.194 18.469-7.698 24.63-15.496a43.756 43.756 0 0 0 9.243-23.341h37.852c2.547 7.474 9.633 12.851 17.981 12.851 10.491 0 18.994-8.486 18.994-18.956 0-10.471-8.503-18.958-18.994-18.958z" id="f"/><filter x="-10.8%" y="-7.9%" width="121.6%" height="122.2%" filterUnits="objectBoundingBox" id="e"><feOffset dy="5" in="SourceAlpha" result="shadowOffsetOuter1"/><feGaussianBlur stdDeviation="5" in="shadowOffsetOuter1" result="shadowBlurOuter1"/><feColorMatrix values="0 0 0 0 0.301011178 0 0 0 0 0.338911243 0 0 0 0 0.402078019 0 0 0 0.333106884 0" in="shadowBlurOuter1"/></filter><linearGradient x1="3.098%" y1="50%" x2="100%" y2="50%" id="h"><stop stop-color="#DE8F2B" offset="0%"/><stop stop-color="#FFB960" offset="100%"/></linearGradient></defs><g fill="none" fill-rule="evenodd"><path d="M927.02 159.584a17.587 17.587 0 0 0-6.995-1.444c-8.808 0-16.104 6.445-17.403 14.86H871.75L848 132l13.715-23.678a21.768 21.768 0 0 0 8.475 1.704c11.12 0 20.287-8.301 21.618-19.026h27.442L943 132l-15.98 27.584zm21.617-28.345l-25.394-43.811a2.714 2.714 0 0 0-2.349-1.35h-29.098C890.461 75.326 881.263 67 870.106 67c-12.076 0-21.864 9.75-21.864 21.778 0 7.09 3.403 13.386 8.669 17.363l-14.547 25.098a2.682 2.682 0 0 0 0 2.7l25.394 43.811a2.712 2.712 0 0 0 2.347 1.35h32.541c1.304 8.44 8.625 14.9 17.462 14.9 9.759 0 17.669-7.879 17.669-17.599 0-5.294-2.35-10.038-6.064-13.265l16.924-29.197a2.689 2.689 0 0 0 0-2.7z" fill="url(#a)" transform="translate(-53 2)"/><path d="M1069.764 226.398c-31.577 61.35-137.868 113.256-216.215 86.474 62.82 10.708 166.738-36.434 192.137-99.983l-19 4.639 62.391-64.802-13.416 91.874-5.897-18.202" fill="url(#b)" transform="scale(-1 1) rotate(75 25.197 -993.894)"/><path d="M390.99 277.78c-47.72 88.33-170.792 59.93-236.333 10.948 150.94 136.29 283.846 38.5 288.875-56.144l14.54 10.913-37.989-94.768-29.598 94.535 14.596-11.091c-.845 11.25-4.149 27.205-14.092 45.607" fill="url(#c)" transform="rotate(75 278.561 218.824)"/><path d="M859.557 618.363c-41.586 77.25-148.838 52.412-205.954 9.574 131.539 119.193 247.361 33.67 251.744-49.1l12.67 9.543-33.105-82.88-25.794 82.676 12.72-9.7c-.736 9.84-3.616 23.793-12.28 39.887" fill="url(#d)" transform="rotate(-30 763.042 696.03)"/><g transform="rotate(-37 88.722 238.04)"><use fill="#000" filter="url(#e)" xlink:href="#f"/><use fill="url(#g)" xlink:href="#f"/></g><path d="M555.91 698.539h-38.472L506 678.697a18.434 18.434 0 0 0 6.026-13.66c0-5.41-2.323-10.278-6.026-13.656l4.61-7.995c1.48.383 3.032.586 4.63.586 8.076 0 14.933-5.197 17.432-12.433h23.238L567 650.775a18.443 18.443 0 0 0-6.726 14.263A18.444 18.444 0 0 0 567 679.303l-11.09 19.236zm-62.283 22.395c-9.311 0-17.028 6.764-18.42 15.605H452.52L433 703.037l19.519-33.498h22.865c1.772 8.372 9.266 14.66 18.243 14.66a18.75 18.75 0 0 0 5.79-.914L511 703.168l-10.997 18.875a18.736 18.736 0 0 0-6.376-1.11zM441 614.292l11.54-19.753h39.148l10.702 18.32c-3.319 3.332-5.37 7.907-5.37 12.953 0 5.82 2.725 11.008 6.98 14.394l-4.431 7.586a18.869 18.869 0 0 0-5.807-.914c-9.001 0-16.516 6.288-18.293 14.66H452.54L441 641.786c3.808-3.382 6.206-8.287 6.206-13.746 0-5.46-2.398-10.365-6.206-13.747zm137.5 32.356a18.4 18.4 0 0 0-4.98.685l-12.393-21.481a3.82 3.82 0 0 0-3.306-1.91h-24.574c-.806-9.481-8.749-16.929-18.433-16.929a18.42 18.42 0 0 0-6.81 1.302l-11.461-19.863a3.813 3.813 0 0 0-3.306-1.913H450.08a3.82 3.82 0 0 0-3.307 1.913l-12.524 21.709c-1.81-.59-3.74-.914-5.747-.914-10.22 0-18.503 8.29-18.503 18.516 0 10.227 8.284 18.518 18.503 18.518 2.007 0 3.938-.324 5.747-.916l11.423 19.8-20.477 35.491a3.82 3.82 0 0 0 0 3.821l21.578 37.402a3.816 3.816 0 0 0 3.307 1.911h25.124c2.104 7.916 9.312 13.749 17.882 13.749 10.22 0 18.503-8.29 18.503-18.517 0-5.25-2.186-9.986-5.693-13.354l11.122-19.281h40.802a3.816 3.816 0 0 0 3.306-1.91l12.393-21.48c1.584.443 3.252.686 4.98.686 10.218 0 18.5-8.29 18.5-18.519 0-10.224-8.282-18.516-18.5-18.516z" fill="url(#h)" transform="translate(-53 2)"/><g transform="translate(12 2)"><circle stroke="#C2061D" stroke-width="3" fill="#FFF" cx="47.5" cy="47.5" r="47.5"/><text font-family="Roboto-Medium, Roboto Medium" font-size="50" fill="#A50317"><tspan x="33.291" y="66">1</tspan></text></g><g transform="translate(869 76)"><circle stroke="#C2061D" stroke-width="3" fill="#FFF" cx="47.5" cy="47.5" r="47.5"/><text font-family="Roboto-Medium, Roboto Medium" font-size="50" fill="#A50317"><tspan x="33.291" y="66">2</tspan></text></g><g transform="translate(496 568.539)"><circle stroke="#C2061D" stroke-width="3" fill="#FFF" cx="47.5" cy="47.5" r="47.5"/><text font-family="Roboto-Medium, Roboto Medium" font-size="50" fill="#A50317"><tspan x="33.291" y="66">3</tspan></text></g></g></svg>