<svg width="297" height="775" xmlns="http://www.w3.org/2000/svg" xmlns:xlink="http://www.w3.org/1999/xlink"><defs><path id="a" d="M0 0h320v847H0z"/><linearGradient x1="101.258%" y1="49.75%" x2=".258%" y2="49.75%" id="c"><stop stop-color="#4A90E2" offset="0%"/><stop stop-color="#8ABFFD" offset="100%"/></linearGradient><linearGradient x1="5.945%" y1="66.857%" x2="93.557%" y2="35.765%" id="d"><stop stop-color="#FFF" offset="0%"/><stop stop-color="#1576FE" offset="100%"/></linearGradient><linearGradient x1="5.945%" y1="66.788%" x2="93.557%" y2="35.823%" id="e"><stop stop-color="#FFF" offset="0%"/><stop stop-color="#1576FE" offset="100%"/></linearGradient><linearGradient x1="101.258%" y1="49.75%" x2=".258%" y2="49.75%" id="f"><stop stop-color="#4A90E2" offset="0%"/><stop stop-color="#6CA9F0" offset="50.806%"/><stop stop-color="#8ABFFD" offset="100%"/></linearGradient><linearGradient x1="5.945%" y1="68.132%" x2="93.557%" y2="34.688%" id="g"><stop stop-color="#FFF" offset="0%"/><stop stop-color="#1576FE" offset="100%"/></linearGradient><linearGradient x1="101.258%" y1="49.75%" x2=".258%" y2="49.75%" id="h"><stop stop-color="#4A90E2" offset="0%"/><stop stop-color="#8ABFFD" offset="100%"/></linearGradient></defs><g transform="translate(-11 -28)" fill="none" fill-rule="evenodd"><mask id="b" fill="#fff"><use xlink:href="#a"/></mask><g mask="url(#b)"><path d="M36.994 96.824c0-6.893 5.608-12.5 12.5-12.5s12.5 5.607 12.5 12.5-5.608 12.5-12.5 12.5-12.5-5.607-12.5-12.5zm35.258 14.378c-2.234 0-4.3.714-5.984 1.922l-5.54-5.522a15.614 15.614 0 0 0 4.035-10.484c0-8.098-6.184-14.785-14.092-15.615v-5.522c4.877-.791 8.6-5.008 8.6-10.094 0-5.648-4.593-10.228-10.26-10.228-5.666 0-10.26 4.58-10.26 10.228 0 5.086 3.724 9.303 8.601 10.094v5.522c-7.908.83-14.092 7.517-14.092 15.615 0 4.026 1.528 7.702 4.035 10.484l-5.54 5.522a10.23 10.23 0 0 0-5.984-1.922c-5.666 0-10.26 4.58-10.26 10.229 0 5.648 4.594 10.228 10.26 10.228 5.667 0 10.26-4.58 10.26-10.228 0-2.229-.716-4.287-1.929-5.967l5.66-5.643a15.697 15.697 0 0 0 9.25 3.002c3.453 0 6.65-1.115 9.249-3.002l5.66 5.643a10.16 10.16 0 0 0-1.929 5.967c0 5.648 4.594 10.228 10.26 10.228 5.667 0 10.26-4.58 10.26-10.228 0-5.65-4.593-10.23-10.26-10.23z" fill="url(#c)" transform="rotate(-30 110.993 86.267)"/><g transform="translate(12.526 30)"><circle stroke="#026EB8" stroke-width="2.1" fill="#FFF" cx="33.25" cy="33.25" r="33.25"/><text font-family="Roboto-Medium, Roboto Medium" font-size="35" fill="#026EB8"><tspan x="23.304" y="46">1</tspan></text></g></g><path d="M269.266 182.505c-24.915 46.14-89.171 31.304-123.39 5.719 78.806 71.19 148.197 20.11 150.823-29.327l7.59 5.7-19.833-49.501-15.453 49.38 7.62-5.794c-.44 5.877-2.166 14.211-7.357 23.823" fill="url(#d)" mask="url(#b)" transform="scale(1 -1) rotate(-42 -215.768 0)"/><path d="M96.438 521.677c-20.354 37.615-72.847 25.52-100.802 4.661 64.38 58.04 121.068 16.395 123.213-23.908l6.201 4.647-16.203-40.357-12.624 40.258 6.226-4.723c-.36 4.79-1.77 11.585-6.011 19.422" fill="url(#e)" mask="url(#b)" transform="scale(-1 1) rotate(-62 0 611.28)"/><g mask="url(#b)"><g transform="translate(18 546)"><circle stroke="#026EB8" stroke-width="2.1" fill="#FFF" cx="33.25" cy="33.25" r="33.25"/><text font-family="Roboto-Medium, Roboto Medium" font-size="35" fill="#026EB8"><tspan x="23.304" y="46">2</tspan></text></g></g><path d="M85.145 652.852a11.05 11.05 0 0 0-6.475 2.086l-5.993-5.99a16.963 16.963 0 0 0 4.364-11.373c0-8.786-6.69-16.04-15.245-16.94v-5.99c5.276-.858 9.304-5.432 9.304-10.95 0-6.127-4.97-11.095-11.1-11.095s-11.1 4.968-11.1 11.095c0 5.518 4.028 10.092 9.304 10.95v5.99c-8.555.9-15.246 8.154-15.246 16.94 0 4.367 1.653 8.354 4.365 11.372l-5.994 5.99a11.048 11.048 0 0 0-6.474-2.085c-6.13 0-11.1 4.968-11.1 11.096s4.97 11.096 11.1 11.096c6.131 0 11.1-4.968 11.1-11.096 0-2.417-.774-4.65-2.086-6.472l6.123-6.121A16.953 16.953 0 0 0 60 654.61a16.95 16.95 0 0 0 10.007-3.256l6.123 6.12a11.04 11.04 0 0 0-2.086 6.473c0 6.128 4.97 11.096 11.101 11.096 6.13 0 11.1-4.968 11.1-11.096s-4.97-11.096-11.1-11.096z" fill="url(#f)" mask="url(#b)" transform="rotate(30 60 633.822)"/><path d="M314.81 567.71c-24.4 47.285-106.535 87.293-167.076 66.65 48.543 8.254 128.844-28.082 148.47-77.062l-14.682 3.576 48.212-49.946-10.367 70.812-4.557-14.03" fill="url(#g)" mask="url(#b)" transform="rotate(-70 238.734 575.428)"/><path d="M249.758 789a8.603 8.603 0 0 0-.45-.488c-3.208-3.19-8.407-3.19-11.615 0a8.603 8.603 0 0 0-.45.488l-21.268-12.21a8.128 8.128 0 0 0-2.316-6.981 8.172 8.172 0 0 0-3.659-2.106v-27.155a8.172 8.172 0 0 0 3.66-2.106 8.128 8.128 0 0 0 2.315-6.981L237.677 719l.016.016c3.207 3.19 8.406 3.19 11.614 0l.017-.016 22.096 12.688a8.133 8.133 0 0 0 2.17 7.726 8.186 8.186 0 0 0 3.41 2.037v25.544a8.186 8.186 0 0 0-3.41 2.037 8.13 8.13 0 0 0-2.208 7.553L249.758 789zm30.927-21.819v-25.438a8.221 8.221 0 0 0 3.909-13.808 8.213 8.213 0 0 0-11.618 0c-.03.028-.056.059-.083.088l-22.064-12.744a8.218 8.218 0 0 0-2.144-7.871 8.212 8.212 0 0 0-11.619 0 8.215 8.215 0 0 0-2.143 7.87L213.6 727.596a8.214 8.214 0 0 0-12.194-.639 8.223 8.223 0 0 0 0 11.624 8.164 8.164 0 0 0 3.66 2.12v27.327a8.164 8.164 0 0 0-3.66 2.12 8.222 8.222 0 0 0 0 11.623 8.212 8.212 0 0 0 12.194-.64l21.184 12.239a8.214 8.214 0 1 0 16.183 0l21.804-12.595c.067.072.134.145.205.215a8.21 8.21 0 0 0 11.617 0 8.221 8.221 0 0 0-3.908-13.808z" fill="url(#h)" mask="url(#b)"/><g mask="url(#b)"><g transform="translate(240 674)"><circle stroke="#026EB8" stroke-width="2.1" fill="#FFF" cx="33.25" cy="33.25" r="33.25"/><text font-family="Roboto-Medium, Roboto Medium" font-size="35"><tspan x="23.304" y="46" fill="#026EB8">3</tspan></text></g></g></g></svg>