<svg width="1013" height="812" xmlns="http://www.w3.org/2000/svg"><defs><linearGradient x1="5.945%" y1="68.226%" x2="90.691%" y2="35.709%" id="a"><stop stop-color="#FFF" offset="0%"/><stop stop-color="#1677FF" offset="100%"/></linearGradient><linearGradient x1="5.945%" y1="66.842%" x2="92.153%" y2="36.276%" id="b"><stop stop-color="#FFF" offset="0%"/><stop stop-color="#1677FF" offset="98.304%"/></linearGradient><linearGradient x1="5.945%" y1="66.961%" x2="92.153%" y2="36.178%" id="c"><stop stop-color="#FFF" offset="0%"/><stop stop-color="#1677FF" offset="98.304%"/></linearGradient><linearGradient x1="101.258%" y1="49.75%" x2=".258%" y2="49.75%" id="d"><stop stop-color="#4A90E2" offset="0%"/><stop stop-color="#8ABFFD" offset="100%"/></linearGradient><linearGradient x1="101.258%" y1="49.75%" x2=".258%" y2="49.75%" id="e"><stop stop-color="#4A90E2" offset="0%"/><stop stop-color="#8ABFFD" offset="100%"/></linearGradient><linearGradient x1="101.258%" y1="49.75%" x2=".258%" y2="49.75%" id="f"><stop stop-color="#4A90E2" offset="0%"/><stop stop-color="#6CA9F0" offset="50.806%"/><stop stop-color="#8ABFFD" offset="100%"/></linearGradient></defs><g fill="none" fill-rule="evenodd"><path d="M1004.764 252.398c-31.577 61.35-137.868 113.256-216.215 86.474 62.82 10.708 166.738-36.434 192.137-99.983l-19 4.639 62.391-64.802-13.416 91.874-5.897-18.202" fill="url(#a)" transform="scale(-1 1) rotate(75 17.245 -934.023)"/><path d="M334.916 351.975c-47.72 88.33-170.791 59.93-236.332 10.947 150.94 136.29 283.846 38.5 288.875-56.144l14.54 10.913-37.99-94.768-29.597 94.535 14.596-11.091c-.845 11.25-4.15 27.206-14.092 45.608" fill="url(#b)" transform="rotate(71 270.918 313.956)"/><path d="M566.983 691.398c131.538 119.194 247.361 33.67 251.743-49.1l12.67 9.544-33.104-82.88-25.794 82.676 12.72-9.7c-.736 9.839-3.616 23.793-12.28 39.886-41.587 77.25-148.84 52.412-205.955 9.574z" fill="url(#c)" transform="rotate(-30 647.941 641.86)"/><path d="M84 99c0-12.683 10.318-23 23-23s23 10.317 23 23-10.318 23-23 23-23-10.317-23-23zm65.165 25.316a18.741 18.741 0 0 0-10.986 3.542l-10.17-10.173c4.603-5.126 7.407-11.896 7.407-19.312 0-14.92-11.352-27.237-25.87-28.765V59.435c8.954-1.457 15.789-9.224 15.789-18.594C125.335 30.436 116.9 22 106.5 22c-10.403 0-18.836 8.436-18.836 18.841 0 9.37 6.836 17.137 15.79 18.594v10.173c-14.518 1.528-25.871 13.846-25.871 28.765 0 7.416 2.805 14.186 7.407 19.312l-10.17 10.173a18.737 18.737 0 0 0-10.985-3.542c-10.403 0-18.835 8.436-18.835 18.843C45 153.564 53.432 162 63.835 162c10.402 0 18.834-8.436 18.834-18.841 0-4.105-1.314-7.898-3.54-10.992l10.39-10.394a28.75 28.75 0 0 0 16.981 5.529c6.34 0 12.209-2.054 16.98-5.53l10.39 10.395a18.758 18.758 0 0 0-3.54 10.992c0 10.405 8.433 18.841 18.835 18.841 10.403 0 18.835-8.436 18.835-18.841 0-10.407-8.432-18.843-18.835-18.843z" fill="url(#d)" transform="rotate(-30 55.251 74.268)"/><path d="M320.186 821a11.374 11.374 0 0 0-17.373 0l-29.52-17.094a11.44 11.44 0 0 0-3.213-9.774 11.32 11.32 0 0 0-5.08-2.948v-38.017a11.32 11.32 0 0 0 5.08-2.948 11.44 11.44 0 0 0 3.213-9.774L303.418 723l.021.023a11.374 11.374 0 0 0 16.122 0l.023-.023 30.67 17.763c-.915 3.755.087 7.884 3.012 10.817a11.343 11.343 0 0 0 4.734 2.85v35.762a11.343 11.343 0 0 0-4.734 2.851c-2.861 2.87-3.88 6.886-3.064 10.575L320.186 821zm43.987-31.073v-35.562a11.4 11.4 0 0 0 5.463-3.053c4.485-4.488 4.485-11.762 0-16.25-4.484-4.487-11.754-4.487-16.238 0-.041.04-.078.082-.116.123l-30.84-17.816a11.49 11.49 0 0 0-2.996-11.003c-4.485-4.488-11.754-4.488-16.24 0a11.488 11.488 0 0 0-2.996 11.003l-29.804 17.218c-.25-.308-.518-.606-.803-.893-4.484-4.487-11.755-4.487-16.24 0-4.484 4.488-4.484 11.762 0 16.25a11.41 11.41 0 0 0 5.117 2.963v38.203a11.41 11.41 0 0 0-5.117 2.963c-4.484 4.486-4.484 11.761 0 16.248 4.485 4.488 11.756 4.488 16.24 0 .285-.286.553-.583.803-.893l29.61 17.108a11.478 11.478 0 0 0 3.19 10.1c4.486 4.486 11.755 4.486 16.24 0a11.478 11.478 0 0 0 3.19-10.1l30.475-17.607c.095.1.188.203.287.3 4.484 4.488 11.754 4.488 16.238 0 4.485-4.486 4.485-11.761 0-16.25a11.425 11.425 0 0 0-5.463-3.052z" fill="url(#e)" transform="translate(2 -28)"/><path d="M906.36 125.277a18.497 18.497 0 0 0-10.852 3.503l-10.044-10.06c4.545-5.069 7.314-11.764 7.314-19.098 0-14.753-11.212-26.934-25.55-28.445v-10.06c8.842-1.44 15.593-9.121 15.593-18.387 0-10.29-8.33-18.631-18.603-18.631-10.276 0-18.605 8.342-18.605 18.631 0 9.266 6.752 16.947 15.595 18.387v10.06c-14.339 1.511-25.552 13.692-25.552 28.445 0 7.334 2.77 14.03 7.316 19.098l-10.046 10.06a18.492 18.492 0 0 0-10.85-3.503c-10.275 0-18.603 8.343-18.603 18.634 0 10.29 8.328 18.632 18.603 18.632 10.275 0 18.603-8.343 18.603-18.632 0-4.06-1.297-7.81-3.497-10.87l10.263-10.279a28.375 28.375 0 0 0 16.773 5.468 28.37 28.37 0 0 0 16.77-5.468l10.263 10.279a18.565 18.565 0 0 0-3.496 10.87c0 10.29 8.33 18.632 18.604 18.632 10.276 0 18.604-8.343 18.604-18.632 0-10.291-8.328-18.634-18.604-18.634z" fill="url(#f)" transform="rotate(30 917.466 83.053)"/><g transform="translate(2 113.692)"><circle stroke="#026EB8" stroke-width="3" fill="#FFF" cx="47.5" cy="47.5" r="47.5"/><text font-family="Roboto-Medium, Roboto Medium" font-size="50" fill="#026EB8"><tspan x="33.291" y="66">1</tspan></text></g><g transform="translate(859 121)"><circle stroke="#026EB8" stroke-width="3" fill="#FFF" cx="47.5" cy="47.5" r="47.5"/><text font-family="Roboto-Medium, Roboto Medium" font-size="50" fill="#026EB8"><tspan x="33.291" y="66">2</tspan></text></g><g transform="translate(307 648)"><circle stroke="#026EB8" stroke-width="3" fill="#FFF" cx="47.5" cy="47.5" r="47.5"/><text font-family="Roboto-Medium, Roboto Medium" font-size="50" fill="#026EB8"><tspan x="33.291" y="66">3</tspan></text></g></g></svg>