<svg width="304" height="791" xmlns="http://www.w3.org/2000/svg" xmlns:xlink="http://www.w3.org/1999/xlink"><defs><path id="a" d="M0 0h320v847H0z"/><linearGradient x1="110.009%" y1="20.538%" x2="-26.711%" y2="64.387%" id="e"><stop stop-color="#4C8CFF" offset="0%"/><stop stop-color="#026EB8" offset="100%"/></linearGradient><path d="M43.643 156.046c-2.892 3.578-6.999 6.104-11.563 7.112a21 21 0 0 1-4.525.496c-9.362-.001-17.836-6.313-19.987-15.588-1.208-5.21-.266-10.568 2.655-15.085 2.922-4.518 7.47-7.655 12.81-8.834a20.94 20.94 0 0 1 14.046 1.798h.001c5.324 2.73 9.139 7.575 10.466 13.292.336 1.456.508 2.941.51 4.417.006 4.463-1.563 8.865-4.413 12.392zm4.98-47.225a14.654 14.654 0 0 0 5.517 1.073c1.951 0 3.812-.383 5.515-1.072l14.743 25.338a10.187 10.187 0 0 0-3.071 6.661H51.243a23.558 23.558 0 0 0-10.845-17.863l8.226-14.137zm33.825 22.987c-1.411 0-2.757.279-3.986.783l-14.927-25.869a14.905 14.905 0 0 0 5.77-11.79C69.305 86.687 62.624 80 54.383 80c-8.243 0-14.924 6.686-14.924 14.933 0 4.794 2.26 9.057 5.77 11.79l-8.471 14.68a24.245 24.245 0 0 0-14.852-1.342c-6.318 1.43-11.7 5.238-15.157 10.72a24.123 24.123 0 0 0-3.142 18.305C6.15 160.34 16.179 168 27.257 168c1.767 0 3.56-.195 5.354-.601a24.303 24.303 0 0 0 13.683-8.631 24.405 24.405 0 0 0 5.136-13h21.028c1.415 4.162 5.352 7.157 9.99 7.157 5.828 0 10.552-4.726 10.552-10.558s-4.724-10.559-10.552-10.559z" id="d"/><filter x="-13.9%" y="-9.7%" width="127.8%" height="128.4%" filterUnits="objectBoundingBox" id="c"><feOffset dy="4" in="SourceAlpha" result="shadowOffsetOuter1"/><feGaussianBlur stdDeviation="3.5" in="shadowOffsetOuter1" result="shadowBlurOuter1"/><feColorMatrix values="0 0 0 0 0.301011178 0 0 0 0 0.338911243 0 0 0 0 0.402078019 0 0 0 0.333106884 0" in="shadowBlurOuter1"/></filter><linearGradient x1="5.945%" y1="66.857%" x2="93.557%" y2="35.765%" id="f"><stop stop-color="#FFF" offset="0%"/><stop stop-color="#FE8916" offset="100%"/></linearGradient><linearGradient x1="5.945%" y1="66.788%" x2="93.557%" y2="35.823%" id="g"><stop stop-color="#FFF" offset="0%"/><stop stop-color="#FE8916" offset="100%"/></linearGradient><linearGradient x1="108.779%" y1="19.184%" x2="-25.137%" y2="65.049%" id="h"><stop stop-color="#4C8CFF" offset="0%"/><stop stop-color="#026EB8" offset="100%"/></linearGradient><linearGradient x1="5.945%" y1="68.132%" x2="93.557%" y2="34.688%" id="i"><stop stop-color="#FFF" offset="0%"/><stop stop-color="#FE8916" offset="100%"/></linearGradient><linearGradient x1="110.009%" y1="19.184%" x2="-26.711%" y2="65.049%" id="j"><stop stop-color="#4C8CFF" offset="0%"/><stop stop-color="#026EB8" offset="100%"/></linearGradient></defs><g transform="translate(-11 -28)" fill="none" fill-rule="evenodd"><mask id="b" fill="#fff"><use xlink:href="#a"/></mask><g mask="url(#b)" transform="rotate(-37 48 124)"><use fill="#000" filter="url(#c)" xlink:href="#d"/><use fill="url(#e)" xlink:href="#d"/></g><g mask="url(#b)"><g transform="translate(12.526 30)"><circle stroke="#026EB8" stroke-width="2.1" fill="#FFF" cx="33.25" cy="33.25" r="33.25"/><text font-family="Roboto-Medium, Roboto Medium" font-size="35"><tspan x="23.304" y="46" fill="#026EB8">1</tspan></text></g></g><path d="M269.266 182.505c-24.915 46.14-89.171 31.304-123.39 5.719 78.806 71.19 148.197 20.11 150.823-29.327l7.59 5.7-19.833-49.501-15.453 49.38 7.62-5.794c-.44 5.877-2.166 14.211-7.357 23.823" fill="url(#f)" mask="url(#b)" transform="scale(1 -1) rotate(-42 -215.768 0)"/><path d="M96.438 521.677c-20.354 37.615-72.847 25.52-100.802 4.661 64.38 58.04 121.068 16.395 123.213-23.908l6.201 4.647-16.203-40.357-12.624 40.258 6.226-4.723c-.36 4.79-1.77 11.585-6.011 19.422" fill="url(#g)" mask="url(#b)" transform="scale(-1 1) rotate(-62 0 611.28)"/><path d="M71.792 618.62c-8.271 0-15-6.729-15-15 0-8.272 6.729-15 15-15 8.27 0 15 6.728 15 15 0 8.271-6.73 15-15 15zm38.66 12.371a10.813 10.813 0 0 0-6.703 1.246l-15.627-18.835a19.384 19.384 0 0 0 3.046-10.46c0-10.693-8.636-19.392-19.252-19.392-10.617 0-19.254 8.699-19.254 19.393 0 3.848 1.119 7.439 3.045 10.459L40.08 632.237a10.811 10.811 0 0 0-6.702-1.246c-5.983.817-10.176 6.365-9.364 12.39.81 6.026 6.319 10.249 12.3 9.431 5.983-.816 10.175-6.363 9.364-12.39a11 11 0 0 0-2.318-5.427l15.097-18.196c2.995 2.95 6.938 4.927 11.32 5.417v25.303c-7.194.943-13.159 6.629-14.18 14.216-1.22 9.077 5.094 17.433 14.105 18.662 9.011 1.231 17.307-5.13 18.529-14.207 1.22-9.076-5.094-17.43-14.105-18.662l-.075-.008v-25.304c4.382-.49 8.324-2.467 11.32-5.417l15.096 18.196a10.998 10.998 0 0 0-2.317 5.428c-.81 6.026 3.381 11.573 9.364 12.39 5.981.817 11.488-3.406 12.299-9.432.813-6.025-3.381-11.573-9.363-12.39z" fill="url(#h)" mask="url(#b)" transform="rotate(146 71.915 632.05)"/><g mask="url(#b)"><g transform="translate(18 546)"><circle stroke="#026EB8" stroke-width="2.1" fill="#FFF" cx="33.25" cy="33.25" r="33.25"/><text font-family="Roboto-Medium, Roboto Medium" font-size="35"><tspan x="23.304" y="46" fill="#026EB8">2</tspan></text></g></g><path d="M314.81 567.71c-24.4 47.285-106.535 87.293-167.076 66.65 48.543 8.254 128.844-28.082 148.47-77.062l-14.682 3.576 48.212-49.946-10.367 70.812-4.557-14.03" fill="url(#i)" mask="url(#b)" transform="rotate(-70 238.734 575.428)"/><path d="M291.253 806.037c-6.343 0-11.5-5.16-11.5-11.5 0-6.342 5.157-11.5 11.5-11.5 6.34 0 11.5 5.158 11.5 11.5 0 6.34-5.16 11.5-11.5 11.5zm-49.24.715c-6.34 0-11.5-5.159-11.5-11.5 0-6.342 5.16-11.5 11.5-11.5 6.341 0 11.5 5.158 11.5 11.5 0 6.341-5.159 11.5-11.5 11.5zm-11.35-61.238c0-6.342 5.16-11.5 11.5-11.5 6.342 0 11.5 5.158 11.5 11.5 0 6.341-5.158 11.5-11.5 11.5-6.34 0-11.5-5.159-11.5-11.5zm59.874-11.716c6.34 0 11.5 5.159 11.5 11.5 0 6.342-5.16 11.5-11.5 11.5-6.342 0-11.5-5.158-11.5-11.5 0-6.341 5.158-11.5 11.5-11.5zm-33.613 14.219h19.558a15.576 15.576 0 0 0 3.221 7.864l-6.068 6.136c-1.922-1.55-4.324-2.472-6.931-2.472-2.608 0-5.01.921-6.932 2.472l-6.069-6.136a15.576 15.576 0 0 0 3.221-7.864zm-6.693 9.397l6.67 5.947c-1.4 1.856-2.223 4.114-2.223 6.553 0 2.438.824 4.696 2.223 6.553l-6.67 5.947a16.15 16.15 0 0 0-7.33-2.711v-19.578a16.16 16.16 0 0 0 7.33-2.711zm25.895 35.985h-19.558a15.576 15.576 0 0 0-3.221-7.864l6.068-6.136c1.923 1.55 4.324 2.472 6.932 2.472 2.607 0 5.01-.921 6.931-2.472l6.069 6.136a15.576 15.576 0 0 0-3.221 7.864zm6.558-11.629l-6.669-5.947c1.398-1.856 2.223-4.114 2.223-6.553s-.825-4.696-2.223-6.553l6.669-5.947a16.168 16.168 0 0 0 7.331 2.711v19.578a16.158 16.158 0 0 0-7.331 2.711zm9.754-1.602v-19.786c7.223-.878 12.837-7.042 12.837-14.498 0-8.056-6.553-14.609-14.609-14.609-7.456 0-13.62 5.614-14.499 12.836h-19.784c-.879-7.222-7.044-12.836-14.5-12.836-8.055 0-14.608 6.553-14.608 14.609 0 7.456 5.614 13.62 12.836 14.498v19.786c-7.222.878-12.836 7.042-12.836 14.498 0 8.056 6.553 14.609 14.609 14.609 7.455 0 13.62-5.614 14.499-12.837h19.784c.879 7.223 7.043 12.837 14.5 12.837 8.055 0 14.608-6.553 14.608-14.609 0-7.456-5.614-13.62-12.837-14.498z" fill="url(#j)" mask="url(#b)" transform="rotate(30 266.275 770.275)"/><g mask="url(#b)"><g transform="translate(240 674)"><circle stroke="#026EB8" stroke-width="2.1" fill="#FFF" cx="33.25" cy="33.25" r="33.25"/><text font-family="Roboto-Medium, Roboto Medium" font-size="35"><tspan x="23.304" y="46" fill="#026EB8">3</tspan></text></g></g></g></svg>