<svg width="297" height="777" xmlns="http://www.w3.org/2000/svg" xmlns:xlink="http://www.w3.org/1999/xlink"><defs><path id="a" d="M0 0h320v847H0z"/><linearGradient x1="96.686%" y1="39.46%" x2="50%" y2="100%" id="c"><stop stop-color="#FFDF40" offset="0%"/><stop stop-color="#FFBC1E" offset="100%"/></linearGradient><linearGradient x1="5.945%" y1="66.857%" x2="92.135%" y2="36.27%" id="d"><stop stop-color="#FFF" offset="0%"/><stop stop-color="#137E20" offset="100%"/></linearGradient><linearGradient x1="5.945%" y1="66.788%" x2="93.557%" y2="35.823%" id="e"><stop stop-color="#FFF" offset="0%"/><stop stop-color="#137E20" offset="98.377%"/></linearGradient><linearGradient x1="5.945%" y1="68.132%" x2="93.557%" y2="34.688%" id="f"><stop stop-color="#FFF" offset="0%"/><stop stop-color="#137E20" offset="98.377%"/></linearGradient><linearGradient x1="90.826%" y1="39.46%" x2="50%" y2="100%" id="g"><stop stop-color="#FFDF40" offset="0%"/><stop stop-color="#FFBC1E" offset="100%"/></linearGradient></defs><g transform="translate(-11 -28)" fill="none" fill-rule="evenodd"><mask id="b" fill="#fff"><use xlink:href="#a"/></mask><g mask="url(#b)"><path d="M110.862 154.206H91.834c-1.136-5.8-6.275-10.18-12.447-10.18-1.442 0-2.825.243-4.116.684l-3.945-6.784c2.472-1.963 4.059-4.982 4.059-8.37 0-3.39-1.587-6.408-4.059-8.373l2.3-3.953 1.645-2.83a12.74 12.74 0 0 0 4.116.683c6.172 0 11.311-4.38 12.447-10.178h19.028a2.427 2.427 0 0 0 2.435-2.418 2.427 2.427 0 0 0-2.435-2.418H91.834c-1.136-5.8-6.275-10.178-12.447-10.178-1.442 0-2.825.24-4.116.682L65.757 74.21a2.443 2.443 0 0 0-3.326-.886 2.408 2.408 0 0 0-.891 3.303l9.516 16.365c-2.668 2.31-4.355 5.706-4.355 9.495 0 3.79 1.687 7.183 4.355 9.493l-4.134 7.109a10.978 10.978 0 0 0-2.333-.254c-5.124 0-9.41 3.547-10.515 8.302H43.83c-1.136-5.8-6.276-10.179-12.449-10.179-1.195 0-2.35.169-3.445.476l-9.392-16.156a2.443 2.443 0 0 0-3.327-.885 2.408 2.408 0 0 0-.89 3.302l9.26 15.927c-2.974 2.305-4.89 5.897-4.89 9.933 0 4.037 1.916 7.628 4.89 9.933l-9.26 15.926a2.41 2.41 0 0 0 .89 3.303 2.443 2.443 0 0 0 3.327-.885l9.392-16.155a12.75 12.75 0 0 0 3.445.474c6.173 0 11.313-4.38 12.45-10.178h10.243c1.105 4.755 5.39 8.301 10.515 8.301.8 0 1.58-.09 2.333-.254l2.486 4.278 1.648 2.83c-2.668 2.31-4.355 5.706-4.355 9.496 0 3.788 1.687 7.183 4.355 9.493l-9.516 16.366a2.409 2.409 0 0 0 .891 3.303 2.437 2.437 0 0 0 3.325-.885l9.515-16.363a12.73 12.73 0 0 0 4.116.681c6.172 0 11.311-4.379 12.447-10.177h19.028a2.427 2.427 0 0 0 2.435-2.418 2.426 2.426 0 0 0-2.435-2.418" fill="#FFBC1E" opacity=".665"/><g transform="translate(12.526 30)"><circle stroke="#1E642E" stroke-width="2.1" fill="#FFF" cx="33.25" cy="33.25" r="33.25"/><text font-family="Roboto-Medium, Roboto Medium" font-size="35" fill="#1E642E"><tspan x="23.304" y="46">1</tspan></text></g></g><g mask="url(#b)"><path d="M96.02 564.07c-6.342 0-11.501-5.16-11.501-11.501 0-6.34 5.159-11.5 11.5-11.5 6.342 0 11.5 5.16 11.5 11.5 0 6.341-5.158 11.5-11.5 11.5zm32.385 7.102a8.632 8.632 0 0 0-4.973 1.567l-13.465-12.232a15.173 15.173 0 0 0 2.142-7.785c0-2.225-.484-4.34-1.345-6.25l6.585-5.171a8.641 8.641 0 0 0 5.47 1.94c4.776 0 8.648-3.852 8.648-8.603 0-4.751-3.872-8.604-8.648-8.604-4.775 0-8.647 3.853-8.647 8.604 0 1.341.309 2.612.86 3.743l-6.22 4.883a15.414 15.414 0 0 0-12.114-5.874c-2.38 0-4.634.54-6.648 1.503L71.428 522.41a8.518 8.518 0 0 0 1.097-4.194c0-4.751-3.871-8.603-8.646-8.603-4.776 0-8.648 3.852-8.648 8.603 0 4.751 3.872 8.604 8.648 8.604 1.891 0 3.64-.606 5.063-1.632l17.852 15.802c-3.364 2.814-5.506 7.029-5.506 11.732 0 3.68 1.31 7.06 3.49 9.704l-20.431 20.33a8.635 8.635 0 0 0-4.646-1.35c-4.777 0-8.649 3.852-8.649 8.603 0 4.752 3.872 8.604 8.649 8.604 4.775 0 8.646-3.852 8.646-8.604a8.521 8.521 0 0 0-1.357-4.623L87.478 565a15.384 15.384 0 0 0 9.22 3.054c4.296 0 8.184-1.759 10.981-4.588l13.231 12.02a8.532 8.532 0 0 0-1.152 4.288c0 4.752 3.872 8.604 8.647 8.604 4.776 0 8.647-3.852 8.647-8.604 0-4.752-3.871-8.603-8.647-8.603z" fill="url(#c)" transform="rotate(165 84.55 591.52)"/><g transform="translate(18 546)"><circle stroke="#1E642E" stroke-width="2.1" fill="#FFF" cx="33.25" cy="33.25" r="33.25"/><text font-family="Roboto-Medium, Roboto Medium" font-size="35" fill="#1E642E"><tspan x="23.304" y="46">2</tspan></text></g><path d="M278.266 106.505c-24.915 46.14-89.171 31.304-123.39 5.719 78.806 71.19 148.197 20.11 150.823-29.327l7.59 5.7-19.833-49.501-15.453 49.38 7.62-5.794c-.44 5.877-2.166 14.211-7.357 23.823" fill="url(#d)" transform="scale(1 -1) rotate(-42 -112.275 -26.277)"/><path d="M105.438 445.677c-20.354 37.615-72.847 25.52-100.802 4.661 64.38 58.04 121.068 16.395 123.213-23.908l6.201 4.647-16.203-40.357-12.624 40.258 6.226-4.723c-.36 4.79-1.77 11.585-6.011 19.422" fill="url(#e)" transform="scale(-1 1) rotate(-62 67.743 580.768)"/></g><path d="M314.81 567.71c-24.4 47.285-106.535 87.293-167.076 66.65 48.543 8.254 128.844-28.082 148.47-77.062l-14.682 3.576 48.212-49.946-10.367 70.812-4.557-14.03" fill="url(#f)" mask="url(#b)" transform="rotate(-70 238.734 575.428)"/><path d="M267.364 792.16a6.977 6.977 0 0 0-10.648 0l-18.093-10.466a7 7 0 0 0-5.083-7.789V750.63a7 7 0 0 0 5.083-7.79l18.463-10.68.013.014a6.977 6.977 0 0 0 9.881 0l.014-.014 18.799 10.875a7.007 7.007 0 0 0 4.747 8.369v21.895a7.004 7.004 0 0 0-4.78 8.22l-18.396 10.641zm27.23-19.079v-21.544a6.964 6.964 0 0 0 3.332-1.85 6.932 6.932 0 0 0 0-9.845 7.03 7.03 0 0 0-9.901 0c-.026.024-.048.05-.071.075l-18.805-10.794a6.93 6.93 0 0 0-1.827-6.666 7.03 7.03 0 0 0-9.902 0 6.928 6.928 0 0 0-1.827 6.666l-18.173 10.431a7.242 7.242 0 0 0-.49-.54 7.03 7.03 0 0 0-9.902 0 6.934 6.934 0 0 0 0 9.844 6.968 6.968 0 0 0 3.12 1.795v23.145a6.968 6.968 0 0 0-3.12 1.795 6.933 6.933 0 0 0 0 9.844 7.028 7.028 0 0 0 10.392-.541l18.055 10.365a6.925 6.925 0 0 0 1.945 6.118 7.032 7.032 0 0 0 9.902 0 6.925 6.925 0 0 0 1.945-6.118l18.583-10.667c.057.06.114.123.175.182a7.029 7.029 0 0 0 9.9 0 6.932 6.932 0 0 0 0-9.845 6.979 6.979 0 0 0-3.33-1.85z" fill="url(#g)" mask="url(#b)" transform="rotate(-61 262.477 761.918)"/><g mask="url(#b)"><g transform="translate(240 674)"><circle stroke="#1E642E" stroke-width="2.1" fill="#FFF" cx="33.25" cy="33.25" r="33.25"/><text font-family="Roboto-Medium, Roboto Medium" font-size="35"><tspan x="23.304" y="46" fill="#1E642E">3</tspan></text></g></g></g></svg>