<svg xmlns="http://www.w3.org/2000/svg" xmlns:xlink="http://www.w3.org/1999/xlink" width="478" height="459" opacity=".23"><defs><path id="a" d="M.06 0h399.546v427.394H.06z"/><path id="c" d="M.06 0h336.91v126.715H.06z"/><path id="e" d="M.06.548h406.873v203.448H.06z"/><path id="g" d="M.06.662h345.493v22.667H.06z"/><path id="i" d="M.06.47h87.577v145.193H.06z"/><path id="k" d="M.06.884h347.588v320.028H.06z"/><path id="m" d="M.06.419h72.756v93.756H.06z"/><path id="o" d="M.06.863h57.832v170.63H.06z"/><path id="q" d="M.06.378h75.598v160.613H.06z"/><path id="s" d="M.06.222h87.263V253.91H.06z"/><path id="u" d="M.06.444h22.58v95.539H.06z"/><path id="w" d="M.06.682H64.8v40.265H.06z"/></defs><g fill="none" fill-rule="evenodd"><path fill="#FFFFFE" d="M194.428 173.462L189 222.31l46.823 12.894.531-1.928-45.178-12.44 5.239-47.153-1.987-.22"/><g transform="translate(0 .462)"><mask id="b" fill="#fff"><use xlink:href="#a"/></mask><path fill="#FFFFFE" d="M24.186 427.349l43.428-46-1.454-1.373-43.428 46M172.778-11.373l40.386 49.656-9.352 60.79 34.439 28.362 1.272-1.544-33.561-27.639 9.314-60.543-40.947-50.344-1.551 1.262m135.775 121.344l-1.396-56.378 29.545-34.621 62.904-3.311-.105-1.997-63.763 3.356-30.599 35.857 1.415 57.144 1.999-.05" mask="url(#b)"/><path fill="#FFFFFE" d="M284.792-25.248l50.773 44 1.31-1.512-50.774-44m-390.832 144.384l50.925-14.55 41.882 24.318 29.308-57.934L4.636 13.773l-1.949.446L15.273 69.2l-28.025 55.399-40.786-23.682-51.742 14.784.549 1.923M23.627 425.932l-40.74-9.372-40.835 9.372.336 1.462 40.499-9.295 40.404 9.295.336-1.462M148.34 304.816l-28.333 30.167 1.093 1.026 28.334-30.166M-8.335 209.167l28 30.833 1.11-1.008-28-30.833-1.11 1.008" mask="url(#b)"/></g><path fill="#FFFFFE" d="M130.973 173.297l-30.946-5.264 18.86-19.828-10.477-26.443 32.253-27.152-.966-1.148-33.08 27.848 10.523 26.556L97 169.04l33.721 5.736.252-1.478"/><path fill="#FFFFFE" d="M63 94.738l44.5 27.5.789-1.276-44.5-27.5L63 94.738m106.453 50.937l8.907-34.638 26.987-11.19-.574-1.385-27.68 11.477L168 145.301l1.453.374m44.512-108.582l-33.083 21.174-49.826-9.3-50.36 6.604-14.291-38.109-1.405.526 14.709 39.225 51.306-6.729 50.175 9.366 33.584-21.493-.809-1.264m-50.909 212.935l27.761-27.5-1.056-1.066-27.761 27.5m75.194-13.816l26.497-34.889 48.819 18.226-12.903 43.011 24.711 34.965 1.225-.866-24.289-34.368 13.097-43.656-51.181-19.107L236 234.24l1.194.907"/><path fill="#FFFFFE" d="M254.437 275.897l46-14-.437-1.435-46 14 .437 1.435"/><g transform="translate(0 .462)"><mask id="d" fill="#fff"><use xlink:href="#c"/></mask><path fill="#FFFFFE" d="M306.201 52.487l-46-3.239-.106 1.496 46 3.239m29.375-35.987h1.5V0h-1.5zM47.495 74.688l-29.927-5.88 18.22-27.734-1.253-.823L15.089 69.85l32.117 6.31.289-1.472M25.45 114.109l-38 11.167.423 1.439 38-11.166-.423-1.44" mask="url(#d)"/></g><path fill="#FFFFFE" d="M67 380.882l13.167 28.452.907-.419-13.166-28.453M116 402.541l2.996 37.872.996-.079-2.995-37.872M149 305.326l32 18.667.504-.864-32-18.667-.504.864M65.649 18.45l12-10.227-.649-.76-12 10.225m15.5 38.774L55 62.557l.233.973 25.5-6.095-.233-.973m14.149 42.485l12.462 22.487L86 140.548l.671.741 21.699-19.647-12.847-23.18-.874.485"/><path fill="#798B9E" d="M239 126.462l24.166 9.333"/><path fill="#FFFFFE" d="M239 127.395l24.166 9.333.361-.932-24.167-9.334m37.739 95.733l-12.888-22.368 12.842-15.733-.775-.632L263 199.73l13.232 22.966.867-.5m59.803-7.734L313 217.213l17.425 32.15.879-.476-16.719-30.85 22.431-2.582-.114-.993"/><g transform="translate(0 14.462)"><mask id="f" fill="#fff"><use xlink:href="#e"/></mask><path fill="#FFFFFE" d="M399.067.777l6.893 29.239.973-.229L400.04.548M1.554 194.663c0 5.154-4.179 9.333-9.334 9.333a9.333 9.333 0 0 1-9.333-9.333 9.334 9.334 0 0 1 18.667 0" mask="url(#f)"/></g><path fill="#FFFFFE" d="M44.666 173.795a9.332 9.332 0 0 1-9.333 9.333A9.332 9.332 0 0 1 26 173.795a9.332 9.332 0 0 1 9.333-9.333 9.332 9.332 0 0 1 9.333 9.333m-5.999 141.001A9.334 9.334 0 1 1 20 314.795a9.334 9.334 0 0 1 18.667.001m38 66a9.333 9.333 0 0 1-9.333 9.333 9.334 9.334 0 1 1 9.333-9.333m-44 46a9.333 9.333 0 0 1-9.333 9.333 9.334 9.334 0 1 1 9.333-9.333m50.214-17.893a2.44 2.44 0 1 1-4.882-.002 2.44 2.44 0 0 1 4.882.002m38.999 31.999a2.44 2.44 0 1 1-4.88.002 2.44 2.44 0 0 1 4.88-.002m62-117a2.44 2.44 0 1 1-4.879.001 2.44 2.44 0 0 1 4.879 0m-95-183.001a2.44 2.44 0 1 1-4.88.002 2.44 2.44 0 0 1 4.88-.002m9-41.999a2.44 2.44 0 1 1-4.88 0 2.44 2.44 0 0 1 4.88 0M56.881 62.902a2.44 2.44 0 1 1-4.88 0 2.44 2.44 0 0 1 4.88 0m23-54.999A2.44 2.44 0 1 1 75 7.902a2.44 2.44 0 0 1 4.881.001m186 127.999a2.44 2.44 0 1 1-4.88 0 2.44 2.44 0 0 1 4.88 0m12.999 47a2.44 2.44 0 1 1-4.88.002 2.44 2.44 0 0 1 4.88-.002m0 39a2.44 2.44 0 1 1-4.879.001 2.44 2.44 0 0 1 4.879 0m60-7.001a2.44 2.44 0 1 1-4.88.002 2.44 2.44 0 0 1 4.88-.002m-5.999 35a2.44 2.44 0 1 1-4.88 0 2.44 2.44 0 0 1 4.88 0m76-206a2.44 2.44 0 1 1-4.882 0 2.44 2.44 0 0 1 4.882 0M26.19 239.557a6.095 6.095 0 1 1-12.19 0 6.095 6.095 0 0 1 12.19 0m78.999-71a6.095 6.095 0 1 1-12.19 0 6.095 6.095 0 0 1 12.19 0m9-47a6.095 6.095 0 1 1-12.19 0 6.095 6.095 0 0 1 12.19 0m-45-27a6.095 6.095 0 1 1-12.19 0 6.095 6.095 0 0 1 12.19 0m17-38a6.094 6.094 0 1 1-12.19 0 6.094 6.094 0 0 1 12.19 0m-14-38a6.095 6.095 0 1 1-12.19 0 6.095 6.095 0 0 1 12.19 0m112 92a6.095 6.095 0 1 1-12.19 0 6.095 6.095 0 0 1 12.19 0m-47-60a6.094 6.094 0 1 1-12.189 0 6.095 6.095 0 0 1 12.189 0m50 8.999a6.094 6.094 0 1 1-12.189.001 6.094 6.094 0 0 1 12.189 0m-12 86a6.095 6.095 0 1 1-12.19 0 6.095 6.095 0 0 1 12.19 0m-51 3a6.095 6.095 0 1 1-12.19 0 6.095 6.095 0 0 1 12.19 0m3 187a6.095 6.095 0 1 1-12.19 0 6.095 6.095 0 0 1 12.19 0m133-60.001a6.095 6.095 0 1 1-12.19 0 6.095 6.095 0 0 1 12.19 0m-90.999-25.999a6.095 6.095 0 1 1-12.19 0 6.095 6.095 0 0 1 12.19 0m97-199a6.095 6.095 0 1 1-12.19 0 6.095 6.095 0 0 1 12.19 0m-225.001-10a6.094 6.094 0 1 1-12.188 0 6.094 6.094 0 0 1 12.188 0m13 35a6.094 6.094 0 1 1-12.19 0 6.094 6.094 0 0 1 12.19 0m-22 38.999a6.094 6.094 0 1 1-12.189.001 6.094 6.094 0 0 1 12.189 0m237 84.999a6.095 6.095 0 1 1-12.19 0 6.095 6.095 0 0 1 12.19 0m50 19.001a6.095 6.095 0 1 1-12.19 0 6.095 6.095 0 0 1 12.19 0m-13 42.999a6.095 6.095 0 1 1-12.19 0 6.095 6.095 0 0 1 12.19 0m25 35.001a6.095 6.095 0 1 1-12.19 0 6.095 6.095 0 0 1 12.19 0M125.667 402.795a9.333 9.333 0 0 1-9.333 9.333 9.333 9.333 0 1 1 0-18.666 9.333 9.333 0 0 1 9.333 9.333m32.999-97a9.333 9.333 0 1 1-18.666 0 9.333 9.333 0 1 1 18.666 0m-61.999-99.999a9.332 9.332 0 0 1-9.333 9.333 9.334 9.334 0 1 1 9.333-9.333m102.999 15.999a9.332 9.332 0 0 1-9.333 9.333 9.333 9.333 0 1 1 0-18.666 9.332 9.332 0 0 1 9.333 9.333m46 13.001a9.333 9.333 0 1 1-18.666 0 9.333 9.333 0 0 1 18.666 0m-40.999-61.001a9.333 9.333 0 0 1-9.334 9.333 9.333 9.333 0 1 1 0-18.666 9.333 9.333 0 0 1 9.334 9.333m-64.001 0a9.333 9.333 0 0 1-9.333 9.333 9.332 9.332 0 0 1-9.333-9.333 9.332 9.332 0 0 1 9.333-9.333 9.333 9.333 0 0 1 9.333 9.333m9-80a9.332 9.332 0 0 1-9.333 9.333 9.333 9.333 0 1 1 0-18.666 9.332 9.332 0 0 1 9.333 9.333m65.001 5.001A9.334 9.334 0 1 1 196 98.795a9.334 9.334 0 0 1 18.667.001m8.999-61.001a9.332 9.332 0 0 1-9.333 9.333 9.333 9.333 0 1 1 0-18.666 9.332 9.332 0 0 1 9.333 9.333m92 16.001a9.333 9.333 0 1 1-18.666 0 9.333 9.333 0 1 1 18.666 0m1.001 55.999a9.333 9.333 0 0 1-9.334 9.333 9.333 9.333 0 1 1 0-18.666 9.333 9.333 0 0 1 9.334 9.333m-68 17.001a9.334 9.334 0 1 1-18.667-.001 9.334 9.334 0 0 1 18.667.001m160-112A9.334 9.334 0 1 1 390 14.795a9.334 9.334 0 0 1 18.667.001"/><g transform="translate(0 4.462)"><mask id="h" fill="#fff"><use xlink:href="#g"/></mask><path fill="#FFFFFE" d="M345.553 13.996a9.332 9.332 0 0 1-9.333 9.333 9.333 9.333 0 1 1 0-18.666 9.332 9.332 0 0 1 9.333 9.333m-332.558-4a9.333 9.333 0 0 1-9.333 9.333 9.334 9.334 0 1 1 9.333-9.333" mask="url(#h)"/></g><path fill="#FFFFFE" d="M25.666 69.795a9.333 9.333 0 1 1-18.666 0 9.332 9.332 0 0 1 9.333-9.333 9.332 9.332 0 0 1 9.333 9.333M101 270.462c0 7.732-6.268 14-14 14s-14-6.268-14-14 6.268-14 14-14 14 6.268 14 14m60.572-21L148 305.295l1.458.354 13.572-55.833"/><g transform="translate(0 125.462)"><mask id="j" fill="#fff"><use xlink:href="#i"/></mask><path fill="#FFFFFE" d="M86.137 145.663h1.5V80.996h-1.5zM-12.873 1.522l47.225 48 1.069-1.052-47.225-48-1.069 1.052" mask="url(#j)"/></g><path fill="#FFFFFE" d="M238.334 126.462L195 173.795l1.107 1.013 43.333-47.333-1.106-1.013m132.358 206.273l20.326-32.206-1.691-1.067L369 331.668"/><path fill="#FFFFFE" d="M407.432 332.576l-38.499-1.114L347 345.426l.805 1.266 21.545-13.717 38.038 1.1.044-1.499"/><path fill="#FFFFFE" d="M378.219 358.735l-8.265-26.273-.954.3 8.265 26.273m-33.71-8.413a6.095 6.095 0 1 0 9.08-8.131 6.095 6.095 0 0 0-9.08 8.131m-48.001-15a6.095 6.095 0 0 0 9.08-8.132 6.095 6.095 0 0 0-9.08 8.132"/><path fill="#FFFFFE" d="M376.515 359.828a2.02 2.02 0 1 0 3.01-2.695 2.02 2.02 0 0 0-3.01 2.695m30-24.999a2.019 2.019 0 1 0 3.008-2.693 2.019 2.019 0 0 0-3.008 2.693m-42.545 2.51a7.724 7.724 0 1 0 11.506-10.307 7.724 7.724 0 0 0-11.506 10.307m20-31.999a7.723 7.723 0 1 0 11.506-10.308 7.723 7.723 0 0 0-11.505 10.308"/><g transform="translate(0 26.462)"><mask id="l" fill="#fff"><use xlink:href="#k"/></mask><path fill="#FFFFFE" d="M323.942 269.561l-25.8 36.293 49.066 15.058.44-1.434-47.08-14.448 24.597-34.599-1.223-.87" mask="url(#l)"/><path fill="#8696A6" d="M0 33.854v-3.521l9.258-13.41.605 2.644L0 33.854m11.404-16.519l-.606-2.644L20.33.884a7.686 7.686 0 0 0 1.645 1.137L11.404 17.335" mask="url(#l)"/></g><path fill="#FFFFFE" d="M10.605 45.338L10 42.694l1.54-2.232.606 2.644-1.541 2.232"/><path fill="#8696A6" d="M86.53 39.144l-13.337-3.676-.868-2.314 14.735 4.061a7.718 7.718 0 0 0-.53 1.93m-15.124-4.169L33 24.39a7.746 7.746 0 0 0 .53-1.928l37.008 10.2.868 2.314"/><g transform="translate(0 32.462)"><mask id="n" fill="#fff"><use xlink:href="#m"/></mask><path fill="#FFFFFE" d="M72.816 3.226l-1.787-.492-.868-2.315 1.787.493.868 2.314" mask="url(#n)"/><path fill="#8696A6" d="M49.68 94.175l-15.249-6.864c.321-.577.597-1.186.819-1.825l15.25 6.865a7.674 7.674 0 0 0-.82 1.824M12.943 79.441L0 75.731V73.65l13.492 3.868a11.658 11.658 0 0 0-.549 1.923" mask="url(#n)"/></g><path fill="#8696A6" d="M41.515 257.796a7.77 7.77 0 0 0-1.997-.096l2.203-46.766a7.78 7.78 0 0 0 1.998.096l-2.204 46.766m-3.916-59.907l-11.688-15.085 1.553-1.262 11.716 15.122a7.777 7.777 0 0 0-1.581 1.225m-12.913-16.667L8 159.687a7.756 7.756 0 0 0 1.582-1.225l16.657 21.5-1.553 1.26"/><path fill="#FFFFFE" d="M25.225 183.305L24 181.723l1.553-1.26 1.225 1.58-1.553 1.262"/><path fill="#8696A6" d="M103.144 224.41l-8.065-13.446a9.304 9.304 0 0 0 1.045-2.147l8.734 14.563a7.724 7.724 0 0 0-1.714 1.03m-14.325-27.77a9.364 9.364 0 0 0-2.386-.09L81 187.49a7.745 7.745 0 0 0 1.715-1.029l6.104 10.177"/><path fill="#FFFFFE" d="M94.646 210.915L86 196.5a9.346 9.346 0 0 1 2.386.09l7.305 12.178a9.304 9.304 0 0 1-1.045 2.147"/><path fill="#8696A6" d="M123.483 193.443l-12.815-3.346 2.092-1.52 11.227 2.93a7.827 7.827 0 0 0-.504 1.936m-15.317-3.999L85 183.397a7.75 7.75 0 0 0 .504-1.935l24.753 6.461-2.091 1.521"/><path fill="#FFFFFE" d="M110.502 190.636l-2.502-.653 2.091-1.52 2.503.652-2.092 1.521"/><path fill="#8696A6" d="M20.619 15.672L11 .462h2.366l8.943 14.141a7.794 7.794 0 0 0-1.69 1.07M44.882 365.92a7.705 7.705 0 0 0-.882-1.797l9.957-4.882.987 1.744-10.062 4.934m11.861-5.816l-.987-1.744 28.343-13.897c.215.636.512 1.24.881 1.795l-28.237 13.846"/><path fill="#FFFFFE" d="M54.987 361.088L54 359.344l1.799-.882.987 1.744-1.799.882"/><path fill="#8696A6" d="M91.999 334.461a7.692 7.692 0 0 0-1.999-.06l1.465-50.036a13.85 13.85 0 0 0 2.027-.903l-1.493 51"/><path fill="#FFFFFE" d="M92 283.645l.122-4.183a7.692 7.692 0 0 0 1.999.061l-.094 3.22a13.85 13.85 0 0 1-2.027.902"/><path fill="#8696A6" d="M101.412 268.913a13.767 13.767 0 0 0-.412-2.05l17.363-9.4a7.78 7.78 0 0 0 .953 1.757l-17.904 9.693"/><path fill="#FFFFFE" d="M99.953 268.88a7.765 7.765 0 0 0-.953-1.758l1.219-.66c.187.665.326 1.35.412 2.051l-.678.367"/><path fill="#8696A6" d="M230.87 368.267l-29.379-19.565a7.697 7.697 0 0 0 1.109-1.664l29.379 19.565a7.697 7.697 0 0 0-1.109 1.664m-37.776-31.926l-5.638-26.444a7.663 7.663 0 0 0 1.956-.417l5.638 26.443a7.655 7.655 0 0 0-1.956.418m-9.936-40.936L180 287.18a7.718 7.718 0 0 0 1.867-.718l3.157 8.225a7.727 7.727 0 0 0-1.866.718m-21.271 65.393a7.74 7.74 0 0 0-.887-1.793l27.388-13.543c.218.636.517 1.238.888 1.793l-27.389 13.543m100.599-48.658A7.781 7.781 0 0 0 261 310.8l17.186-19.092c.436.508.935.958 1.487 1.338l-17.187 19.092m23.03-33.038a7.708 7.708 0 0 0-1.458-.138l-.168.001a9.04 9.04 0 0 0-.371.017l.739-12.16 2.041-.623-.783 12.903m-1.161-13.879l2.17-35.76c.473.091.961.138 1.46.138.055 0 .111 0 .167-.002.124-.002.247-.008.37-.016l-2.126 35.02-2.041.62"/><path fill="#FFFFFE" d="M284 266.681l.097-1.598 2.041-.62-.097 1.596-2.041.622"/><path fill="#8696A6" d="M222.264 255.293l-.002-.138a7.736 7.736 0 0 0-.262-1.845l30.256-4.058.001.137c.014.638.104 1.256.263 1.845l-30.256 4.06m43.852-10.759a7.758 7.758 0 0 0-1.41-1.418l16.758-16.655a7.795 7.795 0 0 0 1.41 1.42l-16.758 16.653M58.5 120.852a7.753 7.753 0 0 0-1.5 0V64.568a2.436 2.436 0 0 0 .669-1.679l-.001-.068.832-.199v28.373a6.064 6.064 0 0 0-.866 3.133c0 1.146.316 2.217.866 3.133v23.59M57.436 61.85a2.433 2.433 0 0 0-.436-.637v-9.75a5.09 5.09 0 0 0 1.5.001v10.131l-1.064.255"/><path fill="#FFFFFE" d="M57.232 62.69a2.433 2.433 0 0 0-.232-.973l1.064-.255v1.03l-.832.198m-1.066 2.13v-3.358a2.433 2.433 0 0 1 .668 1.61v.068a2.44 2.44 0 0 1-.669 1.68"/><g transform="translate(0 90.462)"><mask id="p" fill="#fff"><use xlink:href="#o"/></mask><path fill="#FFFFFE" d="M57.825 7.129a6.064 6.064 0 0 1-.866-3.133c0-1.146.316-2.217.866-3.133v6.266" mask="url(#p)"/><path fill="#8696A6" d="M33.086 171.493L0 145.924v-.627a5.06 5.06 0 0 0 .575-.824l33.429 25.834a7.77 7.77 0 0 0-.918 1.186M.921 140.326a5.06 5.06 0 0 0-.707-1.323l6.372-3.406 1.039 1.145-6.704 3.584m8.068-4.313l-1.04-1.145 13.613-7.277c.17.475.409.921.708 1.323l-13.281 7.099" mask="url(#p)"/></g><path fill="#FFFFFE" d="M8.039 226.336L7 225.191l1.363-.729 1.04 1.145-1.364.73"/><path fill="#8696A6" d="M23.253 211.5L19 203.005c.48-.157.932-.385 1.341-.673l4.253 8.493a5.067 5.067 0 0 0-1.341.673m11.459-9.033l-12.534-2.533c.088-.243.159-.496.209-.758.047-.238.076-.476.088-.713l12.534 2.534a7.895 7.895 0 0 0-.297 1.47m43.295 57.949L69 252.594c.38-.323.712-.704.984-1.132l9.244 8.026c-.424.286-.832.596-1.221.926"/><path fill="#FFFFFE" d="M86.302 267.596L78 260.388c.389-.33.797-.64 1.221-.926l7.081 6.148v1.986"/><path fill="#FFFFFE" d="M86.456 267.844l-.456-.396v-1.986l1.44 1.25a7.714 7.714 0 0 0-.984 1.132"/><path fill="#8696A6" d="M70.082 245.236a5.04 5.04 0 0 0-1.082-1.04l9.345-9.734a5.04 5.04 0 0 0 1.082 1.04l-9.345 9.734m16.013 91.234l-19.903-24.98c.434-.25.83-.565 1.173-.934l19.903 24.978a7.865 7.865 0 0 0-1.173.935m-27.19-30.999l-8.652-4.536 1.311-1.006 8.037 4.213a5.024 5.024 0 0 0-.696 1.33m-10.604-5.56L29 289.791c.292-.399.529-.845.696-1.329l19.917 10.442-1.312 1.007"/><path fill="#FFFFFE" d="M49.952 300.492L48 299.47l1.312-1.007 1.951 1.024-1.311 1.006"/><path fill="#8696A6" d="M1.023 287.267A5.01 5.01 0 0 0 1 285.768l18.911-.306a5.05 5.05 0 0 0 .023 1.5l-18.911.305m72.37-112.683L64 157.175a5.06 5.06 0 0 0 1.32-.713l9.393 17.41a7.775 7.775 0 0 0-1.32.712m87.626 26.023c.07-.51.061-1.015-.019-1.5l30.784-.432-.167 1.503-30.598.43m32.613-.459l.167-1.502 13.205-.185c-.07.51-.06 1.014.02 1.5l-13.392.187"/><path fill="#FFFFFE" d="M192 199.993l.167-1.503 2.015-.028-.167 1.502-2.015.03"/><path fill="#8696A6" d="M150.823 199.705L138 197.145a7.852 7.852 0 0 0 .294-1.472l12.822 2.561a5.073 5.073 0 0 0-.293 1.471m61.768-5.53a5.104 5.104 0 0 0-1.5-.002v-35.859l1.5-1.638v37.498m-1.5-38.08v-1.632a5.09 5.09 0 0 0 1.49.002l-1.49 1.63"/><path fill="#FFFFFE" d="M212 158.313v-2.22l1.49-1.63h.01v2.212l-1.5 1.638"/><path fill="#8696A6" d="M226.988 165.356L216 153.572l1.016-1.11 11.07 11.872a5.047 5.047 0 0 0-1.098 1.022"/><path fill="#FFFFFE" d="M215.345 153.854l-.345-.37a5.047 5.047 0 0 0 1.098-1.022l.263.282-1.016 1.11"/><path fill="#8696A6" d="M209.5 144.981l-2.5-7.014a5.018 5.018 0 0 0 1.413-.505l2.499 7.014a5.054 5.054 0 0 0-1.412.505M153.039 335.14a5.075 5.075 0 0 0-1.039-1.082l17.046-16.393 1.347.786-17.354 16.69m18.103-17.41l-1.346-.786 10.901-10.483c.309.392.657.754 1.038 1.082l-10.593 10.186"/><path fill="#FFFFFE" d="M170.347 318.968l-1.347-.786.75-.72 1.346.785-.749.721"/><path fill="#8696A6" d="M183.429 386.093a5.018 5.018 0 0 0-1.429-.453l11.176-35.178c.453.194.931.346 1.43.453l-11.177 35.178m38.974-90.683a5.008 5.008 0 0 0-1.403-.53l7.189-19.07c.433.243.905.423 1.404.53l-7.19 19.07m12.707-26.36a5.028 5.028 0 0 0-.892-1.208l19.488-14.38c.258.431.557.835.891 1.206L235.11 269.05m60.863 44.39L287 294.428a7.72 7.72 0 0 0 1.356-.64l8.973 19.011a5.011 5.011 0 0 0-1.356.641m-3.866-26.738a7.673 7.673 0 0 0-.231-1.482l22.043-3.464.965 1.367-22.777 3.58m24.43-3.84l-.965-1.367 12.945-2.034.001.074c.01.49.09.963.23 1.408l-12.211 1.92"/><path fill="#FFFFFE" d="M314.965 283.09l-.965-1.368 1.653-.26.965 1.367-1.653.26"/><path fill="#8696A6" d="M293.261 216.21a7.702 7.702 0 0 0-1.261-.812l2.33-3.626 1.438.537-2.507 3.901m3.337-5.193l-1.438-.537 8.365-13.018c.375.33.8.605 1.261.812l-8.188 12.743"/><path fill="#FFFFFE" d="M295.438 212.291l-1.438-.537.83-1.292 1.438.537-.83 1.292"/><path fill="#8696A6" d="M29.865 15.192A7.554 7.554 0 0 0 29 14.69L37.248.462h1.156l-8.539 14.73M97.91 32.823a7.72 7.72 0 0 0-.91-.414l6.367-13.947c.248.2.547.345.881.41l.029.005-6.367 13.946m-36.073 89.262a7.673 7.673 0 0 0-.837-.548l13.11-20.047.851.526-13.124 20.07m13.945-21.326l-.851-.526 9.007-13.772c.224.244.509.435.837.547l-8.993 13.751"/><g transform="translate(0 100.462)"><mask id="r" fill="#fff"><use xlink:href="#q"/></mask><path fill="#FFFFFE" d="M74.837 2.16l-.851-.526.821-1.256.851.526-.821 1.256" mask="url(#r)"/><path fill="#8696A6" d="M.724 160.991L0 156.846v-5.808l1.709 9.781a2.017 2.017 0 0 0-.985.172" mask="url(#r)"/></g><path fill="#8696A6" d="M29.53 365.071L8 355.374a2 2 0 0 0 .403-.873l.008-.039 21.528 9.697a7.721 7.721 0 0 0-.409.912m100.32-116.68a7.5 7.5 0 0 0-.85-.527l11.406-18.402c.229.24.518.423.849.527l-11.405 18.402m33.079-34.808l-4.777-8.916c.31-.128.605-.287.882-.473l4.777 8.917a2.018 2.018 0 0 0-.882.472m-4.961-18.309a5.004 5.004 0 0 0-.968-.25l4.298-16.562a2.01 2.01 0 0 0 .969.251l-4.299 16.561m70.31 17.996L216 202.324c.246-.225.469-.475.667-.746l12.277 10.944a2.015 2.015 0 0 0-.666.746m-10.871-16.145a5.08 5.08 0 0 0-.389-.92l18.377-7.742c.051.338.186.654.389.921l-18.377 7.741m38.872-25.443L235 169.456l.01-.053a4.97 4.97 0 0 0 .094-.94l21.279 2.223a2.024 2.024 0 0 0-.104.994m-14.367 193.04a7.66 7.66 0 0 0-.912-.412l6.255-13.846c.246.197.543.34.874.404l.037.007-6.254 13.846M25.734 28.912a7.797 7.797 0 0 1-3.538-.853 7.717 7.717 0 0 1-4.051-8.352 7.69 7.69 0 0 1 2.64-4.459 7.794 7.794 0 0 1 1.69-1.069 7.695 7.695 0 0 1 4.73-.573 7.745 7.745 0 0 1 2.819 1.162 7.726 7.726 0 0 1-4.29 14.144m78.288-9.41a2.01 2.01 0 0 1-.36-.033l-.029-.005a2.018 2.018 0 0 1 .774-3.964 2.02 2.02 0 0 1-.385 4.002"/><g transform="translate(0 83.462)"><mask id="t" fill="#fff"><use xlink:href="#s"/></mask><path fill="#8696A6" d="M85.306 4.262a2.06 2.06 0 0 1-.655-.109 2.017 2.017 0 0 1-1.329-2.298 2.02 2.02 0 1 1 1.984 2.407m-83.75 177.59A2.012 2.012 0 0 1 0 181.123v-2.581a2.025 2.025 0 0 1 1.709-.723 2.018 2.018 0 0 1-.153 4.033M0 253.91v-1.785a2.01 2.01 0 0 1 0 1.785" mask="url(#t)"/></g><path fill="#8696A6" d="M7.022 356.501a2.018 2.018 0 0 1-.005-4.039 2.02 2.02 0 0 1 1.992 2.367l-.008.04a2.02 2.02 0 0 1-1.979 1.633m135.001-126.001a2.057 2.057 0 0 1-.61-.093 2.007 2.007 0 0 1-.848-.527 2.02 2.02 0 1 1 1.458.62m19.999-52h-.01a2.057 2.057 0 0 1-.968-.25 2.02 2.02 0 0 1 1.363-3.752 2.02 2.02 0 0 1-.385 4.002m75 12a2.01 2.01 0 0 1-1.611-.799 2.019 2.019 0 1 1 3.591-.834 2.018 2.018 0 0 1-1.98 1.633m21.999-17a2.021 2.021 0 0 1-1.896-2.72 2.022 2.022 0 0 1 2.281-1.28 2.018 2.018 0 0 1-.385 4m-10.999 177.001a2.01 2.01 0 0 1-.352-.03l-.037-.008a2.016 2.016 0 0 1-1.595-2.368 2.02 2.02 0 0 1 2.369-1.596 2.02 2.02 0 0 1-.385 4.002"/><g transform="translate(0 193.462)"><mask id="v" fill="#fff"><use xlink:href="#u"/></mask><path fill="#8696A6" d="M17.601 10.533a5.043 5.043 0 1 1 .961-9.995 5.044 5.044 0 0 1-.961 9.995M0 42.297v-6.561a5.06 5.06 0 0 1 .921 1.59c.294.824.377 1.735.198 2.656a5.072 5.072 0 0 1-.544 1.491 5.06 5.06 0 0 1-.575.824m0 53.686v-4.258a4.996 4.996 0 0 1 .426 2.797A5.085 5.085 0 0 1 0 95.983" mask="url(#v)"/></g><path fill="#8696A6" d="M66.05 253.55a5.043 5.043 0 1 1 .96-9.994 5.009 5.009 0 0 1 3.03 1.872 5.03 5.03 0 0 1 .954 4.044 5.022 5.022 0 0 1-1.676 2.87 5.035 5.035 0 0 1-3.269 1.208M25.05 291.551a5.047 5.047 0 0 1-5.005-5.714 5.045 5.045 0 0 1 5.965-4.28 5.043 5.043 0 0 1-.96 9.994m38 19.999a5.043 5.043 0 1 1 .961-9.994 5.045 5.045 0 0 1-.962 9.994m19.001-74.999c-.32 0-.645-.03-.971-.095a5.009 5.009 0 0 1-3.03-1.872 5.046 5.046 0 0 1 4.961-8.028 5.031 5.031 0 0 1 3.364 2.363v5.177a5.053 5.053 0 0 1-4.324 2.455"/><path fill="#FFFFFE" d="M86.143 233.64v-5.178a5.024 5.024 0 0 1 .62 3.553 5.03 5.03 0 0 1-.62 1.624"/><path fill="#8696A6" d="M27.05 220.551A5.028 5.028 0 0 1 23 218.52a5.016 5.016 0 0 1-.905-3.979 5.022 5.022 0 0 1 2.046-3.157 5.005 5.005 0 0 1 3.87-.827 5.045 5.045 0 0 1-.961 9.995m30-169.001a5.09 5.09 0 0 1-.972-.094 5.044 5.044 0 1 1 .971.094M181.05 395.55a5.043 5.043 0 1 1 .96-9.994 5.044 5.044 0 0 1-.96 9.994m38.991-91a5.043 5.043 0 0 1-5.04-4.937 5.043 5.043 0 0 1 4.935-5.15h.11a5.038 5.038 0 0 1 2.458.64 5.043 5.043 0 0 1-2.354 9.445l-.109.001m113-19.999a5.047 5.047 0 0 1-5.04-4.938v-.074a5.042 5.042 0 0 1 4.935-5.075h.11a5.043 5.043 0 0 1-.005 10.086m-35 38.001a5.044 5.044 0 0 1-.105-10.087h.11a5.044 5.044 0 0 1 .104 10.085l-.109.001m8-123.999a5.018 5.018 0 0 1-3.325-1.255 5.043 5.043 0 0 1 3.22-8.832h.11a5.043 5.043 0 0 1 .104 10.085l-.109.001m-75 78.001a5.038 5.038 0 0 1-2.46-.642 5.042 5.042 0 0 1-2.58-4.296 5.042 5.042 0 0 1 4.935-5.149h.11c1.388 0 2.65.563 3.564 1.477a5.028 5.028 0 0 1 1.475 3.458 5.043 5.043 0 0 1-5.044 5.151m-74.991-71.998a5.043 5.043 0 1 1 1.74-9.777 5.052 5.052 0 0 1 3.232 3.913 5.018 5.018 0 0 1-.028 1.786 5.028 5.028 0 0 1-3.02 3.694 5.008 5.008 0 0 1-1.925.384m56.001-1a5.046 5.046 0 0 1-5.003-5.724 5.043 5.043 0 1 1 9.948 1.646 5.039 5.039 0 0 1-4.945 4.078m0-49a5.09 5.09 0 0 1-.972-.095 5.043 5.043 0 0 1-1.415-9.396 5.054 5.054 0 0 1 2.375-.598 5.044 5.044 0 0 1 5.041 5.344l-4.295 4.69a4.968 4.968 0 0 1-.735.055"/><path fill="#FFFFFE" d="M213 154.152l4.295-4.69a5.024 5.024 0 0 1-2.183 3.859 5.034 5.034 0 0 1-2.102.83l-.01.001"/><path fill="#8696A6" d="M230.05 173.55a5.047 5.047 0 0 1-3.956-8.18 5.047 5.047 0 0 1 1.098-1.023 5.031 5.031 0 0 1 3.818-.79 5.044 5.044 0 0 1 3.984 5.915l-.01.053a5.044 5.044 0 0 1-4.934 4.025M93.734 47.912"/><g transform="translate(0 120.462)"><mask id="x" fill="#fff"><use xlink:href="#w"/></mask><path fill="#8696A6" d="M57.083 16.132a7.724 7.724 0 1 1 7.573-6.246 7.728 7.728 0 0 1-7.573 6.246M3.582 40.947A7.795 7.795 0 0 1 0 40.072V26.374a7.698 7.698 0 0 1 5.052-.732c.424.082.833.198 1.225.344l4.575 4.651a7.68 7.68 0 0 1 .302 4.065 7.683 7.683 0 0 1-2.099 3.962 7.756 7.756 0 0 1-1.582 1.225 7.699 7.699 0 0 1-3.891 1.058" mask="url(#x)"/></g><path fill="#FFFFFE" d="M11.575 151.113L7 146.463a7.726 7.726 0 0 1 4.575 4.65"/><path fill="#8696A6" d="M77.733 187.912a7.723 7.723 0 0 1-7.589-9.204 7.696 7.696 0 0 1 3.27-4.93 7.775 7.775 0 0 1 1.32-.713 7.67 7.67 0 0 1 4.47-.459 7.724 7.724 0 0 1-1.47 15.306m53 14a7.725 7.725 0 0 1-.017-15.45 7.725 7.725 0 0 1 .017 15.45m-88.001 9a7.78 7.78 0 0 1-1.368-.122l-.12-.023a7.724 7.724 0 1 1 1.488.145m-2.999 62a7.725 7.725 0 1 1 1.35-15.328l.12.023a7.724 7.724 0 1 1-1.47 15.305"/><path fill="#FFFFFE" d="M92.733 279.911a7.692 7.692 0 0 1-1.488-.144 7.724 7.724 0 0 1-5.274-11.332v2.354h1.5v-4.265a7.723 7.723 0 0 1 12.834 7.142 7.726 7.726 0 0 1-7.572 6.245"/><path fill="#FFFFFE" d="M87.5 270.727H86v-2.354a7.714 7.714 0 0 1 1.44-1.855l.06-.056v4.265"/><path fill="#8696A6" d="M90.733 348.911c-.49 0-.989-.047-1.488-.144a7.701 7.701 0 0 1-4.957-3.31 7.714 7.714 0 0 1-1.144-5.75 7.68 7.68 0 0 1 2.203-4.065 7.733 7.733 0 0 1 5.369-2.18 7.692 7.692 0 0 1 1.488.144 7.724 7.724 0 0 1-1.47 15.305m-53.001 27.001a7.724 7.724 0 0 1-7.242-10.435 7.737 7.737 0 0 1 8.713-4.871 7.7 7.7 0 0 1 4.956 3.311 7.705 7.705 0 0 1 1.145 5.75 7.726 7.726 0 0 1-7.572 6.245m149.001-66a7.71 7.71 0 0 1-1.488-.145 7.693 7.693 0 0 1-4.581-2.792 7.705 7.705 0 0 1-1.52-6.268 7.708 7.708 0 0 1 3.902-5.312 7.727 7.727 0 0 1 3.67-.933 7.724 7.724 0 0 1 .017 15.45m-62.001-47c-.49 0-.988-.047-1.487-.144a7.7 7.7 0 0 1-4.78-3.056 7.765 7.765 0 0 1-.953-1.758 7.683 7.683 0 0 1-.368-4.246 7.725 7.725 0 0 1 12.066-4.81 7.725 7.725 0 0 1-4.478 14.014m89.987-.002a7.723 7.723 0 0 1-7.718-7.56 7.723 7.723 0 0 1 7.557-7.886l.168-.002a7.728 7.728 0 0 1 7.456 5.714c.158.59.249 1.208.262 1.845l.002.138a7.722 7.722 0 0 1-7.727 7.75m-18.986 88.003a7.895 7.895 0 0 1-1.488-.145l-.133-.027a7.704 7.704 0 0 1-4.809-3.262 7.744 7.744 0 0 1-.888-1.793 7.68 7.68 0 0 1-.271-3.978 7.72 7.72 0 0 1 9.06-6.1 7.724 7.724 0 0 1-1.471 15.305m-41 20a7.723 7.723 0 0 1-7.589-9.204 7.725 7.725 0 0 1 9.059-6.1 7.701 7.701 0 0 1 4.943 3.288c.37.555.67 1.157.887 1.793.425 1.238.54 2.6.27 3.977a7.723 7.723 0 0 1-7.57 6.246M256.72 324.91a7.724 7.724 0 0 1-.161-15.446c.056-.002.112-.002.167-.002a7.69 7.69 0 0 1 4.379 1.362c.55.38 1.05.831 1.486 1.338a7.723 7.723 0 0 1-5.703 12.745l-.168.002m4-68.001a7.708 7.708 0 0 1-6.628-3.76 7.722 7.722 0 0 1-1.091-3.798v-.138a7.723 7.723 0 0 1 7.558-7.749h.168a7.727 7.727 0 0 1 6.133 3.032 7.724 7.724 0 0 1-5.973 12.412l-.167.001m27-26.998a7.694 7.694 0 0 1-4.725-1.615 7.795 7.795 0 0 1-1.41-1.42 7.723 7.723 0 0 1 5.973-12.411c.057-.002.113-.002.168-.002a7.683 7.683 0 0 1 4.784 1.662 7.725 7.725 0 0 1-4.622 13.783c-.056.002-.112.002-.167.002m-4.001 64.999a7.681 7.681 0 0 1-4.377-1.362 7.701 7.701 0 0 1-3.341-6.197 7.724 7.724 0 0 1 7.558-7.886h.168c.498 0 .985.046 1.458.137a7.733 7.733 0 0 1 6.017 5.651 7.673 7.673 0 0 1 .242 1.77 7.72 7.72 0 0 1-7.557 7.886l-.168.001M24.6 125.637a11.743 11.743 0 0 1-2.232-.217 11.562 11.562 0 0 1-8.05-6.006l6.024-1.77a6.096 6.096 0 0 0 11.688-2.426 6.094 6.094 0 1 0-12.11.986l-6.214 1.826a11.53 11.53 0 0 1-.49-6.2 11.597 11.597 0 0 1 11.358-9.368c.736 0 1.483.07 2.232.216 6.28 1.226 10.377 7.31 9.152 13.59a11.549 11.549 0 0 1-1.253 3.432 11.605 11.605 0 0 1-10.105 5.937"/><path fill="#FFFFFE" d="M14.613 118.672a11.55 11.55 0 0 1-.613-1.384l6.214-1.826c.082.503.226.986.422 1.44l-6.023 1.77"/><path fill="#FFFFFE" d="M26.095 120.651a6.096 6.096 0 0 1-6.016-5.109 6.094 6.094 0 1 1 6.016 5.109"/></g></svg>