<svg xmlns="http://www.w3.org/2000/svg" xmlns:xlink="http://www.w3.org/1999/xlink" height="459" width="478"><defs><path d="M.06.884h347.588v320.028H.06z" id="a"/><path d="M.06.419h72.756v93.756H.06z" id="c"/><path d="M.06.863h57.832v170.63H.06z" id="e"/><path d="M.06.378h75.598v160.613H.06z" id="g"/><path d="M.06.222h87.263V253.91H.06z" id="i"/><path d="M.06.444h22.58v95.539H.06z" id="k"/><path d="M.06.682H64.8v40.265H.06z" id="m"/></defs><g fill="none" fill-rule="evenodd"><path d="M241.782 332.583l-24.166-9.333" fill="#798b9e"/><g transform="rotate(-180 240.39 216.292)"><mask fill="#fff" id="b"><use height="100%" width="100%" xlink:href="#a"/></mask><path mask="url(#b)" d="M0 33.854v-3.521l9.258-13.41.605 2.644L0 33.854m11.404-16.519l-.606-2.644L20.33.884a7.686 7.686 0 0 0 1.645 1.137L11.404 17.335" fill="#72829d"/></g><path d="M394.252 419.901l13.337 3.676.868 2.314-14.735-4.061a7.718 7.718 0 0 0 .53-1.93m15.124 4.169l38.406 10.586a7.746 7.746 0 0 0-.53 1.928l-37.008-10.2-.868-2.314" fill="#72829d"/><g transform="rotate(-180 240.39 213.292)"><mask fill="#fff" id="d"><use height="100%" width="100%" xlink:href="#c"/></mask><path mask="url(#d)" d="M49.68 94.175l-15.249-6.864c.321-.577.597-1.186.819-1.825l15.25 6.865a7.674 7.674 0 0 0-.82 1.824M12.943 79.441L0 75.731V73.65l13.492 3.868a11.658 11.658 0 0 0-.549 1.923" fill="#72829d"/></g><path d="M439.267 201.249a7.77 7.77 0 0 0 1.997.096l-2.203 46.766a7.78 7.78 0 0 0-1.998-.096l2.204-46.766m3.916 59.907l11.688 15.085-1.553 1.262-11.716-15.122a7.777 7.777 0 0 0 1.58-1.225m12.914 16.667l16.686 21.535a7.756 7.756 0 0 0-1.582 1.225l-16.657-21.5 1.553-1.26m-78.458-43.188l8.065 13.446a9.304 9.304 0 0 0-1.045 2.147l-8.734-14.563a7.724 7.724 0 0 0 1.714-1.03m14.325 27.77a9.364 9.364 0 0 0 2.386.09l5.433 9.06a7.745 7.745 0 0 0-1.715 1.029l-6.104-10.177m-34.664 3.195l12.815 3.346-2.092 1.52-11.227-2.93a7.827 7.827 0 0 0 .504-1.936m15.317 3.999l23.166 6.047a7.75 7.75 0 0 0-.504 1.935l-24.753-6.461 2.09-1.521m87.548 173.772l9.619 15.21h-2.366l-8.943-14.141a7.794 7.794 0 0 0 1.69-1.07M435.9 93.125a7.705 7.705 0 0 0 .882 1.797l-9.957 4.882-.987-1.744 10.062-4.934m-11.861 5.816l.987 1.744-28.343 13.897a7.695 7.695 0 0 0-.881-1.795l28.237-13.846m-35.256 25.642a7.692 7.692 0 0 0 1.999.06l-1.465 50.036a13.85 13.85 0 0 0-2.027.903l1.493-51m-9.413 65.549a13.767 13.767 0 0 0 .412 2.05l-17.363 9.4a7.78 7.78 0 0 0-.953-1.757l17.904-9.693M249.912 90.778l29.379 19.565a7.697 7.697 0 0 0-1.11 1.664l-29.378-19.565a7.697 7.697 0 0 0 1.109-1.664m37.776 31.926l5.638 26.444a7.663 7.663 0 0 0-1.956.417l-5.638-26.443a7.655 7.655 0 0 0 1.956-.418m9.936 40.936l3.158 8.225a7.718 7.718 0 0 0-1.867.718l-3.157-8.225a7.727 7.727 0 0 0 1.866-.718m21.27-65.393a7.74 7.74 0 0 0 .888 1.793l-27.388 13.543a7.744 7.744 0 0 0-.888-1.793l27.389-13.543m-100.6 48.658a7.781 7.781 0 0 0 1.487 1.34l-17.186 19.092a7.754 7.754 0 0 0-1.487-1.338l17.187-19.092m-23.03 33.038a7.708 7.708 0 0 0 1.458.138l.168-.001a9.04 9.04 0 0 0 .37-.017l-.738 12.16-2.041.623.783-12.903m1.16 13.879l-2.17 35.76a7.722 7.722 0 0 0-1.46-.138c-.054 0-.11 0-.166.002a7.573 7.573 0 0 0-.37.016l2.126-35.02 2.04-.62m62.092 9.928l.002.138a7.736 7.736 0 0 0 .262 1.845l-30.256 4.058-.001-.137a7.722 7.722 0 0 0-.263-1.845l30.256-4.06m-43.852 10.759a7.758 7.758 0 0 0 1.41 1.418l-16.758 16.655a7.795 7.795 0 0 0-1.41-1.42l16.758-16.653m207.616 123.683a7.753 7.753 0 0 0 1.5 0v56.284a2.436 2.436 0 0 0-.67 1.679l.002.068-.832.199V368.05a6.064 6.064 0 0 0 .866-3.133 6.064 6.064 0 0 0-.866-3.133v-23.59m1.064 59.001a2.433 2.433 0 0 0 .436.637v9.75a5.09 5.09 0 0 0-1.5-.001V397.45l1.064-.255" fill="#72829d"/><g transform="rotate(-180 240.39 184.292)"><mask fill="#fff" id="f"><use height="100%" width="100%" xlink:href="#e"/></mask><path mask="url(#f)" d="M33.086 171.493L0 145.924v-.627a5.06 5.06 0 0 0 .575-.824l33.429 25.834a7.77 7.77 0 0 0-.918 1.186M.921 140.326a5.06 5.06 0 0 0-.707-1.323l6.372-3.406 1.039 1.145-6.704 3.584m8.068-4.313l-1.04-1.145 13.613-7.277c.17.475.409.921.708 1.323l-13.281 7.099" fill="#72829d"/></g><path d="M457.529 247.545l4.253 8.495c-.48.157-.932.385-1.341.673l-4.253-8.493a5.067 5.067 0 0 0 1.34-.673m-11.458 9.033l12.534 2.533a4.951 4.951 0 0 0-.21.758 4.977 4.977 0 0 0-.087.713l-12.534-2.534a7.895 7.895 0 0 0 .297-1.47m-43.295-57.949l9.007 7.82c-.38.323-.712.704-.984 1.132l-9.244-8.026c.424-.286.832-.596 1.22-.926m7.926 15.178a5.04 5.04 0 0 0 1.082 1.04l-9.345 9.734a5.04 5.04 0 0 0-1.082-1.04l9.345-9.734m-16.013-91.234l19.903 24.98c-.434.25-.83.565-1.173.934l-19.903-24.978a7.865 7.865 0 0 0 1.173-.935m27.19 30.999l8.652 4.536-1.311 1.006-8.037-4.213a5.024 5.024 0 0 0 .696-1.33m10.604 5.56l19.3 10.12a5.024 5.024 0 0 0-.695 1.329l-19.917-10.442 1.312-1.007m47.278 12.644a5.01 5.01 0 0 0 .023 1.499l-18.911.306a5.05 5.05 0 0 0-.023-1.5l18.91-.305m-72.37 112.683l9.394 17.409a5.06 5.06 0 0 0-1.32.713l-9.393-17.41a7.775 7.775 0 0 0 1.32-.712m-87.626-26.023c-.07.51-.061 1.015.019 1.5l-30.784.432.167-1.503 30.598-.43m-32.613.459l-.167 1.502-13.205.185c.07-.51.06-1.014-.02-1.5l13.392-.187m42.809.444l12.823 2.56a7.852 7.852 0 0 0-.294 1.472l-12.822-2.561a5.073 5.073 0 0 0 .293-1.471m-61.768 5.53a5.104 5.104 0 0 0 1.5.002v35.859l-1.5 1.638v-37.498m1.5 38.08v1.632a5.09 5.09 0 0 0-1.49-.002l1.49-1.63m-15.897-9.262l10.988 11.784-1.016 1.11-11.07-11.872a5.047 5.047 0 0 0 1.098-1.022m17.488 20.375l2.5 7.014a5.018 5.018 0 0 0-1.413.505l-2.5-7.014a5.054 5.054 0 0 0 1.413-.505m56.46-190.159a5.075 5.075 0 0 0 1.04 1.082l-17.046 16.393-1.347-.786 17.354-16.69m-18.103 17.41l1.346.786-10.901 10.483a7.803 7.803 0 0 0-1.038-1.082l10.593-10.186m-12.287-68.363a5.018 5.018 0 0 0 1.429.453l-11.176 35.178a7.763 7.763 0 0 0-1.43-.453l11.177-35.178m-38.974 90.683a5.008 5.008 0 0 0 1.403.53l-7.19 19.07a5.015 5.015 0 0 0-1.403-.53l7.19-19.07m-12.707 26.36a5.028 5.028 0 0 0 .892 1.208l-19.488 14.38a7.762 7.762 0 0 0-.891-1.206l19.487-14.382m-60.863-44.39l8.973 19.012a7.72 7.72 0 0 0-1.356.64l-8.973-19.011a5.011 5.011 0 0 0 1.356-.641m3.866 26.738a7.673 7.673 0 0 0 .23 1.482l-22.042 3.464-.965-1.367 22.777-3.58m-24.43 3.84l.965 1.367-12.945 2.034-.001-.074a5.03 5.03 0 0 0-.23-1.408l12.21-1.92m23.276 66.654a7.702 7.702 0 0 0 1.262.812l-2.33 3.626-1.438-.537 2.507-3.901m-3.337 5.193l1.438.537-8.365 13.018c-.375-.33-.8-.605-1.261-.812l8.188-12.743m266.733 195.825a7.554 7.554 0 0 0 .865.502l-8.248 14.228h-1.156l8.539-14.73m-68.045-17.631a7.72 7.72 0 0 0 .91.414l-6.367 13.947a2.013 2.013 0 0 0-.881-.41l-.03-.005 6.368-13.946m36.073-89.262a7.673 7.673 0 0 0 .837.548l-13.11 20.047-.851-.526 13.124-20.07M405 358.285l.85.526-9.006 13.772a2.022 2.022 0 0 0-.837-.547L405 358.285" fill="#72829d"/><g transform="rotate(-180 240.39 179.292)"><mask fill="#fff" id="h"><use height="100%" width="100%" xlink:href="#g"/></mask><path mask="url(#h)" d="M.724 160.991L0 156.846v-5.808l1.709 9.781a2.017 2.017 0 0 0-.985.172" fill="#72829d"/></g><path d="M451.252 93.974l21.53 9.697a2 2 0 0 0-.403.873l-.008.039-21.528-9.697a7.721 7.721 0 0 0 .409-.912m-100.32 116.68a7.5 7.5 0 0 0 .85.527l-11.406 18.402a1.997 1.997 0 0 0-.85-.527l11.406-18.402m-33.08 34.808l4.778 8.916c-.31.128-.605.287-.882.473l-4.777-8.917a2.018 2.018 0 0 0 .882-.472m4.96 18.309a5.004 5.004 0 0 0 .969.25l-4.298 16.562a2.01 2.01 0 0 0-.97-.251l4.3-16.561m-70.31-17.996l12.278 10.946a5.036 5.036 0 0 0-.667.746l-12.277-10.944a2.015 2.015 0 0 0 .666-.746m10.87 16.145c.1.32.23.629.39.92l-18.377 7.742a2.019 2.019 0 0 0-.39-.921l18.378-7.741m-38.872 25.443l21.279 2.224-.01.053a4.97 4.97 0 0 0-.094.94l-21.28-2.223a2.024 2.024 0 0 0 .105-.994m14.367-193.04a7.66 7.66 0 0 0 .912.412l-6.255 13.846a2.005 2.005 0 0 0-.874-.404l-.037-.007 6.254-13.846m216.178 335.807a7.797 7.797 0 0 1 3.538.853 7.717 7.717 0 0 1 4.05 8.352 7.69 7.69 0 0 1-2.64 4.459 7.794 7.794 0 0 1-1.69 1.069 7.695 7.695 0 0 1-4.73.573 7.745 7.745 0 0 1-2.818-1.162 7.726 7.726 0 0 1 4.29-14.144m-78.288 9.41a2.01 2.01 0 0 1 .36.033l.029.005a2.02 2.02 0 0 1-.774 3.964 2.02 2.02 0 0 1 .385-4.002" fill="#72829d"/><g transform="rotate(-180 240.39 187.792)"><mask fill="#fff" id="j"><use height="100%" width="100%" xlink:href="#i"/></mask><path mask="url(#j)" d="M85.306 4.262a2.06 2.06 0 0 1-.655-.109 2.017 2.017 0 0 1-1.329-2.298 2.02 2.02 0 1 1 1.984 2.407m-83.75 177.59A2.012 2.012 0 0 1 0 181.123v-2.581a2.025 2.025 0 0 1 1.709-.723 2.018 2.018 0 0 1-.153 4.033M0 253.91v-1.785a2.01 2.01 0 0 1 0 1.785" fill="#72829d"/></g><path d="M473.76 102.544a2.02 2.02 0 0 1 .005 4.039 2.02 2.02 0 0 1-1.992-2.367l.008-.04a2.02 2.02 0 0 1 1.979-1.633M338.759 228.544a2.057 2.057 0 0 1 .61.093 2.007 2.007 0 0 1 .848.527 2.02 2.02 0 1 1-1.458-.62m-20 52h.01a2.057 2.057 0 0 1 .969.25 2.02 2.02 0 0 1-1.363 3.752 2.02 2.02 0 0 1 .385-4.002m-75-12a2.01 2.01 0 0 1 1.61.799 2.019 2.019 0 1 1-3.59.834 2.018 2.018 0 0 1 1.98-1.633m-22 17a2.021 2.021 0 0 1 1.897 2.72 2.022 2.022 0 0 1-2.281 1.28 2.018 2.018 0 0 1 .385-4m10.999-177.001a2.01 2.01 0 0 1 .352.03l.037.008a2.016 2.016 0 0 1 1.595 2.368 2.02 2.02 0 0 1-2.37 1.596 2.02 2.02 0 0 1 .386-4.002" fill="#72829d"/><g transform="rotate(-180 240.39 132.792)"><mask fill="#fff" id="l"><use height="100%" width="100%" xlink:href="#k"/></mask><path mask="url(#l)" d="M17.601 10.533a5.043 5.043 0 1 1 .961-9.995 5.044 5.044 0 0 1-.961 9.995M0 42.297v-6.561a5.06 5.06 0 0 1 .921 1.59c.294.824.377 1.735.198 2.656a5.072 5.072 0 0 1-.544 1.491 5.06 5.06 0 0 1-.575.824m0 53.686v-4.258a4.996 4.996 0 0 1 .426 2.797A5.085 5.085 0 0 1 0 95.983" fill="#72829d"/></g><path d="M414.732 205.495a5.043 5.043 0 1 1-.96 9.994 5.009 5.009 0 0 1-3.03-1.872 5.03 5.03 0 0 1-.954-4.044 5.022 5.022 0 0 1 1.676-2.87 5.035 5.035 0 0 1 3.269-1.208m40.999-38.001a5.047 5.047 0 0 1 5.005 5.714 5.045 5.045 0 0 1-5.965 4.28 5.043 5.043 0 0 1 .96-9.994m-38-19.999a5.043 5.043 0 1 1-.961 9.994 5.045 5.045 0 0 1 .962-9.994m-19.001 74.999c.32 0 .645.03.97.095a5.009 5.009 0 0 1 3.03 1.872 5.046 5.046 0 0 1-4.96 8.028 5.031 5.031 0 0 1-3.364-2.363v-5.177a5.053 5.053 0 0 1 4.324-2.455m55 16a5.028 5.028 0 0 1 4.05 2.031 5.016 5.016 0 0 1 .905 3.979 5.022 5.022 0 0 1-2.046 3.157 5.005 5.005 0 0 1-3.87.827 5.045 5.045 0 0 1 .96-9.995m-30 169.001a5.09 5.09 0 0 1 .973.094 5.044 5.044 0 1 1-.971-.094M299.732 63.495a5.043 5.043 0 1 1-.96 9.994 5.044 5.044 0 0 1 .96-9.994m-38.991 91a5.043 5.043 0 0 1 5.04 4.937 5.043 5.043 0 0 1-4.935 5.15h-.11a5.038 5.038 0 0 1-2.458-.64 5.043 5.043 0 0 1 2.354-9.445l.109-.001m-113 19.999a5.047 5.047 0 0 1 5.04 4.938v.074a5.042 5.042 0 0 1-4.935 5.075h-.11a5.043 5.043 0 0 1 .005-10.086m35-38.001a5.044 5.044 0 0 1 .105 10.087h-.11a5.044 5.044 0 0 1-.104-10.085l.109-.001m-8 123.999a5.018 5.018 0 0 1 3.325 1.255 5.043 5.043 0 0 1-3.22 8.832h-.11a5.043 5.043 0 0 1-.104-10.085l.109-.001m75-78.001a5.038 5.038 0 0 1 2.46.642 5.042 5.042 0 0 1 2.58 4.296 5.042 5.042 0 0 1-4.935 5.149h-.11a5.027 5.027 0 0 1-3.564-1.477 5.028 5.028 0 0 1-1.475-3.458 5.043 5.043 0 0 1 5.044-5.151m74.99 71.998a5.043 5.043 0 1 1-1.74 9.777 5.052 5.052 0 0 1-3.231-3.913 5.018 5.018 0 0 1 .028-1.786 5.028 5.028 0 0 1 3.02-3.694 5.008 5.008 0 0 1 1.925-.384m-56.001 1a5.046 5.046 0 0 1 5.003 5.724 5.043 5.043 0 1 1-9.948-1.646 5.039 5.039 0 0 1 4.945-4.078m0 49a5.09 5.09 0 0 1 .972.095 5.043 5.043 0 0 1 1.415 9.396 5.054 5.054 0 0 1-2.375.598 5.044 5.044 0 0 1-5.041-5.344l4.295-4.69a4.968 4.968 0 0 1 .735-.055m-18.001-18.999a5.047 5.047 0 0 1 3.956 8.18 5.047 5.047 0 0 1-1.098 1.023 5.031 5.031 0 0 1-3.818.79 5.044 5.044 0 0 1-3.984-5.915l.01-.053a5.044 5.044 0 0 1 4.934-4.025m136.316 125.638" fill="#72829d"/><g transform="rotate(-180 240.39 169.292)"><mask fill="#fff" id="n"><use height="100%" width="100%" xlink:href="#m"/></mask><path mask="url(#n)" d="M57.083 16.132a7.724 7.724 0 1 1 7.573-6.246 7.728 7.728 0 0 1-7.573 6.246M3.582 40.947A7.795 7.795 0 0 1 0 40.072V26.374a7.698 7.698 0 0 1 5.052-.732c.424.082.833.198 1.225.344l4.575 4.651a7.68 7.68 0 0 1 .302 4.065 7.683 7.683 0 0 1-2.099 3.962 7.756 7.756 0 0 1-1.582 1.225 7.699 7.699 0 0 1-3.891 1.058" fill="#72829d"/></g><path d="M403.049 271.133a7.723 7.723 0 0 1 7.589 9.204 7.696 7.696 0 0 1-3.27 4.93 7.775 7.775 0 0 1-1.32.713 7.67 7.67 0 0 1-4.47.459 7.724 7.724 0 0 1 1.47-15.306m-53-14a7.725 7.725 0 0 1 .017 15.45 7.725 7.725 0 0 1-.017-15.45m88-9a7.78 7.78 0 0 1 1.369.122l.12.023a7.724 7.724 0 1 1-1.488-.145m2.999-62a7.725 7.725 0 1 1-1.35 15.328l-.12-.023a7.724 7.724 0 1 1 1.47-15.305m-50.999-75.999c.49 0 .989.047 1.488.144a7.701 7.701 0 0 1 4.957 3.31 7.714 7.714 0 0 1 1.144 5.75 7.68 7.68 0 0 1-2.203 4.065 7.733 7.733 0 0 1-5.37 2.18 7.692 7.692 0 0 1-1.487-.144 7.724 7.724 0 0 1 1.47-15.305m53-27.001a7.724 7.724 0 0 1 7.243 10.435 7.737 7.737 0 0 1-8.713 4.871 7.7 7.7 0 0 1-4.956-3.311 7.705 7.705 0 0 1-1.145-5.75 7.726 7.726 0 0 1 7.572-6.245m-149.001 66c.49 0 .99.047 1.488.145a7.693 7.693 0 0 1 4.58 2.792 7.705 7.705 0 0 1 1.52 6.268 7.708 7.708 0 0 1-3.901 5.312 7.727 7.727 0 0 1-3.67.933 7.725 7.725 0 0 1-.017-15.45m62 47c.49 0 .989.047 1.488.144a7.7 7.7 0 0 1 4.78 3.056 7.765 7.765 0 0 1 .953 1.758 7.683 7.683 0 0 1 .368 4.246 7.725 7.725 0 0 1-12.066 4.81 7.725 7.725 0 0 1 4.478-14.014m-89.987.002a7.723 7.723 0 0 1 7.718 7.56 7.723 7.723 0 0 1-7.557 7.886l-.168.002a7.728 7.728 0 0 1-7.456-5.714 7.736 7.736 0 0 1-.262-1.845l-.002-.138a7.722 7.722 0 0 1 7.727-7.75m18.986-88.003a7.895 7.895 0 0 1 1.488.145l.133.027a7.704 7.704 0 0 1 4.809 3.262 7.744 7.744 0 0 1 .888 1.793 7.68 7.68 0 0 1 .27 3.978 7.72 7.72 0 0 1-9.06 6.1 7.724 7.724 0 0 1 1.472-15.305m41-20a7.723 7.723 0 0 1 7.589 9.204 7.725 7.725 0 0 1-9.06 6.1 7.701 7.701 0 0 1-4.942-3.288 7.74 7.74 0 0 1-.887-1.793 7.666 7.666 0 0 1-.27-3.977 7.723 7.723 0 0 1 7.57-6.246m-101.986 46.002a7.724 7.724 0 0 1 .16 15.446 4.677 4.677 0 0 1-.166.002 7.69 7.69 0 0 1-4.38-1.362 7.842 7.842 0 0 1-1.485-1.338 7.723 7.723 0 0 1 5.703-12.745l.168-.002m-4 68.001a7.708 7.708 0 0 1 6.628 3.76 7.722 7.722 0 0 1 1.09 3.798v.138a7.723 7.723 0 0 1-7.557 7.749h-.168a7.727 7.727 0 0 1-6.133-3.032 7.724 7.724 0 0 1 5.973-12.412l.167-.001m-27 26.998a7.694 7.694 0 0 1 4.725 1.615 7.795 7.795 0 0 1 1.41 1.42 7.723 7.723 0 0 1-5.973 12.411c-.057.002-.113.002-.168.002a7.683 7.683 0 0 1-4.784-1.662 7.725 7.725 0 0 1 4.622-13.783c.056-.002.112-.002.167-.002m4-64.999a7.681 7.681 0 0 1 4.378 1.362 7.701 7.701 0 0 1 3.34 6.197 7.724 7.724 0 0 1-7.557 7.886h-.168c-.498 0-.985-.046-1.458-.137a7.733 7.733 0 0 1-6.017-5.651 7.673 7.673 0 0 1-.242-1.77 7.72 7.72 0 0 1 7.557-7.886l.168-.001m259.12 169.271a11.743 11.743 0 0 1 2.232.217 11.562 11.562 0 0 1 8.05 6.006l-6.024 1.77a6.096 6.096 0 0 0-11.688 2.426 6.094 6.094 0 1 0 12.11-.986l6.214-1.826a11.53 11.53 0 0 1 .49 6.2 11.597 11.597 0 0 1-11.358 9.368c-.736 0-1.483-.07-2.232-.216-6.28-1.226-10.377-7.31-9.152-13.59a11.549 11.549 0 0 1 1.253-3.432 11.605 11.605 0 0 1 10.105-5.937" fill="#72829d"/></g></svg>