<svg xmlns="http://www.w3.org/2000/svg" xmlns:xlink="http://www.w3.org/1999/xlink" height="459" width="478" opacity=".23"><defs><path d="M.06 0h399.546v427.394H.06z" id="a"/><path d="M.06 0h336.91v126.715H.06z" id="c"/><path d="M.06.548h406.873v203.448H.06z" id="e"/><path d="M.06.662h345.493v22.667H.06z" id="g"/><path d="M.06.47h87.577v145.193H.06z" id="i"/><path d="M.06.884h347.588v320.028H.06z" id="k"/><path d="M.06.419h72.756v93.756H.06z" id="m"/><path d="M.06.863h57.832v170.63H.06z" id="o"/><path d="M.06.378h75.598v160.613H.06z" id="q"/><path d="M.06.222h87.263V253.91H.06z" id="s"/><path d="M.06.444h22.58v95.539H.06z" id="u"/><path d="M.06.682H64.8v40.265H.06z" id="w"/></defs><g fill="none" fill-rule="evenodd"><path d="M286.354 285.583l5.428-48.848-46.823-12.894-.531 1.928 45.178 12.44-5.24 47.153 1.988.22" fill="#fffffe"/><g transform="rotate(-180 240.39 229.292)"><mask fill="#fff" id="b"><use height="100%" width="100%" xlink:href="#a"/></mask><path mask="url(#b)" d="M24.186 427.349l43.428-46-1.454-1.373-43.428 46M172.778-11.373l40.386 49.656-9.352 60.79 34.439 28.362 1.272-1.544-33.561-27.639 9.314-60.543-40.947-50.344-1.551 1.262m135.775 121.344l-1.396-56.378 29.545-34.621 62.904-3.311-.105-1.997-63.763 3.356-30.599 35.857 1.415 57.144 1.999-.05" fill="#fffffe"/><path mask="url(#b)" d="M284.792-25.248l50.773 44 1.31-1.512-50.774-44m-390.832 144.384l50.925-14.55 41.882 24.318 29.308-57.934L4.636 13.773l-1.949.446L15.273 69.2l-28.025 55.399-40.786-23.682-51.742 14.784.549 1.923M23.627 425.932l-40.74-9.372-40.835 9.372.336 1.462 40.499-9.295 40.404 9.295.336-1.462M148.34 304.816l-28.333 30.167 1.093 1.026 28.334-30.166M-8.335 209.167l28 30.833 1.11-1.008-28-30.833-1.11 1.008" fill="#fffffe"/></g><path d="M349.809 285.748l30.946 5.264-18.86 19.828 10.477 26.443-32.253 27.152.966 1.148 33.08-27.848-10.523-26.556 20.14-21.174-33.721-5.736-.252 1.478" fill="#fffffe"/><path d="M417.782 364.307l-44.5-27.5-.79 1.276 44.5 27.5.79-1.276M311.329 313.37l-8.907 34.638-26.987 11.19.574 1.385 27.68-11.477 9.093-35.362-1.453-.374m-44.512 108.582l33.083-21.174 49.826 9.3 50.36-6.604 14.29 38.109 1.406-.526-14.71-39.225-51.305 6.729-50.175-9.366-33.584 21.493.809 1.264m50.909-212.935l-27.761 27.5 1.056 1.066 27.76-27.5m-75.193 13.816l-26.497 34.889-48.82-18.226 12.904-43.011-24.711-34.965-1.225.866 24.289 34.368-13.097 43.656 51.18 19.107 27.17-35.778-1.193-.907" fill="#fffffe"/><path d="M226.345 183.148l-46 14 .437 1.435 46-14-.437-1.435" fill="#fffffe"/><g transform="rotate(-180 240.39 229.292)"><mask fill="#fff" id="d"><use height="100%" width="100%" xlink:href="#c"/></mask><path mask="url(#d)" d="M306.201 52.487l-46-3.239-.106 1.496 46 3.239m29.375-35.987h1.5V0h-1.5zM47.495 74.688l-29.927-5.88 18.22-27.734-1.253-.823L15.089 69.85l32.117 6.31.289-1.472M25.45 114.109l-38 11.167.423 1.439 38-11.166-.423-1.44" fill="#fffffe"/></g><path d="M413.782 78.163l-13.167-28.452-.907.419 13.166 28.453m-48.092-22.079l-2.996-37.872-.996.079 2.995 37.872m-32.003 97.136l-32-18.667-.504.864 32 18.667.504-.864m83.35 286.876l-12 10.227.65.76 12-10.225m-15.5-38.774l25.5-6.095-.233-.973-25.5 6.095.233.973m-14.15-42.485l-12.461-22.487 21.11-19.114-.67-.741-21.7 19.647 12.848 23.18.874-.485" fill="#fffffe"/><path d="M241.782 332.583l-24.166-9.333" fill="#798b9e"/><path d="M241.782 331.65l-24.166-9.333-.361.932 24.167 9.334m-37.74-95.733l12.889 22.368-12.842 15.733.775.632 13.278-16.268-13.232-22.966-.867.5m-59.803 7.734l23.902-2.751-17.425-32.15-.88.476 16.72 30.85-22.431 2.582.114.993" fill="#fffffe"/><g transform="rotate(-180 240.39 222.292)"><mask fill="#fff" id="f"><use height="100%" width="100%" xlink:href="#e"/></mask><path mask="url(#f)" d="M399.067.777l6.893 29.239.973-.229L400.04.548M1.554 194.663c0 5.154-4.179 9.333-9.334 9.333a9.333 9.333 0 0 1-9.333-9.333 9.334 9.334 0 0 1 18.667 0" fill="#fffffe"/></g><path d="M436.116 285.25a9.332 9.332 0 0 1 9.333-9.333 9.332 9.332 0 0 1 9.333 9.333 9.332 9.332 0 0 1-9.333 9.333 9.332 9.332 0 0 1-9.333-9.333m5.999-141.001a9.334 9.334 0 1 1 18.667.001 9.334 9.334 0 0 1-18.667-.001m-38-66a9.333 9.333 0 0 1 9.333-9.333 9.334 9.334 0 1 1-9.333 9.333m44-46a9.333 9.333 0 0 1 9.333-9.333 9.334 9.334 0 1 1-9.333 9.333M397.9 50.142a2.441 2.441 0 1 1 4.882.002 2.441 2.441 0 0 1-4.882-.002m-39-31.999a2.44 2.44 0 1 1 4.88-.002 2.44 2.44 0 0 1-4.88.002m-62 117a2.44 2.44 0 1 1 4.88-.001 2.44 2.44 0 0 1-4.88 0m95 183.001a2.44 2.44 0 1 1 4.88-.002 2.44 2.44 0 0 1-4.88.002m-9 41.999a2.44 2.44 0 1 1 4.88 0 2.44 2.44 0 0 1-4.88 0m41 36.001a2.44 2.44 0 1 1 4.88 0 2.44 2.44 0 0 1-4.88 0m-23 54.999a2.44 2.44 0 1 1 4.88.001 2.44 2.44 0 0 1-4.88-.001m-186-127.999a2.44 2.44 0 1 1 4.88 0 2.44 2.44 0 0 1-4.88 0m-13-47a2.44 2.44 0 1 1 4.88-.002 2.44 2.44 0 0 1-4.88.002m0-39a2.44 2.44 0 1 1 4.88-.001 2.44 2.44 0 0 1-4.88 0m-60 7.001a2.44 2.44 0 1 1 4.88-.002 2.44 2.44 0 0 1-4.88.002m6-35a2.44 2.44 0 1 1 4.88 0 2.44 2.44 0 0 1-4.88 0m-76 206a2.441 2.441 0 1 1 4.882 0 2.441 2.441 0 0 1-4.882 0m382.69-195.655a6.095 6.095 0 1 1 12.19 0 6.095 6.095 0 0 1-12.19 0m-78.998 71a6.095 6.095 0 1 1 12.19 0 6.095 6.095 0 0 1-12.19 0m-9 47a6.095 6.095 0 1 1 12.19 0 6.095 6.095 0 0 1-12.19 0m45 27a6.095 6.095 0 1 1 12.19 0 6.095 6.095 0 0 1-12.19 0m-17 38a6.095 6.095 0 1 1 12.19 0 6.095 6.095 0 0 1-12.19 0m14 38a6.095 6.095 0 1 1 12.19 0 6.095 6.095 0 0 1-12.19 0m-112-92a6.095 6.095 0 1 1 12.19 0 6.095 6.095 0 0 1-12.19 0m47 60a6.095 6.095 0 1 1 12.189 0 6.095 6.095 0 0 1-12.19 0m-50-8.999a6.095 6.095 0 1 1 12.19-.001 6.095 6.095 0 0 1-12.19 0m12-86a6.095 6.095 0 1 1 12.19 0 6.095 6.095 0 0 1-12.19 0m51-3a6.095 6.095 0 1 1 12.19 0 6.095 6.095 0 0 1-12.19 0m-3-187a6.095 6.095 0 1 1 12.19 0 6.095 6.095 0 0 1-12.19 0m-133 60.001a6.095 6.095 0 1 1 12.19 0 6.095 6.095 0 0 1-12.19 0m91 25.999a6.095 6.095 0 1 1 12.19 0 6.095 6.095 0 0 1-12.19 0m-97 199a6.095 6.095 0 1 1 12.19 0 6.095 6.095 0 0 1-12.19 0m225 10a6.094 6.094 0 1 1 12.189 0 6.094 6.094 0 0 1-12.188 0m-13-35a6.095 6.095 0 1 1 12.19 0 6.095 6.095 0 0 1-12.19 0m22-38.999a6.095 6.095 0 1 1 12.189-.001 6.095 6.095 0 0 1-12.19 0m-237-84.999a6.095 6.095 0 1 1 12.19 0 6.095 6.095 0 0 1-12.19 0m-50-19.001a6.095 6.095 0 1 1 12.19 0 6.095 6.095 0 0 1-12.19 0m13-42.999a6.095 6.095 0 1 1 12.19 0 6.095 6.095 0 0 1-12.19 0m-25-35.001a6.095 6.095 0 1 1 12.19 0 6.095 6.095 0 0 1-12.19 0M355.116 56.25a9.333 9.333 0 0 1 9.333-9.333 9.333 9.333 0 1 1 0 18.666 9.333 9.333 0 0 1-9.333-9.333m-33 97a9.333 9.333 0 1 1 18.667 0 9.333 9.333 0 1 1-18.666 0m61.999 99.999a9.332 9.332 0 0 1 9.333-9.333 9.334 9.334 0 1 1-9.333 9.333m-103-15.999a9.332 9.332 0 0 1 9.334-9.333 9.333 9.333 0 1 1 0 18.666 9.332 9.332 0 0 1-9.333-9.333m-46-13.001a9.333 9.333 0 1 1 18.666 0 9.333 9.333 0 0 1-18.666 0m40.999 61.001a9.333 9.333 0 0 1 9.334-9.333 9.333 9.333 0 1 1 0 18.666 9.333 9.333 0 0 1-9.334-9.333m64 0a9.333 9.333 0 0 1 9.334-9.333 9.332 9.332 0 0 1 9.333 9.333 9.332 9.332 0 0 1-9.333 9.333 9.333 9.333 0 0 1-9.333-9.333m-9 80a9.332 9.332 0 0 1 9.333-9.333 9.333 9.333 0 1 1 0 18.666 9.332 9.332 0 0 1-9.333-9.333m-65.001-5.001a9.334 9.334 0 1 1 18.667.001 9.334 9.334 0 0 1-18.667-.001m-9 61.001a9.332 9.332 0 0 1 9.334-9.333 9.333 9.333 0 1 1 0 18.666 9.332 9.332 0 0 1-9.333-9.333m-92-16.001a9.333 9.333 0 1 1 18.666 0 9.333 9.333 0 1 1-18.666 0m-1.001-55.999a9.333 9.333 0 0 1 9.334-9.333 9.333 9.333 0 1 1 0 18.666 9.333 9.333 0 0 1-9.334-9.333m68-17.001a9.334 9.334 0 1 1 18.667.001 9.334 9.334 0 0 1-18.667-.001m-160 112a9.334 9.334 0 1 1 18.667.001 9.334 9.334 0 0 1-18.667-.001" fill="#fffffe"/><g transform="rotate(-180 240.39 227.292)"><mask fill="#fff" id="h"><use height="100%" width="100%" xlink:href="#g"/></mask><path mask="url(#h)" d="M345.553 13.996a9.332 9.332 0 0 1-9.333 9.333 9.333 9.333 0 1 1 0-18.666 9.332 9.332 0 0 1 9.333 9.333m-332.558-4a9.333 9.333 0 0 1-9.333 9.333 9.334 9.334 0 1 1 9.333-9.333" fill="#fffffe"/></g><path d="M455.116 389.25a9.333 9.333 0 1 1 18.666 0 9.332 9.332 0 0 1-9.333 9.333 9.332 9.332 0 0 1-9.333-9.333m-75.334-200.667c0-7.732 6.268-14 14-14s14 6.268 14 14-6.268 14-14 14-14-6.268-14-14m-60.572 21l13.572-55.833-1.458-.354-13.572 55.833" fill="#fffffe"/><g transform="rotate(-180 240.39 166.792)"><mask fill="#fff" id="j"><use height="100%" width="100%" xlink:href="#i"/></mask><path mask="url(#j)" d="M86.137 145.663h1.5V80.996h-1.5zM-12.873 1.522l47.225 48 1.069-1.052-47.225-48-1.069 1.052" fill="#fffffe"/></g><path d="M242.448 332.583l43.334-47.333-1.107-1.013-43.333 47.333 1.106 1.013M110.09 126.31l-20.326 32.206 1.69 1.067 20.328-32.206" fill="#fffffe"/><path d="M73.35 126.469l38.499 1.114 21.933-13.964-.805-1.266-21.545 13.717-38.038-1.1-.044 1.499" fill="#fffffe"/><path d="M102.563 100.31l8.265 26.273.954-.3-8.265-26.273m33.71 8.413a6.095 6.095 0 1 0-9.08 8.131 6.095 6.095 0 0 0 9.08-8.131m48 15a6.095 6.095 0 0 0-9.08 8.132 6.095 6.095 0 0 0 9.08-8.132" fill="#fffffe"/><path d="M104.267 99.217a2.02 2.02 0 1 0-3.01 2.695 2.02 2.02 0 0 0 3.01-2.695m-30 24.999a2.019 2.019 0 1 0-3.008 2.693 2.019 2.019 0 0 0 3.008-2.693m42.545-2.51a7.724 7.724 0 1 0-11.506 10.307 7.724 7.724 0 0 0 11.506-10.307m-20 31.999a7.724 7.724 0 1 0-11.506 10.308 7.724 7.724 0 0 0 11.505-10.308" fill="#fffffe"/><g transform="rotate(-180 240.39 216.292)"><mask fill="#fff" id="l"><use height="100%" width="100%" xlink:href="#k"/></mask><path mask="url(#l)" d="M323.942 269.561l-25.8 36.293 49.066 15.058.44-1.434-47.08-14.448 24.597-34.599-1.223-.87" fill="#fffffe"/><path mask="url(#l)" d="M0 33.854v-3.521l9.258-13.41.605 2.644L0 33.854m11.404-16.519l-.606-2.644L20.33.884a7.686 7.686 0 0 0 1.645 1.137L11.404 17.335" fill="#8696a6"/></g><path d="M470.177 413.707l.605 2.644-1.54 2.232-.606-2.644 1.54-2.232" fill="#fffffe"/><path d="M394.252 419.901l13.337 3.676.868 2.314-14.735-4.061a7.718 7.718 0 0 0 .53-1.93m15.124 4.169l38.406 10.586a7.746 7.746 0 0 0-.53 1.928l-37.008-10.2-.868-2.314" fill="#8696a6"/><g transform="rotate(-180 240.39 213.292)"><mask fill="#fff" id="n"><use height="100%" width="100%" xlink:href="#m"/></mask><path mask="url(#n)" d="M72.816 3.226l-1.787-.492-.868-2.315 1.787.493.868 2.314" fill="#fffffe"/><path mask="url(#n)" d="M49.68 94.175l-15.249-6.864c.321-.577.597-1.186.819-1.825l15.25 6.865a7.674 7.674 0 0 0-.82 1.824M12.943 79.441L0 75.731V73.65l13.492 3.868a11.658 11.658 0 0 0-.549 1.923" fill="#8696a6"/></g><path d="M439.267 201.249a7.77 7.77 0 0 0 1.997.096l-2.203 46.766a7.78 7.78 0 0 0-1.998-.096l2.204-46.766m3.916 59.907l11.688 15.085-1.553 1.262-11.716-15.122a7.777 7.777 0 0 0 1.58-1.225m12.914 16.667l16.686 21.535a7.756 7.756 0 0 0-1.582 1.225l-16.657-21.5 1.553-1.26" fill="#8696a6"/><path d="M455.557 275.74l1.225 1.582-1.553 1.26-1.225-1.58 1.553-1.262" fill="#fffffe"/><path d="M377.638 234.635l8.065 13.446a9.304 9.304 0 0 0-1.045 2.147l-8.734-14.563a7.724 7.724 0 0 0 1.714-1.03m14.325 27.77a9.364 9.364 0 0 0 2.386.09l5.433 9.06a7.745 7.745 0 0 0-1.715 1.029l-6.104-10.177" fill="#8696a6"/><path d="M386.136 248.13l8.646 14.415a9.346 9.346 0 0 1-2.386-.09l-7.305-12.178a9.304 9.304 0 0 1 1.045-2.147" fill="#fffffe"/><path d="M357.299 265.602l12.815 3.346-2.092 1.52-11.227-2.93a7.827 7.827 0 0 0 .504-1.936m15.317 3.999l23.166 6.047a7.75 7.75 0 0 0-.504 1.935l-24.753-6.461 2.09-1.521" fill="#8696a6"/><path d="M370.28 268.409l2.502.653-2.091 1.52-2.503-.652 2.092-1.521" fill="#fffffe"/><path d="M460.163 443.373l9.619 15.21h-2.366l-8.943-14.141a7.794 7.794 0 0 0 1.69-1.07M435.9 93.125a7.705 7.705 0 0 0 .882 1.797l-9.957 4.882-.987-1.744 10.062-4.934m-11.861 5.816l.987 1.744-28.343 13.897a7.695 7.695 0 0 0-.881-1.795l28.237-13.846" fill="#8696a6"/><path d="M425.795 97.957l.987 1.744-1.8.882-.986-1.744 1.799-.882" fill="#fffffe"/><path d="M388.783 124.584a7.692 7.692 0 0 0 1.999.06l-1.465 50.036a13.85 13.85 0 0 0-2.027.903l1.493-51" fill="#8696a6"/><path d="M388.782 175.4l-.122 4.183a7.692 7.692 0 0 0-2-.061l.095-3.22a13.85 13.85 0 0 1 2.027-.902" fill="#fffffe"/><path d="M379.37 190.132a13.767 13.767 0 0 0 .412 2.05l-17.363 9.4a7.78 7.78 0 0 0-.953-1.757l17.904-9.693" fill="#8696a6"/><path d="M380.829 190.165a7.765 7.765 0 0 0 .953 1.758l-1.22.66a13.767 13.767 0 0 1-.411-2.051l.678-.367" fill="#fffffe"/><path d="M249.912 90.778l29.379 19.565a7.697 7.697 0 0 0-1.11 1.664l-29.378-19.565a7.697 7.697 0 0 0 1.109-1.664m37.776 31.926l5.638 26.444a7.663 7.663 0 0 0-1.956.417l-5.638-26.443a7.655 7.655 0 0 0 1.956-.418m9.936 40.936l3.158 8.225a7.718 7.718 0 0 0-1.867.718l-3.157-8.225a7.727 7.727 0 0 0 1.866-.718m21.27-65.393a7.74 7.74 0 0 0 .888 1.793l-27.388 13.543a7.744 7.744 0 0 0-.888-1.793l27.389-13.543m-100.6 48.658a7.781 7.781 0 0 0 1.487 1.34l-17.186 19.092a7.754 7.754 0 0 0-1.487-1.338l17.187-19.092m-23.03 33.038a7.708 7.708 0 0 0 1.458.138l.168-.001a9.04 9.04 0 0 0 .37-.017l-.738 12.16-2.041.623.783-12.903m1.16 13.879l-2.17 35.76a7.722 7.722 0 0 0-1.46-.138c-.054 0-.11 0-.166.002a7.573 7.573 0 0 0-.37.016l2.126-35.02 2.04-.62" fill="#8696a6"/><path d="M196.782 192.364l-.097 1.598-2.041.62.097-1.596 2.04-.622" fill="#fffffe"/><path d="M258.518 203.752l.002.138a7.736 7.736 0 0 0 .262 1.845l-30.256 4.058-.001-.137a7.722 7.722 0 0 0-.263-1.845l30.256-4.06m-43.852 10.759a7.758 7.758 0 0 0 1.41 1.418l-16.758 16.655a7.795 7.795 0 0 0-1.41-1.42l16.758-16.653m207.616 123.683a7.753 7.753 0 0 0 1.5 0v56.284a2.436 2.436 0 0 0-.67 1.679l.002.068-.832.199V368.05a6.064 6.064 0 0 0 .866-3.133 6.064 6.064 0 0 0-.866-3.133v-23.59m1.064 59.001a2.433 2.433 0 0 0 .436.637v9.75a5.09 5.09 0 0 0-1.5-.001V397.45l1.064-.255" fill="#8696a6"/><path d="M423.55 396.355a2.433 2.433 0 0 0 .232.973l-1.064.255v-1.03l.832-.198m1.066-2.13v3.358a2.433 2.433 0 0 1-.668-1.61v-.068c0-.651.255-1.241.669-1.68" fill="#fffffe"/><g transform="rotate(-180 240.39 184.292)"><mask fill="#fff" id="p"><use height="100%" width="100%" xlink:href="#o"/></mask><path mask="url(#p)" d="M57.825 7.129a6.064 6.064 0 0 1-.866-3.133c0-1.146.316-2.217.866-3.133v6.266" fill="#fffffe"/><path mask="url(#p)" d="M33.086 171.493L0 145.924v-.627a5.06 5.06 0 0 0 .575-.824l33.429 25.834a7.77 7.77 0 0 0-.918 1.186M.921 140.326a5.06 5.06 0 0 0-.707-1.323l6.372-3.406 1.039 1.145-6.704 3.584m8.068-4.313l-1.04-1.145 13.613-7.277c.17.475.409.921.708 1.323l-13.281 7.099" fill="#8696a6"/></g><path d="M472.743 232.709l1.039 1.145-1.363.729-1.04-1.145 1.364-.73" fill="#fffffe"/><path d="M457.529 247.545l4.253 8.495c-.48.157-.932.385-1.341.673l-4.253-8.493a5.067 5.067 0 0 0 1.34-.673m-11.458 9.033l12.534 2.533a4.951 4.951 0 0 0-.21.758 4.977 4.977 0 0 0-.087.713l-12.534-2.534a7.895 7.895 0 0 0 .297-1.47m-43.295-57.949l9.007 7.82c-.38.323-.712.704-.984 1.132l-9.244-8.026c.424-.286.832-.596 1.22-.926" fill="#8696a6"/><path d="M394.48 191.449l8.302 7.208c-.39.33-.797.64-1.221.926l-7.081-6.148v-1.986" fill="#fffffe"/><path d="M394.326 191.201l.456.396v1.986l-1.44-1.25a7.714 7.714 0 0 0 .984-1.132" fill="#fffffe"/><path d="M410.7 213.809a5.04 5.04 0 0 0 1.082 1.04l-9.345 9.734a5.04 5.04 0 0 0-1.082-1.04l9.345-9.734m-16.013-91.234l19.903 24.98c-.434.25-.83.565-1.173.934l-19.903-24.978a7.865 7.865 0 0 0 1.173-.935m27.19 30.999l8.652 4.536-1.311 1.006-8.037-4.213a5.024 5.024 0 0 0 .696-1.33m10.604 5.56l19.3 10.12a5.024 5.024 0 0 0-.695 1.329l-19.917-10.442 1.312-1.007" fill="#8696a6"/><path d="M430.83 158.553l1.952 1.022-1.312 1.007-1.951-1.024 1.31-1.006" fill="#fffffe"/><path d="M479.759 171.778a5.01 5.01 0 0 0 .023 1.499l-18.911.306a5.05 5.05 0 0 0-.023-1.5l18.91-.305m-72.37 112.683l9.394 17.409a5.06 5.06 0 0 0-1.32.713l-9.393-17.41a7.775 7.775 0 0 0 1.32-.712m-87.626-26.023c-.07.51-.061 1.015.019 1.5l-30.784.432.167-1.503 30.598-.43m-32.613.459l-.167 1.502-13.205.185c.07-.51.06-1.014-.02-1.5l13.392-.187" fill="#8696a6"/><path d="M288.782 259.052l-.167 1.503-2.015.028.167-1.502 2.015-.03" fill="#fffffe"/><path d="M329.959 259.34l12.823 2.56a7.852 7.852 0 0 0-.294 1.472l-12.822-2.561a5.073 5.073 0 0 0 .293-1.471m-61.768 5.53a5.104 5.104 0 0 0 1.5.002v35.859l-1.5 1.638v-37.498m1.5 38.08v1.632a5.09 5.09 0 0 0-1.49-.002l1.49-1.63" fill="#8696a6"/><path d="M268.782 300.732v2.22l-1.49 1.63h-.01v-2.212l1.5-1.638" fill="#fffffe"/><path d="M253.794 293.689l10.988 11.784-1.016 1.11-11.07-11.872a5.047 5.047 0 0 0 1.098-1.022" fill="#8696a6"/><path d="M265.437 305.191l.345.37a5.047 5.047 0 0 0-1.098 1.022l-.263-.282 1.016-1.11" fill="#fffffe"/><path d="M271.282 314.064l2.5 7.014a5.018 5.018 0 0 0-1.413.505l-2.5-7.014a5.054 5.054 0 0 0 1.413-.505m56.46-190.159a5.075 5.075 0 0 0 1.04 1.082l-17.046 16.393-1.347-.786 17.354-16.69m-18.103 17.41l1.346.786-10.901 10.483a7.803 7.803 0 0 0-1.038-1.082l10.593-10.186" fill="#8696a6"/><path d="M310.435 140.077l1.347.786-.75.72-1.346-.785.749-.721" fill="#fffffe"/><path d="M297.353 72.952a5.018 5.018 0 0 0 1.429.453l-11.176 35.178a7.763 7.763 0 0 0-1.43-.453l11.177-35.178m-38.974 90.683a5.008 5.008 0 0 0 1.403.53l-7.19 19.07a5.015 5.015 0 0 0-1.403-.53l7.19-19.07m-12.707 26.36a5.028 5.028 0 0 0 .892 1.208l-19.488 14.38a7.762 7.762 0 0 0-.891-1.206l19.487-14.382m-60.863-44.39l8.973 19.012a7.72 7.72 0 0 0-1.356.64l-8.973-19.011a5.011 5.011 0 0 0 1.356-.641m3.866 26.738a7.673 7.673 0 0 0 .23 1.482l-22.042 3.464-.965-1.367 22.777-3.58m-24.43 3.84l.965 1.367-12.945 2.034-.001-.074a5.03 5.03 0 0 0-.23-1.408l12.21-1.92" fill="#8696a6"/><path d="M165.817 175.955l.965 1.368-1.653.26-.965-1.367 1.653-.26" fill="#fffffe"/><path d="M187.52 242.835a7.702 7.702 0 0 0 1.262.812l-2.33 3.626-1.438-.537 2.507-3.901m-3.337 5.193l1.438.537-8.365 13.018c-.375-.33-.8-.605-1.261-.812l8.188-12.743" fill="#8696a6"/><path d="M185.344 246.754l1.438.537-.83 1.292-1.438-.537.83-1.292" fill="#fffffe"/><path d="M450.917 443.853a7.554 7.554 0 0 0 .865.502l-8.248 14.228h-1.156l8.539-14.73m-68.045-17.631a7.72 7.72 0 0 0 .91.414l-6.367 13.947a2.013 2.013 0 0 0-.881-.41l-.03-.005 6.368-13.946m36.073-89.262a7.673 7.673 0 0 0 .837.548l-13.11 20.047-.851-.526 13.124-20.07M405 358.285l.85.526-9.006 13.772a2.022 2.022 0 0 0-.837-.547L405 358.285" fill="#8696a6"/><g transform="rotate(-180 240.39 179.292)"><mask fill="#fff" id="r"><use height="100%" width="100%" xlink:href="#q"/></mask><path mask="url(#r)" d="M74.837 2.16l-.851-.526.821-1.256.851.526-.821 1.256" fill="#fffffe"/><path mask="url(#r)" d="M.724 160.991L0 156.846v-5.808l1.709 9.781a2.017 2.017 0 0 0-.985.172" fill="#8696a6"/></g><path d="M451.252 93.974l21.53 9.697a2 2 0 0 0-.403.873l-.008.039-21.528-9.697a7.721 7.721 0 0 0 .409-.912m-100.32 116.68a7.5 7.5 0 0 0 .85.527l-11.406 18.402a1.997 1.997 0 0 0-.85-.527l11.406-18.402m-33.08 34.808l4.778 8.916c-.31.128-.605.287-.882.473l-4.777-8.917a2.018 2.018 0 0 0 .882-.472m4.96 18.309a5.004 5.004 0 0 0 .969.25l-4.298 16.562a2.01 2.01 0 0 0-.97-.251l4.3-16.561m-70.31-17.996l12.278 10.946a5.036 5.036 0 0 0-.667.746l-12.277-10.944a2.015 2.015 0 0 0 .666-.746m10.87 16.145c.1.32.23.629.39.92l-18.377 7.742a2.019 2.019 0 0 0-.39-.921l18.378-7.741m-38.872 25.443l21.279 2.224-.01.053a4.97 4.97 0 0 0-.094.94l-21.28-2.223a2.024 2.024 0 0 0 .105-.994m14.367-193.04a7.66 7.66 0 0 0 .912.412l-6.255 13.846a2.005 2.005 0 0 0-.874-.404l-.037-.007 6.254-13.846m216.178 335.807a7.797 7.797 0 0 1 3.538.853 7.717 7.717 0 0 1 4.05 8.352 7.69 7.69 0 0 1-2.64 4.459 7.794 7.794 0 0 1-1.69 1.069 7.695 7.695 0 0 1-4.73.573 7.745 7.745 0 0 1-2.818-1.162 7.726 7.726 0 0 1 4.29-14.144m-78.288 9.41a2.01 2.01 0 0 1 .36.033l.029.005a2.02 2.02 0 0 1-.774 3.964 2.02 2.02 0 0 1 .385-4.002" fill="#8696a6"/><g transform="rotate(-180 240.39 187.792)"><mask fill="#fff" id="t"><use height="100%" width="100%" xlink:href="#s"/></mask><path mask="url(#t)" d="M85.306 4.262a2.06 2.06 0 0 1-.655-.109 2.017 2.017 0 0 1-1.329-2.298 2.02 2.02 0 1 1 1.984 2.407m-83.75 177.59A2.012 2.012 0 0 1 0 181.123v-2.581a2.025 2.025 0 0 1 1.709-.723 2.018 2.018 0 0 1-.153 4.033M0 253.91v-1.785a2.01 2.01 0 0 1 0 1.785" fill="#8696a6"/></g><path d="M473.76 102.544a2.02 2.02 0 0 1 .005 4.039 2.02 2.02 0 0 1-1.992-2.367l.008-.04a2.02 2.02 0 0 1 1.979-1.633M338.759 228.544a2.057 2.057 0 0 1 .61.093 2.007 2.007 0 0 1 .848.527 2.02 2.02 0 1 1-1.458-.62m-20 52h.01a2.057 2.057 0 0 1 .969.25 2.02 2.02 0 0 1-1.363 3.752 2.02 2.02 0 0 1 .385-4.002m-75-12a2.01 2.01 0 0 1 1.61.799 2.019 2.019 0 1 1-3.59.834 2.018 2.018 0 0 1 1.98-1.633m-22 17a2.021 2.021 0 0 1 1.897 2.72 2.022 2.022 0 0 1-2.281 1.28 2.018 2.018 0 0 1 .385-4m10.999-177.001a2.01 2.01 0 0 1 .352.03l.037.008a2.016 2.016 0 0 1 1.595 2.368 2.02 2.02 0 0 1-2.37 1.596 2.02 2.02 0 0 1 .386-4.002" fill="#8696a6"/><g transform="rotate(-180 240.39 132.792)"><mask fill="#fff" id="v"><use height="100%" width="100%" xlink:href="#u"/></mask><path mask="url(#v)" d="M17.601 10.533a5.043 5.043 0 1 1 .961-9.995 5.044 5.044 0 0 1-.961 9.995M0 42.297v-6.561a5.06 5.06 0 0 1 .921 1.59c.294.824.377 1.735.198 2.656a5.072 5.072 0 0 1-.544 1.491 5.06 5.06 0 0 1-.575.824m0 53.686v-4.258a4.996 4.996 0 0 1 .426 2.797A5.085 5.085 0 0 1 0 95.983" fill="#8696a6"/></g><path d="M414.732 205.495a5.043 5.043 0 1 1-.96 9.994 5.009 5.009 0 0 1-3.03-1.872 5.03 5.03 0 0 1-.954-4.044 5.022 5.022 0 0 1 1.676-2.87 5.035 5.035 0 0 1 3.269-1.208m40.999-38.001a5.047 5.047 0 0 1 5.005 5.714 5.045 5.045 0 0 1-5.965 4.28 5.043 5.043 0 0 1 .96-9.994m-38-19.999a5.043 5.043 0 1 1-.961 9.994 5.045 5.045 0 0 1 .962-9.994m-19.001 74.999c.32 0 .645.03.97.095a5.009 5.009 0 0 1 3.03 1.872 5.046 5.046 0 0 1-4.96 8.028 5.031 5.031 0 0 1-3.364-2.363v-5.177a5.053 5.053 0 0 1 4.324-2.455" fill="#8696a6"/><path d="M394.639 225.405v5.178a5.024 5.024 0 0 1-.62-3.553 5.03 5.03 0 0 1 .62-1.624" fill="#fffffe"/><path d="M453.732 238.494a5.028 5.028 0 0 1 4.05 2.031 5.016 5.016 0 0 1 .905 3.979 5.022 5.022 0 0 1-2.046 3.157 5.005 5.005 0 0 1-3.87.827 5.045 5.045 0 0 1 .96-9.995m-30 169.001a5.09 5.09 0 0 1 .973.094 5.044 5.044 0 1 1-.971-.094M299.732 63.495a5.043 5.043 0 1 1-.96 9.994 5.044 5.044 0 0 1 .96-9.994m-38.991 91a5.043 5.043 0 0 1 5.04 4.937 5.043 5.043 0 0 1-4.935 5.15h-.11a5.038 5.038 0 0 1-2.458-.64 5.043 5.043 0 0 1 2.354-9.445l.109-.001m-113 19.999a5.047 5.047 0 0 1 5.04 4.938v.074a5.042 5.042 0 0 1-4.935 5.075h-.11a5.043 5.043 0 0 1 .005-10.086m35-38.001a5.044 5.044 0 0 1 .105 10.087h-.11a5.044 5.044 0 0 1-.104-10.085l.109-.001m-8 123.999a5.018 5.018 0 0 1 3.325 1.255 5.043 5.043 0 0 1-3.22 8.832h-.11a5.043 5.043 0 0 1-.104-10.085l.109-.001m75-78.001a5.038 5.038 0 0 1 2.46.642 5.042 5.042 0 0 1 2.58 4.296 5.042 5.042 0 0 1-4.935 5.149h-.11a5.027 5.027 0 0 1-3.564-1.477 5.028 5.028 0 0 1-1.475-3.458 5.043 5.043 0 0 1 5.044-5.151m74.99 71.998a5.043 5.043 0 1 1-1.74 9.777 5.052 5.052 0 0 1-3.231-3.913 5.018 5.018 0 0 1 .028-1.786 5.028 5.028 0 0 1 3.02-3.694 5.008 5.008 0 0 1 1.925-.384m-56.001 1a5.046 5.046 0 0 1 5.003 5.724 5.043 5.043 0 1 1-9.948-1.646 5.039 5.039 0 0 1 4.945-4.078m0 49a5.09 5.09 0 0 1 .972.095 5.043 5.043 0 0 1 1.415 9.396 5.054 5.054 0 0 1-2.375.598 5.044 5.044 0 0 1-5.041-5.344l4.295-4.69a4.968 4.968 0 0 1 .735-.055" fill="#8696a6"/><path d="M267.782 304.893l-4.295 4.69a5.024 5.024 0 0 1 2.183-3.859 5.034 5.034 0 0 1 2.102-.83l.01-.001" fill="#fffffe"/><path d="M250.732 285.495a5.047 5.047 0 0 1 3.956 8.18 5.047 5.047 0 0 1-1.098 1.023 5.031 5.031 0 0 1-3.818.79 5.044 5.044 0 0 1-3.984-5.915l.01-.053a5.044 5.044 0 0 1 4.934-4.025m136.316 125.638" fill="#8696a6"/><g transform="rotate(-180 240.39 169.292)"><mask fill="#fff" id="x"><use height="100%" width="100%" xlink:href="#w"/></mask><path mask="url(#x)" d="M57.083 16.132a7.724 7.724 0 1 1 7.573-6.246 7.728 7.728 0 0 1-7.573 6.246M3.582 40.947A7.795 7.795 0 0 1 0 40.072V26.374a7.698 7.698 0 0 1 5.052-.732c.424.082.833.198 1.225.344l4.575 4.651a7.68 7.68 0 0 1 .302 4.065 7.683 7.683 0 0 1-2.099 3.962 7.756 7.756 0 0 1-1.582 1.225 7.699 7.699 0 0 1-3.891 1.058" fill="#8696a6"/></g><path d="M469.207 307.932l4.575 4.65a7.726 7.726 0 0 1-4.575-4.65" fill="#fffffe"/><path d="M403.049 271.133a7.723 7.723 0 0 1 7.589 9.204 7.696 7.696 0 0 1-3.27 4.93 7.775 7.775 0 0 1-1.32.713 7.67 7.67 0 0 1-4.47.459 7.724 7.724 0 0 1 1.47-15.306m-53-14a7.725 7.725 0 0 1 .017 15.45 7.725 7.725 0 0 1-.017-15.45m88-9a7.78 7.78 0 0 1 1.369.122l.12.023a7.724 7.724 0 1 1-1.488-.145m2.999-62a7.725 7.725 0 1 1-1.35 15.328l-.12-.023a7.724 7.724 0 1 1 1.47-15.305" fill="#8696a6"/><path d="M388.049 179.134a7.692 7.692 0 0 1 1.488.144 7.724 7.724 0 0 1 5.274 11.332v-2.354h-1.5v4.265a7.723 7.723 0 0 1-12.834-7.142 7.726 7.726 0 0 1 7.572-6.245" fill="#fffffe"/><path d="M393.282 188.318h1.5v2.354a7.714 7.714 0 0 1-1.44 1.855l-.06.056v-4.265" fill="#fffffe"/><path d="M390.049 110.134c.49 0 .989.047 1.488.144a7.701 7.701 0 0 1 4.957 3.31 7.714 7.714 0 0 1 1.144 5.75 7.68 7.68 0 0 1-2.203 4.065 7.733 7.733 0 0 1-5.37 2.18 7.692 7.692 0 0 1-1.487-.144 7.724 7.724 0 0 1 1.47-15.305m53-27.001a7.724 7.724 0 0 1 7.243 10.435 7.737 7.737 0 0 1-8.713 4.871 7.7 7.7 0 0 1-4.956-3.311 7.705 7.705 0 0 1-1.145-5.75 7.726 7.726 0 0 1 7.572-6.245m-149.001 66c.49 0 .99.047 1.488.145a7.693 7.693 0 0 1 4.58 2.792 7.705 7.705 0 0 1 1.52 6.268 7.708 7.708 0 0 1-3.901 5.312 7.727 7.727 0 0 1-3.67.933 7.725 7.725 0 0 1-.017-15.45m62 47c.49 0 .989.047 1.488.144a7.7 7.7 0 0 1 4.78 3.056 7.765 7.765 0 0 1 .953 1.758 7.683 7.683 0 0 1 .368 4.246 7.725 7.725 0 0 1-12.066 4.81 7.725 7.725 0 0 1 4.478-14.014m-89.987.002a7.723 7.723 0 0 1 7.718 7.56 7.723 7.723 0 0 1-7.557 7.886l-.168.002a7.728 7.728 0 0 1-7.456-5.714 7.736 7.736 0 0 1-.262-1.845l-.002-.138a7.722 7.722 0 0 1 7.727-7.75m18.986-88.003a7.895 7.895 0 0 1 1.488.145l.133.027a7.704 7.704 0 0 1 4.809 3.262 7.744 7.744 0 0 1 .888 1.793 7.68 7.68 0 0 1 .27 3.978 7.72 7.72 0 0 1-9.06 6.1 7.724 7.724 0 0 1 1.472-15.305m41-20a7.723 7.723 0 0 1 7.589 9.204 7.725 7.725 0 0 1-9.06 6.1 7.701 7.701 0 0 1-4.942-3.288 7.74 7.74 0 0 1-.887-1.793 7.666 7.666 0 0 1-.27-3.977 7.723 7.723 0 0 1 7.57-6.246m-101.986 46.002a7.724 7.724 0 0 1 .16 15.446 4.677 4.677 0 0 1-.166.002 7.69 7.69 0 0 1-4.38-1.362 7.842 7.842 0 0 1-1.485-1.338 7.723 7.723 0 0 1 5.703-12.745l.168-.002m-4 68.001a7.708 7.708 0 0 1 6.628 3.76 7.722 7.722 0 0 1 1.09 3.798v.138a7.723 7.723 0 0 1-7.557 7.749h-.168a7.727 7.727 0 0 1-6.133-3.032 7.724 7.724 0 0 1 5.973-12.412l.167-.001m-27 26.998a7.694 7.694 0 0 1 4.725 1.615 7.795 7.795 0 0 1 1.41 1.42 7.723 7.723 0 0 1-5.973 12.411c-.057.002-.113.002-.168.002a7.683 7.683 0 0 1-4.784-1.662 7.725 7.725 0 0 1 4.622-13.783c.056-.002.112-.002.167-.002m4-64.999a7.681 7.681 0 0 1 4.378 1.362 7.701 7.701 0 0 1 3.34 6.197 7.724 7.724 0 0 1-7.557 7.886h-.168c-.498 0-.985-.046-1.458-.137a7.733 7.733 0 0 1-6.017-5.651 7.673 7.673 0 0 1-.242-1.77 7.72 7.72 0 0 1 7.557-7.886l.168-.001m259.12 169.271a11.743 11.743 0 0 1 2.232.217 11.562 11.562 0 0 1 8.05 6.006l-6.024 1.77a6.096 6.096 0 0 0-11.688 2.426 6.094 6.094 0 1 0 12.11-.986l6.214-1.826a11.53 11.53 0 0 1 .49 6.2 11.597 11.597 0 0 1-11.358 9.368c-.736 0-1.483-.07-2.232-.216-6.28-1.226-10.377-7.31-9.152-13.59a11.549 11.549 0 0 1 1.253-3.432 11.605 11.605 0 0 1 10.105-5.937" fill="#8696a6"/><path d="M466.169 340.373a11.55 11.55 0 0 1 .613 1.384l-6.214 1.826a6.116 6.116 0 0 0-.422-1.44l6.023-1.77" fill="#fffffe"/><path d="M454.687 338.394a6.096 6.096 0 0 1 6.016 5.109 6.094 6.094 0 1 1-6.016-5.109" fill="#fffffe"/></g></svg>