<svg width="146" height="175" fill="none" xmlns="http://www.w3.org/2000/svg"><g filter="url(#filter0_d)"><path d="M74.58 128.184c-11.128 0-20.436-2.392-27.924-7.176-7.384-4.888-12.636-11.492-15.756-19.812l21.528-12.48c4.368 10.088 12.012 15.132 22.932 15.132 9.88 0 14.82-2.964 14.82-8.892 0-3.224-1.612-5.72-4.836-7.488-3.12-1.872-9.048-4.004-17.784-6.396-4.576-1.248-8.58-2.652-12.012-4.212-3.432-1.56-6.812-3.588-10.14-6.084-3.224-2.6-5.72-5.824-7.488-9.672-1.664-3.848-2.496-8.268-2.496-13.26 0-10.088 3.588-18.148 10.764-24.18 7.28-6.032 15.912-9.048 25.896-9.048 8.944 0 16.848 2.132 23.712 6.396 6.864 4.16 12.272 10.244 16.224 18.252L90.96 51.588c-1.976-4.16-4.42-7.28-7.332-9.36-2.912-2.184-6.76-3.276-11.544-3.276-3.744 0-6.656.832-8.736 2.496-1.976 1.56-2.964 3.484-2.964 5.772 0 2.704 1.248 5.044 3.744 7.02 2.6 1.976 7.904 4.16 15.912 6.552 4.368 1.352 7.748 2.444 10.14 3.276 2.392.832 5.408 2.236 9.048 4.212 3.744 1.872 6.552 3.9 8.424 6.084 1.976 2.08 3.692 4.888 5.148 8.424 1.56 3.432 2.34 7.384 2.34 11.856 0 10.4-3.744 18.616-11.232 24.648-7.488 5.928-17.264 8.892-29.328 8.892z" fill="#fff"/></g><defs><filter id="filter0_d" x=".9" y=".616" width="144.24" height="173.568" filterUnits="userSpaceOnUse" color-interpolation-filters="sRGB"><feFlood flood-opacity="0" result="BackgroundImageFix"/><feColorMatrix in="SourceAlpha" values="0 0 0 0 0 0 0 0 0 0 0 0 0 0 0 0 0 0 127 0"/><feOffset dy="16"/><feGaussianBlur stdDeviation="15"/><feColorMatrix values="0 0 0 0 0 0 0 0 0 0 0 0 0 0 0 0 0 0 0.08 0"/><feBlend in2="BackgroundImageFix" result="effect1_dropShadow"/><feBlend in="SourceGraphic" in2="effect1_dropShadow" result="shape"/></filter></defs></svg>