<svg width="175" height="175" fill="none" xmlns="http://www.w3.org/2000/svg"><g filter="url(#filter0_d)"><path d="M127.712 111.804c-11.024 10.92-24.44 16.38-40.248 16.38-15.808 0-29.224-5.46-40.248-16.38C36.192 100.884 30.68 87.416 30.68 71.4c0-16.016 5.512-29.484 16.536-40.404 11.024-10.92 24.44-16.38 40.248-16.38 15.808 0 29.224 5.46 40.248 16.38 11.024 10.92 16.536 24.388 16.536 40.404 0 16.016-5.512 29.484-16.536 40.404zM64.688 94.8c6.136 6.032 13.728 9.048 22.776 9.048s16.588-3.016 22.62-9.048c6.136-6.032 9.204-13.832 9.204-23.4 0-9.568-3.068-17.368-9.204-23.4-6.032-6.032-13.572-9.048-22.62-9.048-9.048 0-16.64 3.016-22.776 9.048-6.032 6.032-9.048 13.832-9.048 23.4 0 9.568 3.016 17.368 9.048 23.4z" fill="#fff"/></g><defs><filter id="filter0_d" x=".68" y=".616" width="173.568" height="173.568" filterUnits="userSpaceOnUse" color-interpolation-filters="sRGB"><feFlood flood-opacity="0" result="BackgroundImageFix"/><feColorMatrix in="SourceAlpha" values="0 0 0 0 0 0 0 0 0 0 0 0 0 0 0 0 0 0 127 0"/><feOffset dy="16"/><feGaussianBlur stdDeviation="15"/><feColorMatrix values="0 0 0 0 0 0 0 0 0 0 0 0 0 0 0 0 0 0 0.08 0"/><feBlend in2="BackgroundImageFix" result="effect1_dropShadow"/><feBlend in="SourceGraphic" in2="effect1_dropShadow" result="shape"/></filter></defs></svg>