<svg width="145" height="170" fill="none" xmlns="http://www.w3.org/2000/svg"><g filter="url(#filter0_d)"><path d="M87.768 124L67.176 88.12H55.32V124H30.36V14.8h43.68c10.4 0 19.24 3.64 26.52 10.92 7.28 7.28 10.92 16.12 10.92 26.52 0 6.656-1.872 12.844-5.616 18.564-3.64 5.616-8.476 9.984-14.508 13.104L114.6 124H87.768zM55.32 38.2v28.08h18.72c3.432 0 6.344-1.352 8.736-4.056 2.496-2.704 3.744-6.032 3.744-9.984s-1.248-7.28-3.744-9.984c-2.392-2.704-5.304-4.056-8.736-4.056H55.32z" fill="#fff"/></g><defs><filter id="filter0_d" x=".36" y=".8" width="144.24" height="169.2" filterUnits="userSpaceOnUse" color-interpolation-filters="sRGB"><feFlood flood-opacity="0" result="BackgroundImageFix"/><feColorMatrix in="SourceAlpha" values="0 0 0 0 0 0 0 0 0 0 0 0 0 0 0 0 0 0 127 0"/><feOffset dy="16"/><feGaussianBlur stdDeviation="15"/><feColorMatrix values="0 0 0 0 0 0 0 0 0 0 0 0 0 0 0 0 0 0 0.08 0"/><feBlend in2="BackgroundImageFix" result="effect1_dropShadow"/><feBlend in="SourceGraphic" in2="effect1_dropShadow" result="shape"/></filter></defs></svg>