<svg width="140" height="170" fill="none" xmlns="http://www.w3.org/2000/svg"><g filter="url(#filter0_d)"><path d="M71.7 14.8c10.712 0 19.76 3.64 27.144 10.92 7.384 7.28 11.076 16.12 11.076 26.52 0 10.4-3.692 19.24-11.076 26.52C91.46 86.04 82.412 89.68 71.7 89.68H55.32V124H30.36V14.8H71.7zm0 51.48c3.848 0 7.02-1.352 9.516-4.056 2.496-2.704 3.744-6.032 3.744-9.984s-1.248-7.28-3.744-9.984C78.72 39.552 75.548 38.2 71.7 38.2H55.32v28.08H71.7z" fill="#fff"/></g><defs><filter id="filter0_d" x=".36" y=".8" width="139.56" height="169.2" filterUnits="userSpaceOnUse" color-interpolation-filters="sRGB"><feFlood flood-opacity="0" result="BackgroundImageFix"/><feColorMatrix in="SourceAlpha" values="0 0 0 0 0 0 0 0 0 0 0 0 0 0 0 0 0 0 127 0"/><feOffset dy="16"/><feGaussianBlur stdDeviation="15"/><feColorMatrix values="0 0 0 0 0 0 0 0 0 0 0 0 0 0 0 0 0 0 0.08 0"/><feBlend in2="BackgroundImageFix" result="effect1_dropShadow"/><feBlend in="SourceGraphic" in2="effect1_dropShadow" result="shape"/></filter></defs></svg>