<svg width="62" height="62" fill="none" xmlns="http://www.w3.org/2000/svg"><g clip-path="url(#clip0)"><path d="M24.395 61.796c-.11 0-.218 0-.325-.009-8.688-.522-16.18-20.884-16.906-24.397-1.075-5.173 2.192-10.166 7.597-11.615 5.44-1.462 12.343 2.1 13.67 7.05.688 2.57-.243 4.706-1.065 6.59-1.072 2.46-1.605 3.948-.103 5.92 4.924 6.474 4.52 10.525 3.31 12.784a7.25 7.25 0 0 1-6.178 3.677zm-7.01-34.286a8.08 8.08 0 0 0-2.09.264 7.959 7.959 0 0 0-6.104 9.196 59.363 59.363 0 0 0 5.394 12.965c3.415 6.144 6.83 9.622 9.611 9.787a5.226 5.226 0 0 0 4.553-2.578c1.32-2.472.236-6.123-3.136-10.553-2.308-3.033-1.158-5.676-.144-8 .753-1.727 1.464-3.358.963-5.229-.881-3.29-5.116-5.852-9.048-5.852z" fill="#E94635"/><path d="M25.477 25.969a4.144 4.144 0 1 1 0-8.287 4.144 4.144 0 0 1 0 8.287zm.01-6.208a2.07 2.07 0 1 0-.002 4.138 2.07 2.07 0 0 0 .003-4.138zm-7.801 4.051a3.104 3.104 0 1 1 .006-6.21 3.104 3.104 0 0 1-.006 6.21zm0-4.139a1.034 1.034 0 0 0-1 1.302 1.035 1.035 0 1 0 1.516-1.163 1.01 1.01 0 0 0-.515-.14v.001zm-6.995 6.012a3.104 3.104 0 1 1 .006-6.206 3.104 3.104 0 0 1-.006 6.205v.001zm0-4.138a1.035 1.035 0 1 0-.001 0h.001zM5.499 30.29a3.103 3.103 0 1 1 .003-6.207A3.103 3.103 0 0 1 5.5 30.29zm0-4.138a1.035 1.035 0 1 0-.002 2.07 1.035 1.035 0 0 0 .002-2.07zM3.101 37.359a3.103 3.103 0 1 1 .004-6.207 3.103 3.103 0 0 1-.004 6.207zm.007-4.139z" fill="#1187E9"/><path d="M43.887 45.029a7.351 7.351 0 0 1-5.31-2.216c-1.797-1.92-3.287-5.806-.18-13.399.977-2.389-.103-3.698-1.592-5.51-1.284-1.556-2.74-3.329-2.74-6.005 0-5.125 5.743-10.347 11.38-10.347 5.596 0 10.044 3.978 10.347 9.253.207 3.582-1.759 25.189-10.018 27.941a6.01 6.01 0 0 1-1.887.283zm1.559-35.407c-4.526 0-9.312 4.254-9.312 8.277 0 1.934 1.102 3.273 2.269 4.69 1.572 1.91 3.355 4.076 1.909 7.61-2.69 6.577-1.608 9.725-.224 11.201a5.198 5.198 0 0 0 5.03 1.383c2.65-.883 5.047-5.123 6.75-11.94a59.294 59.294 0 0 0 1.855-13.92 7.957 7.957 0 0 0-8.277-7.301z" fill="#E94635"/><path d="M34.065 10.656a4.139 4.139 0 1 1 0-8.277 4.139 4.139 0 0 1 0 8.277zm0-6.208a2.07 2.07 0 1 0 0 4.139 2.07 2.07 0 0 0 0-4.139z" fill="#1187E9"/><path d="M41.307 6.518a3.104 3.104 0 1 1 0-6.208 3.104 3.104 0 0 1 0 6.208zm0-4.139a1.034 1.034 0 1 0 0 2.07 1.034 1.034 0 0 0 0-2.07zm7.243 4.139a3.104 3.104 0 1 1 0-6.208 3.104 3.104 0 0 1 0 6.208zm0-4.139a1.034 1.034 0 1 0 0 2.069 1.034 1.034 0 0 0 0-2.069zm6.208 7.243a3.104 3.104 0 1 1 0-6.208 3.104 3.104 0 0 1 0 6.208zm0-4.139a1.034 1.034 0 1 0-.001 2.069 1.034 1.034 0 0 0 0-2.069zm4.138 10.347a3.104 3.104 0 1 1 0-6.209 3.104 3.104 0 0 1 0 6.208zm0-4.139a1.034 1.034 0 1 0 0 2.069 1.034 1.034 0 0 0 0-2.069zm-19.325 8.011a1.035 1.035 0 0 1-.647-1.843 11.365 11.365 0 0 1 11.591-1.573 1.034 1.034 0 0 1-.815 1.901 9.293 9.293 0 0 0-9.485 1.288c-.182.146-.41.227-.644.227zM23.385 37.29c-.235 0-.462-.08-.645-.226a9.3 9.3 0 0 0-9.485-1.288 1.034 1.034 0 1 1-.815-1.901 11.36 11.36 0 0 1 11.588 1.573 1.035 1.035 0 0 1-.648 1.843h.005z" fill="#1187E9"/></g><defs><clipPath id="clip0"><path fill="#fff" d="M0 0h62v62H0z"/></clipPath></defs></svg>