<svg width="72" height="72" fill="none" xmlns="http://www.w3.org/2000/svg"><g clip-path="url(#clip0)"><path d="M50.966 72c-.02 0-.039 0-.059-.002a1.046 1.046 0 0 1-.986-1.103c.095-1.721.433-3.496 1.031-5.425a1.045 1.045 0 1 1 2 .62c-.548 1.764-.855 3.374-.942 4.922a1.046 1.046 0 0 1-1.044.988z" fill="#E94635"/><path d="M24.239 18.114a1.046 1.046 0 0 0 1.373-.554c.296-.697.528-1.43.691-2.178a1.047 1.047 0 0 0-2.045-.446 10.15 10.15 0 0 1-.573 1.806 1.046 1.046 0 0 0 .554 1.372zm.187-6.578a1.046 1.046 0 1 0 2.079-.245 11.88 11.88 0 0 0-.485-2.24 1.047 1.047 0 0 0-1.993.64c.19.593.324 1.214.399 1.845zm-1.031 8.029a1.046 1.046 0 0 0-1.417.424 18.03 18.03 0 0 1-.334.592 1.046 1.046 0 1 0 1.796 1.074c.12-.2.244-.42.38-.672a1.047 1.047 0 0 0-.425-1.418zm22.935-7.112a1.047 1.047 0 0 0 1.162-.917 9.83 9.83 0 0 1 .398-1.846 1.046 1.046 0 1 0-1.992-.639 11.936 11.936 0 0 0-.485 2.24 1.046 1.046 0 0 0 .916 1.162zm1.768 8.53c.135.252.26.472.38.671a1.046 1.046 0 1 0 1.796-1.073 14.987 14.987 0 0 1-.334-.592 1.047 1.047 0 0 0-1.842.994zm-1.684-6.846c-.565.123-.923.68-.8 1.245.163.748.396 1.48.692 2.178a1.046 1.046 0 1 0 1.927-.818 10.12 10.12 0 0 1-.574-1.806 1.046 1.046 0 0 0-1.245-.8zM16.457 49.324a1.048 1.048 0 0 0 1.279.744c.558-.147.892-.72.745-1.278a48.033 48.033 0 0 1-.48-1.991 1.046 1.046 0 1 0-2.046.447c.15.682.319 1.381.502 2.078zm1.82 5.678a1.047 1.047 0 1 0 1.96-.735 59.444 59.444 0 0 1-.69-1.938 1.047 1.047 0 0 0-1.984.668c.223.663.463 1.337.714 2.005zm6.74 9.916c-.25-.594-.53-1.215-.883-1.953a1.046 1.046 0 1 0-1.888.902c.338.708.605 1.299.842 1.862a1.046 1.046 0 1 0 1.929-.811zm-9.721-21.474a1.047 1.047 0 0 0 2.076-.263 34.528 34.528 0 0 1-.195-2.02 1.047 1.047 0 0 0-2.089.138c.046.697.116 1.419.208 2.145zm.836-4.933c.542 0 1-.417 1.043-.966.093-1.214.26-1.855.265-1.874a1.047 1.047 0 0 0-2.019-.554c-.022.081-.224.84-.333 2.268a1.047 1.047 0 0 0 1.044 1.126zm4.463 21.964a1.046 1.046 0 1 0 1.893-.892 74.717 74.717 0 0 1-.854-1.88 1.047 1.047 0 0 0-1.917.84c.28.639.575 1.288.878 1.932zm5.852 9.123c-.052-.31-.116-.626-.188-.94a1.047 1.047 0 1 0-2.04.47c.064.276.12.553.166.823.043.25.084.505.122.762a1.047 1.047 0 1 0 2.07-.31c-.04-.271-.084-.54-.13-.805zm29.407-29.413a1.045 1.045 0 0 0-1.114.975 33.526 33.526 0 0 1-.196 2.021 1.046 1.046 0 1 0 2.077.263c.092-.727.162-1.448.208-2.145a1.047 1.047 0 0 0-.975-1.114zm.975-2.8c-.11-1.428-.311-2.187-.334-2.268a1.045 1.045 0 0 0-1.282-.73 1.049 1.049 0 0 0-.736 1.283c.002.007.171.648.265 1.875a1.047 1.047 0 0 0 2.087-.16zm-2.913 9.414a49.421 49.421 0 0 1-.48 1.991 1.046 1.046 0 0 0 2.023.534 49.57 49.57 0 0 0 .502-2.078 1.047 1.047 0 0 0-2.045-.447zm-.276 8.203c.25-.668.49-1.342.714-2.005a1.047 1.047 0 0 0-1.983-.668 62.75 62.75 0 0 1-.69 1.938 1.047 1.047 0 0 0 1.96.735zm-6.728 12.871a1.046 1.046 0 0 0-1.254.786c-.072.313-.136.63-.189.939-.045.265-.088.534-.129.805a1.047 1.047 0 1 0 2.07.31c.038-.257.08-.511.122-.762.047-.27.103-.547.166-.823a1.046 1.046 0 0 0-.786-1.255zm4.749-10.708a1.046 1.046 0 0 0-1.378.539 75.74 75.74 0 0 1-.855 1.88 1.047 1.047 0 0 0 1.894.89 79.44 79.44 0 0 0 .878-1.93 1.046 1.046 0 0 0-.539-1.379zm-2.483 5.307a1.046 1.046 0 0 0-1.395.493 44.782 44.782 0 0 0-.883 1.953 1.047 1.047 0 0 0 1.93.81c.236-.562.504-1.153.841-1.86a1.047 1.047 0 0 0-.493-1.396z" fill="#1187E9"/><path d="M60.87 38.285a30.078 30.078 0 0 0-1.098-4.63c-.222-.681-.512-1.34-.676-2.032-.167-.71-.145-1.434-.283-2.147a15.34 15.34 0 0 0-.723-2.485c-.893-2.361-2.378-4.321-3.514-6.542a35.143 35.143 0 0 1-1.466-3.28 39.05 39.05 0 0 1-1.825-6.242c-.65-3.16-1.085-6.557-.812-9.792a1.046 1.046 0 0 0-2.085-.178c-.04.468-.9 11.388 5.109 21.895-6.433.846-12.172 1.218-17.491 1.133h-.064c-5.33.086-11.076-.288-17.52-1.137C24.429 12.342 23.57 1.425 23.529.957a1.047 1.047 0 0 0-2.085.18c.009.11.876 11.088-5.138 21.186a23.002 23.002 0 0 0-1.868 3.293c-.573 1.235-1.047 2.537-1.307 3.88a6.29 6.29 0 0 0-.003.019c-.166.849-.086 1.7-.374 2.513-.308.867-.687 1.707-.927 2.597a35.38 35.38 0 0 0-.78 3.66c-.996 6.262.058 11.807 3.417 17.978 2.713 4.984 5.17 9.862 5.443 14.749a1.047 1.047 0 0 0 2.09-.117c-.297-5.32-2.863-10.43-5.694-15.633-3.124-5.739-4.108-10.873-3.19-16.649a32.87 32.87 0 0 1 1.18-4.946c.038-.115.13-.31.217-.498.02-.044.04-.09.062-.134.867.06 1.734.106 2.58.15 1.171.061 2.382.125 3.562.226a1.046 1.046 0 1 0 .18-2.085 108.64 108.64 0 0 0-3.633-.23c-.73-.04-1.475-.078-2.218-.127l.004-.062a8.9 8.9 0 0 1 .04-.399c.164-1.285.593-2.53 1.117-3.71.081-.183.864-1.996 1.02-2 6.92.952 13.059 1.37 18.743 1.28h.014c5.677.09 11.806-.328 18.714-1.275.83 1.441 2.016 3.865 2.18 6.168-.733.047-1.468.086-2.187.123-1.331.07-2.707.142-4.068.27-5.31.5-10.588 3.48-14.646 8.23-2.855-3.334-6.394-5.868-10.078-7.196a1.047 1.047 0 0 0-.71 1.97c3.577 1.289 7.018 3.85 9.726 7.228v29.113a1.046 1.046 0 0 0 2.093 0V41.633c3.778-4.734 8.796-7.712 13.812-8.184 1.317-.124 2.67-.195 3.98-.264a147.17 147.17 0 0 0 2.55-.148l.06.132c.088.188.179.383.216.498a32.642 32.642 0 0 1 1.18 4.947c.919 5.775-.065 10.91-3.189 16.649-.93 1.708-1.911 3.536-2.8 5.458a1.047 1.047 0 0 0 1.899.879c.863-1.865 1.826-3.66 2.74-5.337 3.359-6.171 4.412-11.716 3.417-17.978z" fill="#E94635"/></g><defs><clipPath id="clip0"><path fill="#fff" d="M0 0h72v72H0z"/></clipPath></defs></svg>