<svg width="58" height="58" fill="none" xmlns="http://www.w3.org/2000/svg"><path d="M32.564 32.655l.247 1.945c.37-.05.747-.074 1.121-.074h.668v-1.962h-.668c-.457 0-.917.03-1.368.09zm-4.949 3.425l-.503-.462-1.676.985 1.442 1.052 1.582-.935v0l.03-.018-.875-.622zm.876-2.459l.779 1.997c.398-.35.82-.642 1.257-.866l-.499-2.188a7.672 7.672 0 0 0-1.537 1.057zm18.391-18.622l1.965-1.788 1.203 1.323-1.965 1.788-1.203-1.323zM41.727 26.44l1.599.015c.023-3.342 1.296-6.601 3.492-8.942l-1.119-1.24c-2.497 2.662-3.944 6.367-3.972 10.168z" fill="#1187E9" stroke="#1187E9" stroke-width=".4"/><path d="M45.917 1l-8.452 7.748a9.457 9.457 0 0 1-6.408 2.492c-2.967 0-5.589 1.978-6.439 4.777-2.76.84-4.776 3.407-4.776 6.439v2.537c0 1.27-.542 2.485-1.485 3.335l-5.655 5.09a4.483 4.483 0 0 1-3 1.15H7.728A6.736 6.736 0 0 0 1 41.299c0 3.711 3.018 6.73 6.806 6.73.579 0 1.123.225 1.532.634.409.409.634.954.634 1.609A6.736 6.736 0 0 0 16.702 57a6.736 6.736 0 0 0 6.728-6.73v-2.537c0-1.27.542-2.484 1.485-3.334l5.655-5.09a4.483 4.483 0 0 1 3-1.151h1.973c3.032 0 5.599-2.016 6.438-4.777 2.799-.85 4.777-3.472 4.777-6.439V26.6a9.5 9.5 0 0 1 3.104-7.016L57 13.093 45.917 1zM35.543 36.363h-1.972a6.271 6.271 0 0 0-4.202 1.613l-5.654 5.09a6.29 6.29 0 0 0-2.079 4.667v2.538a4.94 4.94 0 0 1-4.935 4.934c-2.72 0-4.934-2.214-4.934-5.011a3.936 3.936 0 0 0-1.16-2.8c-.747-.75-1.742-1.161-2.878-1.161a4.94 4.94 0 0 1-4.935-4.935 4.94 4.94 0 0 1 4.935-4.935h1.972a6.271 6.271 0 0 0 4.202-1.612l5.654-5.09a6.29 6.29 0 0 0 2.08-4.668v-2.537a4.94 4.94 0 0 1 4.934-4.935c2.721 0 4.934 2.214 4.934 5.012 0 1.058.412 2.052 1.16 2.8.747.749 1.742 1.16 2.878 1.16a4.94 4.94 0 0 1 4.935 4.935 4.94 4.94 0 0 1-4.935 4.935zm13.112-18.109a11.302 11.302 0 0 0-3.691 8.345v.343c0 1.875-1.087 3.548-2.697 4.377-.06-3.66-3.05-6.62-6.801-6.62a2.151 2.151 0 0 1-1.532-.634c-.409-.41-.634-.954-.634-1.61 0-3.672-2.96-6.663-6.62-6.723.83-1.61 2.502-2.697 4.377-2.697 2.829 0 5.535-1.053 7.62-2.965l7.128-6.534 8.655 9.44-5.805 5.278z" fill="#E94635" stroke="#E94635" stroke-width=".4"/></svg>