<svg width="56" height="73" fill="none" xmlns="http://www.w3.org/2000/svg"><path d="M50.846 1h-9.538a4.159 4.159 0 0 0-4.154 4.154 4.16 4.16 0 0 0 3.69 4.128l-2.858 2.858c-3.954-2.763-8.578-4.217-13.448-4.217-3.947 0-7.852.997-11.294 2.883a1.385 1.385 0 0 0 1.33 2.429 20.787 20.787 0 0 1 9.964-2.542c4.66 0 9.064 1.508 12.735 4.362a1.385 1.385 0 0 0 1.829-.115l6.038-6.038a1.385 1.385 0 0 0-.98-2.364h-2.852a1.386 1.386 0 0 1-1.385-1.384c0-.764.622-1.385 1.385-1.385h9.538c.764 0 1.385.621 1.385 1.385v9.538c0 .763-.622 1.384-1.385 1.384a1.386 1.386 0 0 1-1.385-1.384v-2.853a1.385 1.385 0 0 0-2.363-.98l-6.038 6.039a1.385 1.385 0 0 0-.114 1.829c2.853 3.67 4.361 8.074 4.361 12.735 0 10.456-7.812 19.316-18.17 20.608a1.385 1.385 0 0 0-1.214 1.374v5.986c0 .765.62 1.385 1.385 1.385h2.769a1.385 1.385 0 0 1 0 2.769h-2.77c-.764 0-1.384.62-1.384 1.385v2.77c0 .763-.621 1.384-1.385 1.384a1.386 1.386 0 0 1-1.384-1.385v-2.77c0-.764-.62-1.384-1.385-1.384H19a1.386 1.386 0 0 1-1.384-1.385c0-.763.621-1.384 1.385-1.384h2.77c.764 0 1.384-.62 1.384-1.385v-5.986c0-.699-.52-1.288-1.214-1.374C11.581 50.778 3.77 41.918 3.77 31.462c0-3.483.879-6.929 2.542-9.965a1.384 1.384 0 1 0-2.428-1.33A23.564 23.564 0 0 0 1 31.462C1 42.9 9.25 52.654 20.384 54.634v3.411H19a4.159 4.159 0 0 0-4.154 4.154A4.159 4.159 0 0 0 19 66.353h1.384v1.385a4.159 4.159 0 0 0 4.154 4.154 4.159 4.159 0 0 0 4.154-4.154v-1.385h1.385A4.159 4.159 0 0 0 34.23 62.2a4.159 4.159 0 0 0-4.154-4.154h-1.385v-3.41C39.827 52.652 48.077 42.9 48.077 31.461c0-4.87-1.454-9.494-4.217-13.448l2.858-2.858a4.16 4.16 0 0 0 4.128 3.69A4.159 4.159 0 0 0 55 14.692V5.154A4.159 4.159 0 0 0 50.846 1v0z" fill="#E94635" stroke="#DBEDFC" stroke-width=".6"/><path d="M24.538 49.462c9.925 0 18-8.075 18-18 0-9.926-8.075-18-18-18s-18 8.074-18 18c0 9.925 8.075 18 18 18zm0-33.231c8.398 0 15.23 6.832 15.23 15.23 0 8.399-6.832 15.231-15.23 15.231s-15.23-6.832-15.23-15.23c0-8.399 6.832-15.231 15.23-15.231z" fill="#1187E9" stroke="#DBEDFC" stroke-width=".6"/><path d="M8.874 17.181c.313 0 .627-.105.885-.32l.001-.001a1.384 1.384 0 1 0-.886.321z" fill="#1187E9"/></svg>