<svg width="46" height="77" fill="none" xmlns="http://www.w3.org/2000/svg"><path d="M39.386 67.303c-1.585-.534-3.367-1-5.083-1.433-3.037-.767-5.909-1.5-7.46-2.6-4.357-3.1-6.074-11.234-4.985-23.467 1.453-16.1 2.014-38 2.014-38.234 0-.3-.231-.566-.528-.566-.363-.034-.561.233-.561.533 0 .233-.595 22.1-2.014 38.167-1.122 12.666.76 21.133 5.447 24.466 1.683 1.2 4.654 1.967 7.822 2.767 1.684.433 3.433.867 4.985 1.4 3.4 1.133 4.918 2.7 4.852 3.667-.033.7-.957 1.333-2.476 1.7-4.588 1.066-20.993 2.033-28.75-.1-1.914-.533-3.07-1.267-3.532-2.3-.66-1.534.165-3.767 1.65-6.633 2.74-5.334-.494-15.667-2.508-19.834C1.294 30.303.238 15.803 5.057 1.736a.56.56 0 0 0-.33-.7.552.552 0 0 0-.693.333C-.917 15.736.205 30.536 7.302 45.336 9.15 49.17 12.352 59.27 9.81 64.17c-1.617 3.166-2.541 5.666-1.683 7.6.594 1.366 1.98 2.333 4.258 2.933 3.532.966 8.615 1.3 13.6 1.3 6.634 0 13.104-.6 15.678-1.2 2.84-.667 3.301-1.967 3.334-2.733.066-1.734-2.08-3.567-5.611-4.767z" fill="#E94635" stroke="#E94635"/><path d="M14.299 41.604c3.73 6.633 3.697 14.6 3.003 20.133-.429 3.467-2.805 7.233-2.838 7.267a.548.548 0 0 0 .165.766c.099.067.198.1.297.1.165 0 .363-.1.462-.266.066-.134 1.617-2.567 2.476-5.4.89 2.3 3.102 5.566 8.582 6.333h.066c.264 0 .495-.2.528-.467a.583.583 0 0 0-.462-.633c-7.46-1.067-8.153-6.933-8.22-7.6.694-5.667.694-13.867-3.135-20.767-4.324-7.8-4.621-22.7-4.423-31.066 1.287 2.166 3.565 6.5 4.192 11.133.33 2.3.297 4.533.297 6.667-.033 4.2-.066 8.166 2.476 11.9.099.166.264.233.462.233.099 0 .23-.033.297-.1.264-.167.297-.533.132-.767-2.344-3.433-2.31-7.233-2.278-11.233.033-2.2.033-4.467-.297-6.833-.891-6.4-4.522-11.967-5.215-12.967.099-2.467.198-4.033.23-4.1 0-.3-.23-.567-.527-.6-.33-.033-.561.2-.594.5-.066.8-1.156 14.967.89 26.9-3.96-7.6-4.026-17.367-4.026-17.5a.56.56 0 0 0-.561-.567.56.56 0 0 0-.561.567c0 .5.066 12.633 5.776 20.667.693 2.9 1.584 5.533 2.806 7.7z" fill="#1187E9" stroke="#1187E9" stroke-width=".6"/></svg>