<svg width="60" height="60" fill="none" xmlns="http://www.w3.org/2000/svg"><g clip-path="url(#clip0)"><path d="M57.125 27.198a1.432 1.432 0 0 0-2.258 1.761 1.69 1.69 0 0 1 0 2.082c-3.502 4.49-8.033 7.864-13.135 9.904A15.99 15.99 0 0 0 46.055 30c0-4.208-1.628-8.044-4.286-10.908a31.416 31.416 0 0 1 9.112 5.626 1.432 1.432 0 0 0 1.898-2.144A34.442 34.442 0 0 0 30 13.945c-10.668 0-20.555 4.83-27.124 13.253a4.55 4.55 0 0 0 0 5.604C9.445 41.225 19.331 46.055 30 46.055s20.555-4.83 27.125-13.253a4.55 4.55 0 0 0 0-5.604zM5.133 31.041a1.69 1.69 0 0 1 0-2.082c3.501-4.489 8.032-7.862 13.132-9.902A15.99 15.99 0 0 0 13.945 30c0 4.225 1.641 8.074 4.32 10.944-5.1-2.04-9.63-5.414-13.132-9.903zm24.884 12.15h-.034C22.716 43.182 16.808 37.27 16.808 30c0-7.268 5.908-13.182 13.175-13.191h.03c7.269.007 13.179 5.921 13.179 13.191 0 7.269-5.908 13.182-13.175 13.191z" fill="#E94635" stroke="#DBEDFC" stroke-width=".6"/><path d="M30 23.925A6.082 6.082 0 0 0 23.925 30 6.082 6.082 0 0 0 30 36.075 6.082 6.082 0 0 0 36.075 30 6.082 6.082 0 0 0 30 23.925zm0 9.287A3.216 3.216 0 0 1 26.788 30 3.216 3.216 0 0 1 30 26.788 3.216 3.216 0 0 1 33.212 30 3.216 3.216 0 0 1 30 33.212zM30 0c-.79 0-1.432.64-1.432 1.432V6.8a1.432 1.432 0 1 0 2.864 0V1.432C31.432.64 30.79 0 30 0zm0 51.768c-.79 0-1.432.64-1.432 1.432v5.368a1.432 1.432 0 1 0 2.864 0V53.2c0-.791-.641-1.432-1.432-1.432zM51.213 8.787a1.432 1.432 0 0 0-2.025 0l-2.67 2.671a1.432 1.432 0 0 0 2.024 2.025l2.672-2.671a1.432 1.432 0 0 0 0-2.025zm-37.73 37.73a1.432 1.432 0 0 0-2.025 0l-2.671 2.671a1.432 1.432 0 0 0 2.024 2.025l2.672-2.671a1.432 1.432 0 0 0 0-2.025zm0-35.059L10.81 8.787a1.432 1.432 0 0 0-2.024 2.025l2.671 2.67a1.428 1.428 0 0 0 2.025 0 1.432 1.432 0 0 0 0-2.024zm37.73 37.73l-2.671-2.67a1.432 1.432 0 0 0-2.025 2.024l2.671 2.671a1.428 1.428 0 0 0 2.025 0 1.43 1.43 0 0 0 0-2.025z" fill="#1187E9"/></g><defs><clipPath id="clip0"><path fill="#fff" d="M0 0h60v60H0z"/></clipPath></defs></svg>