<svg width="78" height="78" fill="none" xmlns="http://www.w3.org/2000/svg"><path d="M72.272 27.427c.044-.396.066-.793.066-1.189 0-6.038-4.912-10.95-10.951-10.957a24.874 24.874 0 0 0-8.573-10.688A24.77 24.77 0 0 0 38.39 0c-5.772 0-11.4 2.019-15.847 5.684a25.031 25.031 0 0 0-8.284 12.96C6.357 18.874 0 25.371 0 33.323c0 8.1 6.593 14.689 14.696 14.689h2.062a1.524 1.524 0 0 0 0-3.047h-2.062c-6.423 0-11.65-5.222-11.65-11.641 0-6.42 5.227-11.642 11.65-11.642.202 0 .424.008.68.022a1.523 1.523 0 0 0 1.579-1.213C19.038 10.384 28.053 3.047 38.39 3.047c9.14 0 17.398 5.762 20.55 14.338.24.655.898 1.062 1.59.99a7.74 7.74 0 0 1 .844-.047c4.365 0 7.916 3.548 7.916 7.91 0 .58-.066 1.165-.195 1.741a1.524 1.524 0 0 0 .914 1.746 7.88 7.88 0 0 1 4.943 7.33c0 4.362-3.551 7.911-7.916 7.911h-5.795a1.524 1.524 0 0 0 0 3.047h5.795C73.082 48.013 78 43.098 78 37.056c0-4.067-2.212-7.726-5.728-9.628z" fill="#017FE8"/><path d="M42.77 33.059h-7.542a1.523 1.523 0 0 0 0 3.047h7.541a1.524 1.524 0 0 0 0-3.047z" fill="#017FE8"/><path d="M52.032 28.64H25.978a3.735 3.735 0 0 0-3.73 3.731V74.27a3.735 3.735 0 0 0 3.73 3.73h26.054a3.735 3.735 0 0 0 3.73-3.73v-41.9a3.735 3.735 0 0 0-3.73-3.73zm-26.738 3.731c0-.377.307-.684.684-.684h26.054c.377 0 .684.307.684.684v5.125H25.294V32.37zm0 8.172h27.422v26.184H25.294V40.543zM52.716 74.27a.684.684 0 0 1-.684.683H25.978a.684.684 0 0 1-.684-.683v-4.497h27.422v4.497z" fill="#017FE8"/><path d="M39.015 70.84h-.02a1.524 1.524 0 0 0 0 3.047h.02a1.524 1.524 0 0 0 0-3.047z" fill="#017FE8"/><path d="M17.747 71.94a1.524 1.524 0 0 0-2.154 0l-.86.859v-8.967a1.524 1.524 0 0 0-3.046 0v8.967l-.86-.86a1.524 1.524 0 0 0-2.154 2.155l3.46 3.46a1.524 1.524 0 0 0 2.154 0l3.46-3.46a1.524 1.524 0 0 0 0-2.155zm51.578-15.333l-3.46-3.46a1.524 1.524 0 0 0-2.154 0l-3.46 3.46a1.524 1.524 0 0 0 2.155 2.154l.859-.859v11.562a1.524 1.524 0 0 0 3.047 0V57.902l.859.86a1.52 1.52 0 0 0 2.154 0 1.524 1.524 0 0 0 0-2.155z" fill="#E94635"/><path d="M38.39 6.762c-7.77 0-14.545 5.516-16.111 13.115a1.523 1.523 0 1 0 2.984.615c1.275-6.19 6.796-10.683 13.128-10.683a1.523 1.523 0 0 0 0-3.047z" fill="#017FE8"/><path d="M14.287 57.257a1.53 1.53 0 0 0-2.154 0 1.536 1.536 0 0 0-.447 1.078 1.53 1.53 0 0 0 1.523 1.523 1.53 1.53 0 0 0 1.524-1.523c0-.402-.162-.793-.446-1.078z" fill="#E94635"/><path d="M35.895 44.02h-6.246a1.524 1.524 0 0 0 0 3.047h6.246a1.524 1.524 0 0 0 0-3.047zm12.456 0h-6.233a1.524 1.524 0 0 0 0 3.047h6.233a1.524 1.524 0 0 0 0-3.047zm0 14.624l-18.703.003a1.523 1.523 0 1 0 .001 3.047l18.703-.004a1.523 1.523 0 1 0-.001-3.046zm0-7.312H29.65a1.524 1.524 0 0 0 0 3.047h18.7a1.524 1.524 0 0 0 0-3.047z" fill="#017FE8"/></svg>