<svg width="78" height="78" fill="none" xmlns="http://www.w3.org/2000/svg"><path d="M35.964 54.373a1.528 1.528 0 0 0-1.077-.446c-.4 0-.794.161-1.077.446a1.533 1.533 0 0 0-.447 1.077c0 .4.163.794.447 1.077.283.284.676.447 1.077.447.4 0 .793-.163 1.077-.447.283-.283.446-.676.446-1.077 0-.4-.163-.794-.446-1.077z" fill="#017FE8"/><path d="M68.25 40.83c-.841 0-1.523.682-1.523 1.523v6.7H40.523v-3.76c0-5.793-4.356-10.585-9.964-11.28a7.92 7.92 0 0 0 1.775-5.001V18.294c0-.841-.683-1.523-1.524-1.523h-7.97a6.43 6.43 0 0 0-6.423 6.422v5.819a7.92 7.92 0 0 0 1.774 5.001c-5.608.695-9.964 5.487-9.964 11.28v3.76h-5.18v-36.6c0-.651.533-1.181 1.189-1.181h31.666a1.524 1.524 0 0 0 0-3.047H4.236A4.237 4.237 0 0 0 0 12.453v45.169c0 2.331 1.9 4.228 4.236 4.228h23.183v7.038c-3.843.389-6.853 3.643-6.853 7.587 0 .842.683 1.524 1.524 1.524h25.594c.84 0 1.523-.682 1.523-1.524 0-3.944-3.01-7.198-6.852-7.587V61.85h23.183a4.237 4.237 0 0 0 4.236-4.228V42.353c0-.841-.683-1.523-1.524-1.523zM19.463 23.194a3.38 3.38 0 0 1 3.376-3.376h6.448v2.432a2.194 2.194 0 0 1-2.192 2.192h-7.632v-1.248zm0 4.295h7.632c.782 0 1.524-.174 2.192-.483v2.006a4.917 4.917 0 0 1-4.912 4.911 4.917 4.917 0 0 1-4.912-4.911v-1.523zm6.69 9.481l-1.778 1.778-1.778-1.778h3.556zm-14.88 8.323c0-4.175 3.091-7.642 7.105-8.233l4.92 4.92c.297.297.687.446 1.077.446.39 0 .78-.149 1.077-.446l4.92-4.92c4.014.591 7.105 4.058 7.105 8.233v3.76H11.273v-3.76zM45.9 74.952H23.874a4.588 4.588 0 0 1 4.319-3.057h13.388a4.587 4.587 0 0 1 4.319 3.057zm-15.434-6.104V61.85h8.842v6.998h-8.842zm36.26-11.226c0 .651-.533 1.181-1.189 1.181H4.236c-.656 0-1.19-.53-1.19-1.181V52.1h63.68v5.522zm2.601-22.085a1.534 1.534 0 0 0-1.077-.446c-.4 0-.794.163-1.077.446a1.538 1.538 0 0 0-.446 1.077 1.529 1.529 0 0 0 1.523 1.524 1.528 1.528 0 0 0 1.523-1.524c0-.4-.163-.793-.446-1.077z" fill="#017FE8"/><path d="M68.25 7.162H56.824a1.524 1.524 0 0 0 0 3.047H68.25a1.523 1.523 0 0 0 0-3.047zm-16.595.446a1.534 1.534 0 0 0-1.077-.446c-.4 0-.794.163-1.077.446a1.535 1.535 0 0 0-.446 1.077c0 .4.163.794.446 1.077.284.284.677.447 1.077.447.4 0 .794-.163 1.077-.447.283-.283.447-.676.447-1.077 0-.4-.163-.794-.447-1.077zm16.595 6.257H50.578a1.524 1.524 0 0 0 0 3.047H68.25a1.523 1.523 0 0 0 0-3.047zm0 6.703H50.578a1.523 1.523 0 0 0 0 3.047H68.25a1.523 1.523 0 0 0 0-3.047z" fill="#E94635"/><path d="M70.383.001H48.445c-4.2 0-7.617 3.418-7.617 7.618v16.3c0 3.909 2.959 7.14 6.754 7.569v3.959a1.524 1.524 0 0 0 2.6 1.077l4.988-4.987h15.213c4.2 0 7.617-3.417 7.617-7.618V7.62C78 3.419 74.583 0 70.383 0zm4.57 23.918c0 2.52-2.05 4.57-4.57 4.57H54.539c-.404 0-.791.161-1.077.447l-2.833 2.833v-1.756c0-.841-.682-1.523-1.524-1.523h-.66c-2.52 0-4.57-2.05-4.57-4.57V7.618c0-2.52 2.05-4.57 4.57-4.57h21.938c2.52 0 4.57 2.05 4.57 4.57v16.3z" fill="#E94635"/></svg>