<svg width="69" height="69" fill="none" xmlns="http://www.w3.org/2000/svg"><g clip-path="url(#clip0)"><path d="M5.453 42.228a1.343 1.343 0 0 0 1.905 0L27.756 21.83l12.35 12.35a1.349 1.349 0 0 0 1.905 0l7.163-7.163a1.347 1.347 0 1 0-1.906-1.906l-6.21 6.21L28.71 18.97a1.35 1.35 0 0 0-1.906 0L6.406 39.37l-3.153-3.152 24.503-24.503 12.35 12.35a1.348 1.348 0 0 0 1.905 0L58.286 7.788a1.347 1.347 0 0 0 0-1.905l-.496-.497 7.956-2.132-2.131 7.956-.27-.27a1.347 1.347 0 0 0-1.906 0l-6.547 6.547a1.348 1.348 0 1 0 1.906 1.906l5.594-5.594.967.968a1.348 1.348 0 0 0 2.255-.604l3.34-12.466a1.347 1.347 0 0 0-1.65-1.651l-12.466 3.34a1.348 1.348 0 0 0-.604 2.255l1.194 1.194-14.37 14.37L28.71 8.855a1.348 1.348 0 0 0-1.905 0L.394 35.264a1.348 1.348 0 0 0 0 1.906l5.059 5.058z" fill="#E94635"/><path d="M67.652 66.305h-1.347V25.56c0-.745-.604-1.348-1.348-1.348H57.41c-.744 0-1.348.603-1.348 1.348v40.744h-3.1V41.643c0-.744-.603-1.348-1.347-1.348h-7.547c-.744 0-1.347.604-1.347 1.348v24.662h-3.1v-17.52c0-.744-.603-1.347-1.348-1.347h-7.547c-.744 0-1.347.603-1.347 1.347v17.52h-3.1V41.643c0-.744-.603-1.348-1.347-1.348h-7.547c-.745 0-1.348.604-1.348 1.348v24.662h-3.1V53.95c0-.744-.603-1.348-1.347-1.348H4.043c-.744 0-1.348.604-1.348 1.348v12.354H1.348a1.348 1.348 0 0 0 0 2.695h66.304a1.348 1.348 0 1 0 0-2.695zm-62.261 0V55.299h4.851v11.006H5.391zm13.341 0V42.99h4.852v23.315h-4.852zm13.342 0V50.133h4.852v16.172h-4.852zm13.342 0V42.99h4.852v23.315h-4.852zm13.342 0V26.908h4.851v39.397h-4.851z" fill="#1187E9"/><path d="M51.08 21.298a1.36 1.36 0 0 0-.395.953 1.35 1.35 0 0 0 2.3.953 1.347 1.347 0 0 0 .001-1.906 1.36 1.36 0 0 0-.953-.395 1.36 1.36 0 0 0-.953.395z" fill="#E94635"/></g><defs><clipPath id="clip0"><path fill="#fff" d="M0 0h69v69H0z"/></clipPath></defs></svg>