<svg width="70" height="70" fill="none" xmlns="http://www.w3.org/2000/svg"><path d="M45.938 45.938a1.368 1.368 0 1 0 0 2.735 1.368 1.368 0 0 0 0-2.736zM27.344 44.57a1.368 1.368 0 0 1 0-2.734c.484 0 .995.247 1.479.715a1.367 1.367 0 1 0 1.9-1.965c-.693-.672-1.387-1.052-2.012-1.26v-1.592a1.367 1.367 0 1 0-2.734 0v1.602a4.108 4.108 0 0 0-2.735 3.867 4.106 4.106 0 0 0 4.102 4.102c.753 0 1.367.613 1.367 1.367s-.614 1.367-1.367 1.367c-.585 0-1.215-.367-1.776-1.034a1.367 1.367 0 1 0-2.093 1.76c.731.869 1.59 1.474 2.502 1.78v1.596a1.367 1.367 0 1 0 2.734 0v-1.602a4.11 4.11 0 0 0 2.734-3.867 4.106 4.106 0 0 0-4.101-4.102zM16.406 22.695c.755 0 1.367-.612 1.367-1.367V15.86a1.367 1.367 0 1 0-2.734 0v5.47c0 .754.612 1.366 1.367 1.366z" fill="#E94635"/><path d="M64.531 32.266V21.328a6.844 6.844 0 0 0-6.836-6.836H50.04V4.102A4.106 4.106 0 0 0 45.937 0h-25.43a4.106 4.106 0 0 0-4.1 4.102v4.921h-4.102a4.106 4.106 0 0 0-4.102 4.102v1.367H6.836A6.844 6.844 0 0 0 0 21.328v41.836A6.844 6.844 0 0 0 6.836 70h41.836c3.3 0 6.063-2.352 6.698-5.469h2.325a6.844 6.844 0 0 0 6.836-6.836v-3.554h1.367A4.106 4.106 0 0 0 70 50.039V37.734a5.475 5.475 0 0 0-5.469-5.468zm2.735 5.468a2.734 2.734 0 0 1-2.735 2.735V35a2.738 2.738 0 0 1 2.735 2.734zm-9.57-20.507a4.106 4.106 0 0 1 4.1 4.101v19.14h-6.288v-8.202c0-3.301-2.352-6.063-5.469-6.698v-8.341h7.656zM19.14 4.102c0-.755.613-1.368 1.367-1.368h25.43c.754 0 1.367.613 1.367 1.368V25.43h-6.29V13.125a4.106 4.106 0 0 0-4.1-4.102H19.14V4.102zM32.813 25.43V11.758h4.101c.754 0 1.367.613 1.367 1.367V25.43h-5.468zm-8.204 0V11.758h5.47V25.43h-5.47zM10.937 13.125a1.37 1.37 0 0 1 1.368-1.367h9.57V25.43H10.937V13.125zm-4.101 4.102h1.367v8.203H7.13c-2.26 0-4.395-1.637-4.395-4.102a4.106 4.106 0 0 1 4.102-4.101zm41.836 50.039H6.836a4.106 4.106 0 0 1-4.102-4.102V26.712a7.363 7.363 0 0 0 4.395 1.452h41.543a4.106 4.106 0 0 1 4.101 4.102v8.203h-9.57a4.106 4.106 0 0 0-4.101 4.101v5.47a4.106 4.106 0 0 0 4.101 4.1h9.57v9.024a4.106 4.106 0 0 1-4.101 4.102zm13.125-9.57a4.106 4.106 0 0 1-4.102 4.1h-2.187v-7.655h6.289v3.554zm4.101-6.29H43.203a1.368 1.368 0 0 1-1.367-1.367V44.57c0-.754.613-1.367 1.367-1.367h21.328c.976 0 1.912-.255 2.735-.732v7.568a1.37 1.37 0 0 1-1.368 1.367z" fill="#1187E9"/><path d="M57.695 45.938h-6.289a1.367 1.367 0 1 0 0 2.734h6.29a1.367 1.367 0 1 0 0-2.734z" fill="#E94635"/></svg>