<svg xmlns="http://www.w3.org/2000/svg" height="23.903" width="22.16"><path d="M13.192 22.758c2.488.188 4.882-.305 6.403-1.32a3.41 3.41 0 0 0 .36-.304c.094-.1.187-.2.274-.306.388-.47.67-.96.835-1.426a3.39 3.39 0 0 0 .13-.496l.009-.06c.014-.094.022-.185.026-.275.002-.06.004-.12.001-.178a1.808 1.808 0 0 0-.047-.344c-.334.344-.692.665-1.066.963-3.203 2.597-6.71 2.79-8.631 2.645a10.988 10.988 0 0 1-1.912-.303c-1.48-.429-2.763-1.073-3.829-1.898a10.56 10.56 0 0 0 2.15 1.7c1.493.898 3.325 1.452 5.297 1.602M3.058 5.205C1.404 6.717.351 8.612.084 10.495a7.638 7.638 0 0 0-.046.42v.01l-.001.007c-.015.2-.026.408-.03.62A11.906 11.906 0 0 0 11.04 23.834l.084.004.082.004.063.006c.038.005.077.01.119.012 2.305.175 4.443-.19 6.167-1.007-1.32.365-2.845.508-4.4.39-2.048-.155-3.954-.733-5.512-1.67-3.048-1.835-4.102-4.307-4.553-5.362l-.047-.11c-.716-1.534-1.027-3.31-.878-5.262l.018-.242H2.2c.343-3.45 2.505-6.39 5.448-7.886-1.7.52-3.299 1.368-4.59 2.494M13.737 9.08c-.053.688-.466 2.266-3.167 2.061a7.36 7.36 0 0 1-.278-.026c.265.655 1.03 1.806 3.15 1.967 2.591.196 4.476-1.57 4.61-3.34a2.675 2.675 0 0 0-.045-.737c-.016-.04-.035-.079-.052-.118-.023-.05-.044-.103-.068-.15-.02-.04-.043-.077-.065-.116-.025-.043-.048-.088-.074-.13-.024-.037-.05-.07-.074-.106-.027-.038-.052-.078-.08-.114-.027-.034-.055-.065-.083-.098-.028-.033-.055-.067-.084-.098l-.09-.088c-.029-.029-.058-.059-.088-.086-.03-.028-.063-.052-.095-.078l-.091-.074c-.033-.025-.067-.046-.1-.069-.03-.02-.062-.044-.093-.064l-.105-.06c-.03-.018-.061-.037-.093-.054-.034-.018-.069-.034-.103-.05-.033-.016-.064-.033-.096-.047l-.103-.04c-.032-.014-.065-.029-.097-.04l-.108-.037-.09-.03a2.206 2.206 0 0 0-.101-.028l-.093-.026-.086-.019-.102-.023-.086-.015-.093-.016c-.051-.008-.1-.014-.148-.02l-.021-.002a4.014 4.014 0 0 0-.606-.025l-.108.003c-.15.006-.3.017-.45.035l-.043.007a5.78 5.78 0 0 0-.419.073l-.105.023a5.87 5.87 0 0 0-.44.118l-.066.023c-.13.042-.257.09-.382.14l-.092.038-.06.03c.693.185 1.214.83 1.163 1.506m-.699 6.606a16.676 16.676 0 0 1-.449-.056v.005c-4.12-.555-5.854-2.433-6.583-3.91a5.487 5.487 0 0 1-.452-1.326l-.021-.1c-.006-.028-.01-.056-.014-.083a5.291 5.291 0 0 1-.076-.727 6.842 6.842 0 0 0-.377 1.782c-.281 3.705 2.497 6.947 6.195 7.227l.047.001a.83.83 0 0 1 .07.002h.01l.029.005a5.786 5.786 0 0 0 .62.026c2.699-.345 4.505-1.562 5.714-2.99a10.138 10.138 0 0 0 .94-1.33c.171-.292.321-.584.455-.87a6.893 6.893 0 0 1-6.108 2.344M9.7 10.8c.083-1.088.563-2.148 1.253-2.768a.005.005 0 0 0-.001.001s.095-.085.12-.105c1.018-.866 2.483-1.367 3.876-1.334a5.288 5.288 0 0 1 .562.043c.031.004.061.01.092.015.061.01.123.018.183.03l.107.023c.053.012.106.023.158.036l.11.031.144.043c.037.012.073.026.11.04.044.015.09.031.133.05.037.013.071.03.107.044.042.02.085.037.126.057.035.016.068.034.102.052l.12.064.097.06.08.047c-.835-1.052-2.302-1.95-4.567-2.12C9.93 4.905 7.596 5.96 6.205 8c-.122.214-.218.543-.257.945l-.004.03-.005.085a4.59 4.59 0 0 0 .046.985c.072.473.22.98.474 1.485.57 1.135 1.792 2.501 4.383 3.241-.708-.676-1.302-1.869-1.142-3.97m2.782-9.137c-.264-.02-.528-.03-.79-.036h-.072c-.18-.003-.36-.004-.538 0l-.181.006c-.138.005-.275.01-.412.02-.1.006-.2.015-.301.023-.094.008-.188.015-.28.025-.14.015-.278.033-.416.052-.053.007-.107.013-.16.021-.174.026-.345.056-.515.088l-.057.01c-3.33.643-5.973 2.474-7.563 4.713C3.25 2.348 7.72-.348 12.804.036l.04.006.066.008.246.017c2.002.201 4.01 1.022 5.542 2.271l.054.045c2.37 1.96 3.604 4.748 3.383 7.65-.293 3.857-2.966 6.917-6.66 8.045a9.227 9.227 0 0 0 2.439-1.977 9.78 9.78 0 0 0 1.186-1.623c1.263-2.094 1.447-3.884 1.462-4.064.068-.398.09-.657.094-.712.283-3.71-2.65-7.098-6.828-7.878-.193-.03-.559-.08-.801-.113v-.014l-.243-.018c-.054-.004-.108-.006-.161-.008a3.348 3.348 0 0 1-.14-.007" fill="#e5353e"/></svg>