<?xml version="1.0" encoding="UTF-8" standalone="no"?>
<svg
   xmlns:dc="http://purl.org/dc/elements/1.1/"
   xmlns:cc="http://creativecommons.org/ns#"
   xmlns:rdf="http://www.w3.org/1999/02/22-rdf-syntax-ns#"
   xmlns:svg="http://www.w3.org/2000/svg"
   xmlns="http://www.w3.org/2000/svg"
   version="1.1"
   id="svg2"
   viewBox="0 0 225 144.64133"
   height="40.820999mm"
   width="63.5mm">
  <defs
     id="defs4" />
  <metadata
     id="metadata7">
    <rdf:RDF>
      <cc:Work
         rdf:about="">
        <dc:format>image/svg+xml</dc:format>
        <dc:type
           rdf:resource="http://purl.org/dc/dcmitype/StillImage" />
        <dc:title></dc:title>
      </cc:Work>
    </rdf:RDF>
  </metadata>
  <g
     transform="translate(-276.7083,-422.65168)"
     id="layer1">
    <g
       transform="translate(97.779738,37.012668)"
       id="g4147">
      <path
         id="path4161"
         d="m 269.92856,529.55508 c -15.04936,-2.08557 -32.51443,-7.19316 -43.5,-12.72141 -18.136,-9.12654 -35.36068,-26.63111 -38.58508,-39.21206 -0.87086,-3.39792 -1.97842,-5.11892 -4.065,-6.31645 -5.36575,-3.07952 -6.3415,-12.44758 -1.80002,-17.28177 1.64178,-1.74759 14.63175,-10.73169 21.76569,-15.05354 0.17358,-0.10516 -1.17642,-2.82418 -3,-6.04227 -3.04029,-5.36524 -3.31442,-6.55685 -3.30156,-14.35107 0.0119,-7.22948 0.40729,-9.24737 2.64502,-13.5 1.44705,-2.75 4.36574,-6.65338 6.48597,-8.67417 2.12024,-2.02079 4.9087,-4.82704 6.19658,-6.23612 5.06737,-5.54422 19.69704,-6.08541 29.56316,-1.09361 5.66499,2.86623 13.33854,9.50333 17.79988,15.39571 l 2.56807,3.39181 6.86365,-1.89181 c 9.74968,-2.68728 33.9776,-2.68728 43.72728,0 l 6.86365,1.89181 2.56807,-3.39181 c 4.46134,-5.89238 12.13489,-12.52948 17.79988,-15.39571 9.86612,-4.9918 24.49579,-4.45061 29.56316,1.09361 1.28788,1.40908 4.07634,4.21533 6.19658,6.23612 2.12023,2.02079 5.03892,5.92417 6.48597,8.67417 2.23773,4.25263 2.63309,6.27052 2.64502,13.5 0.0129,7.79422 -0.26127,8.98583 -3.30156,14.35107 -1.82358,3.21809 -3.17358,5.93711 -3,6.04227 7.13394,4.32185 20.12391,13.30595 21.76569,15.05354 4.54148,4.83419 3.56573,14.20225 -1.80002,17.28177 -2.08658,1.19753 -3.19414,2.91853 -4.065,6.31645 -3.2244,12.58095 -20.44908,30.08552 -38.58508,39.21206 -7.65769,3.85357 -21.54933,8.49736 -32.301,10.79782 -11.04339,2.36287 -42.8766,3.49266 -54.199,1.92359 z"
         style="fill:#a39ded" />
      <path
         id="path4159"
         d="m 274.92856,529.58806 c -38.60435,-3.85591 -70.6618,-21.11094 -83.92249,-45.17156 l -2.39193,-4.33999 2.40721,2.12504 c 6.52982,5.76439 9.53911,5.90259 41.3048,1.89681 52.57209,-6.62954 65.62681,-6.63028 118.15124,-0.007 29.48911,3.71869 33.37203,3.70645 39.015,-0.12297 1.88989,-1.28251 3.43617,-2.0019 3.43617,-1.59863 0,1.72358 -7.80577,12.14287 -12.93444,17.26511 -14.08123,14.06362 -35.40116,24.01307 -60.82979,28.38766 -11.00484,1.89322 -33.11854,2.67571 -44.23577,1.56529 z M 183.67854,471.4964 c -2.37134,-1.38118 -4.7508,-6.20415 -4.74624,-9.62023 0.007,-4.89983 3.38208,-8.62703 14.31781,-15.80944 5.85372,-3.84462 10.65107,-7.49762 10.66078,-8.11778 0.01,-0.62015 -0.64034,-1.67365 -1.44457,-2.3411 -0.80423,-0.66745 -2.42385,-3.76005 -3.59915,-6.87244 -1.64881,-4.36632 -2.03429,-7.1436 -1.6876,-12.1589 0.58266,-8.42893 3.22301,-13.48648 11.51537,-22.05744 5.48239,-5.6666 7.45329,-7.03567 11.53967,-8.01598 12.40883,-2.97683 24.50152,1.74719 35.91141,14.02884 6.17453,6.64628 7.6071,7.72227 9.13961,6.86463 3.19951,-1.79053 16.86074,-3.75027 26.14293,-3.75027 9.28219,0 22.94342,1.95974 26.14293,3.75027 1.53251,0.85764 2.96508,-0.21835 9.13961,-6.86463 11.40989,-12.28165 23.50258,-17.00567 35.91141,-14.02884 4.08638,0.98031 6.05728,2.34938 11.53967,8.01598 3.63639,3.75856 7.58488,8.7415 8.77442,11.0732 4.25166,8.33394 3.53968,20.95087 -1.61054,28.54014 -1.31862,1.9431 -2.38955,3.85043 -2.37984,4.23851 0.01,0.38807 4.80707,3.85119 10.66079,7.69581 10.93573,7.18241 14.31127,10.90961 14.31781,15.80944 0.005,3.54653 -2.44049,8.33253 -4.94087,9.6707 -2.65302,1.41985 -212.86562,1.37058 -215.30541,-0.0505 z"
         style="fill:#7e77e0" />
      <path
         id="path4155"
         d="m 184.23111,471.37947 c -2.29601,-1.10931 -5.30255,-6.38407 -5.30255,-9.30296 0,-4.90637 3.42353,-8.68767 14.61131,-16.1382 l 11.34363,-7.55433 -2.31765,-3.15373 c -3.7836,-5.14854 -5.14104,-9.73746 -5.07422,-17.15374 0.0837,-9.28874 2.63262,-14.76798 10.62098,-22.8311 7.41772,-7.48714 8.64811,-8.21347 15.47447,-9.13502 6.59328,-0.89008 16.08676,1.45248 22.45983,5.54206 4.51143,2.89498 11.75877,9.98102 15.01681,14.68258 1.52415,2.19946 1.68015,2.21789 5.96496,0.70477 7.65623,-2.70369 23.44723,-3.91086 34.58746,-2.64408 5.44901,0.61961 11.86589,1.8176 14.25974,2.6622 4.22823,1.49181 4.39711,1.47118 5.91752,-0.72289 3.25804,-4.70156 10.50537,-11.7876 15.01681,-14.68258 6.37307,-4.08958 15.86655,-6.43214 22.45983,-5.54206 6.82618,0.92152 8.05,1.65036 15.51783,9.24166 8.03027,8.16302 10.49412,13.45626 10.57762,22.72446 0.0668,7.41628 -1.29062,12.0052 -5.07422,17.15374 l -2.31765,3.15373 11.34363,7.55433 c 11.18778,7.45053 14.61131,11.23183 14.61131,16.1382 0,3.09004 -3.05718,8.20502 -5.59524,9.36144 -3.41156,1.55441 -210.88118,1.49774 -214.10221,-0.0585 z"
         style="fill:#9176cc" />
      <path
         id="path4153"
         d="m 183.63581,470.56087 c -3.48806,-2.7437 -5.09736,-7.82518 -3.67065,-11.59032 1.62234,-4.28143 4.20226,-6.63739 14.84528,-13.5566 5.28996,-3.4391 9.80286,-6.38167 10.02866,-6.53904 0.22579,-0.15738 -0.31952,-1.09284 -1.21181,-2.07881 -6.40506,-7.07751 -8.0478,-21.74835 -3.43976,-30.71959 2.93705,-5.71804 8.93012,-11.88753 13.05613,-13.44046 1.5483,-0.58275 4.82086,-1.05954 7.27234,-1.05954 3.83558,0 5.08389,0.57762 8.95018,4.14144 7.17315,6.61198 14.46238,23.72439 14.46238,33.9523 0,3.03328 -0.7164,4.32076 -4.11044,7.38707 -2.26074,2.04244 -6.42324,4.79041 -9.25,6.10659 -5.87221,2.73419 -4.01708,3.06147 5.1296,0.90496 12.3238,-2.90559 21.94371,-9.57724 27.31697,-18.94501 3.21124,-5.59851 3.63406,-9.64302 1.44652,-13.83685 -1.36442,-2.61579 -1.31733,-2.84177 0.75616,-3.62864 11.79967,-4.47786 40.62271,-4.47786 52.42238,0 2.07349,0.78687 2.12058,1.01285 0.75616,3.62864 -2.18754,4.19383 -1.76472,8.23834 1.44652,13.83685 5.37326,9.36777 14.99317,16.03942 27.31697,18.94501 9.14668,2.15651 11.00181,1.82923 5.1296,-0.90496 -2.82676,-1.31618 -6.98926,-4.06415 -9.25,-6.10659 -3.39404,-3.06631 -4.11044,-4.35379 -4.11044,-7.38707 0,-10.22791 7.28923,-27.34032 14.46238,-33.9523 3.86629,-3.56382 5.1146,-4.14144 8.95018,-4.14144 2.45148,0 5.72404,0.47679 7.27234,1.05954 4.12601,1.55293 10.11908,7.72242 13.05613,13.44046 4.60804,8.97124 2.9653,23.64208 -3.43976,30.71959 -0.89229,0.98597 -1.4376,1.92143 -1.21181,2.07881 0.2258,0.15737 4.7387,3.09994 10.02866,6.53904 10.50951,6.83241 13.22756,9.28696 14.75816,13.32745 1.38766,3.66314 -0.28495,9.22481 -3.54558,11.78962 -2.58227,2.03122 -3.3346,2.04549 -107.8307,2.04549 -103.98821,0 -105.26053,-0.0238 -107.79275,-2.01564 z"
         style="fill:#7d5dc2" />
      <path
         id="path4151"
         d="m 269.87097,451.92503 c -1.99566,-5.24897 1.9262,-10.36231 5.60563,-7.30865 1.75594,1.4573 1.91807,7.09402 0.25196,8.76013 -2.04258,2.04258 -4.78778,1.36233 -5.85759,-1.45148 z m 37.25759,1.45148 c -1.66611,-1.66611 -1.50398,-7.30283 0.25196,-8.76013 3.67943,-3.05366 7.60129,2.05968 5.60563,7.30865 -1.06981,2.81381 -3.81501,3.49406 -5.85759,1.45148 z m -95.8906,-10.33311 c -8.54319,-4.25725 -13.67381,-13.64861 -13.63973,-24.96689 0.025,-8.29481 2.88951,-14.8614 8.99393,-20.61747 8.37453,-7.89663 18.01501,-7.80693 24.77811,0.23057 5.79148,6.88278 12.55829,24.68161 12.55829,33.03224 0,5.65692 -15.16077,14.85466 -24.48516,14.85466 -1.71718,0 -5.40963,-1.1399 -8.20544,-2.53311 z m 143.6906,0.98831 c -2.475,-0.77303 -7.0875,-3.44827 -10.25,-5.94497 -6.64998,-5.24999 -6.81609,-6.02193 -3.81814,-17.74379 3.27442,-12.80288 9.95484,-24.10513 16.1376,-27.30236 8.37233,-4.3295 19.70873,1.42708 25.67157,13.03592 6.51135,12.67673 1.05335,30.93532 -11.05043,36.96689 -5.66009,2.82054 -10.00129,3.0776 -16.6906,0.98831 z"
         style="fill:#614794" />
      <path
         id="path4149"
         d="m 201.18021,428.87099 c -1.39432,-0.26862 -2.4389,-1.35643 -2.75,-2.86382 -0.27591,-1.33686 -0.72252,-3.50503 -0.99247,-4.81815 -0.69392,-3.37549 1.01932,-11.68719 2.6352,-12.7845 0.74559,-0.50632 5.63948,-0.77551 10.8753,-0.5982 7.73732,0.26202 10.19608,0.74042 13.13234,2.55513 3.98433,2.46245 6.38182,6.95772 5.38532,10.09742 -0.92345,2.90954 -5.98536,6.87023 -10.31839,8.07363 -3.64198,1.01148 -13.50916,1.19737 -17.9673,0.33849 z m 161.40354,-0.694 c -4.35257,-1.61884 -8.32735,-4.9922 -9.22879,-7.83237 -0.96305,-3.03432 1.49164,-7.55434 5.42158,-9.98317 2.93626,-1.81471 5.39502,-2.29311 13.13234,-2.55513 5.23582,-0.17731 10.12971,0.0919 10.8753,0.5982 2.85809,1.94088 3.43498,17.21472 0.75156,19.89814 -1.38779,1.3878 -17.13674,1.29333 -20.95199,-0.12567 z"
         style="fill:#292929" />
    </g>
  </g>
</svg>
